G04 #@! TF.GenerationSoftware,KiCad,Pcbnew,(5.1.4)-1*
G04 #@! TF.CreationDate,2020-11-14T13:14:41-08:00*
G04 #@! TF.ProjectId,vanish,76616e69-7368-42e6-9b69-6361645f7063,rev?*
G04 #@! TF.SameCoordinates,Original*
G04 #@! TF.FileFunction,Paste,Bot*
G04 #@! TF.FilePolarity,Positive*
%FSLAX46Y46*%
G04 Gerber Fmt 4.6, Leading zero omitted, Abs format (unit mm)*
G04 Created by KiCad (PCBNEW (5.1.4)-1) date 2020-11-14 13:14:41*
%MOMM*%
%LPD*%
G04 APERTURE LIST*
%ADD10C,0.100000*%
%ADD11C,0.975000*%
%ADD12R,0.600000X1.450000*%
%ADD13R,0.300000X1.450000*%
%ADD14C,0.400000*%
%ADD15R,1.060000X0.650000*%
%ADD16R,1.100000X1.800000*%
%ADD17R,1.200000X0.900000*%
%ADD18C,1.250000*%
%ADD19C,0.550000*%
G04 APERTURE END LIST*
D10*
G36*
X165635719Y-90550362D02*
G01*
X165659380Y-90553872D01*
X165682584Y-90559684D01*
X165705106Y-90567742D01*
X165726730Y-90577970D01*
X165747247Y-90590267D01*
X165766460Y-90604517D01*
X165784184Y-90620581D01*
X166429419Y-91265816D01*
X166445483Y-91283540D01*
X166459733Y-91302753D01*
X166472030Y-91323270D01*
X166482258Y-91344894D01*
X166490316Y-91367416D01*
X166496128Y-91390620D01*
X166499638Y-91414281D01*
X166500812Y-91438173D01*
X166499638Y-91462065D01*
X166496128Y-91485726D01*
X166490316Y-91508930D01*
X166482258Y-91531452D01*
X166472030Y-91553076D01*
X166459733Y-91573593D01*
X166445483Y-91592806D01*
X166429419Y-91610530D01*
X166084704Y-91955245D01*
X166066980Y-91971309D01*
X166047767Y-91985559D01*
X166027250Y-91997856D01*
X166005626Y-92008084D01*
X165983104Y-92016142D01*
X165959900Y-92021954D01*
X165936239Y-92025464D01*
X165912347Y-92026638D01*
X165888455Y-92025464D01*
X165864794Y-92021954D01*
X165841590Y-92016142D01*
X165819068Y-92008084D01*
X165797444Y-91997856D01*
X165776927Y-91985559D01*
X165757714Y-91971309D01*
X165739990Y-91955245D01*
X165094755Y-91310010D01*
X165078691Y-91292286D01*
X165064441Y-91273073D01*
X165052144Y-91252556D01*
X165041916Y-91230932D01*
X165033858Y-91208410D01*
X165028046Y-91185206D01*
X165024536Y-91161545D01*
X165023362Y-91137653D01*
X165024536Y-91113761D01*
X165028046Y-91090100D01*
X165033858Y-91066896D01*
X165041916Y-91044374D01*
X165052144Y-91022750D01*
X165064441Y-91002233D01*
X165078691Y-90983020D01*
X165094755Y-90965296D01*
X165439470Y-90620581D01*
X165457194Y-90604517D01*
X165476407Y-90590267D01*
X165496924Y-90577970D01*
X165518548Y-90567742D01*
X165541070Y-90559684D01*
X165564274Y-90553872D01*
X165587935Y-90550362D01*
X165611827Y-90549188D01*
X165635719Y-90550362D01*
X165635719Y-90550362D01*
G37*
D11*
X165762087Y-91287913D03*
D10*
G36*
X166961545Y-89224536D02*
G01*
X166985206Y-89228046D01*
X167008410Y-89233858D01*
X167030932Y-89241916D01*
X167052556Y-89252144D01*
X167073073Y-89264441D01*
X167092286Y-89278691D01*
X167110010Y-89294755D01*
X167755245Y-89939990D01*
X167771309Y-89957714D01*
X167785559Y-89976927D01*
X167797856Y-89997444D01*
X167808084Y-90019068D01*
X167816142Y-90041590D01*
X167821954Y-90064794D01*
X167825464Y-90088455D01*
X167826638Y-90112347D01*
X167825464Y-90136239D01*
X167821954Y-90159900D01*
X167816142Y-90183104D01*
X167808084Y-90205626D01*
X167797856Y-90227250D01*
X167785559Y-90247767D01*
X167771309Y-90266980D01*
X167755245Y-90284704D01*
X167410530Y-90629419D01*
X167392806Y-90645483D01*
X167373593Y-90659733D01*
X167353076Y-90672030D01*
X167331452Y-90682258D01*
X167308930Y-90690316D01*
X167285726Y-90696128D01*
X167262065Y-90699638D01*
X167238173Y-90700812D01*
X167214281Y-90699638D01*
X167190620Y-90696128D01*
X167167416Y-90690316D01*
X167144894Y-90682258D01*
X167123270Y-90672030D01*
X167102753Y-90659733D01*
X167083540Y-90645483D01*
X167065816Y-90629419D01*
X166420581Y-89984184D01*
X166404517Y-89966460D01*
X166390267Y-89947247D01*
X166377970Y-89926730D01*
X166367742Y-89905106D01*
X166359684Y-89882584D01*
X166353872Y-89859380D01*
X166350362Y-89835719D01*
X166349188Y-89811827D01*
X166350362Y-89787935D01*
X166353872Y-89764274D01*
X166359684Y-89741070D01*
X166367742Y-89718548D01*
X166377970Y-89696924D01*
X166390267Y-89676407D01*
X166404517Y-89657194D01*
X166420581Y-89639470D01*
X166765296Y-89294755D01*
X166783020Y-89278691D01*
X166802233Y-89264441D01*
X166822750Y-89252144D01*
X166844374Y-89241916D01*
X166866896Y-89233858D01*
X166890100Y-89228046D01*
X166913761Y-89224536D01*
X166937653Y-89223362D01*
X166961545Y-89224536D01*
X166961545Y-89224536D01*
G37*
D11*
X167087913Y-89962087D03*
D10*
G36*
X172037065Y-87425362D02*
G01*
X172060726Y-87428872D01*
X172083930Y-87434684D01*
X172106452Y-87442742D01*
X172128076Y-87452970D01*
X172148593Y-87465267D01*
X172167806Y-87479517D01*
X172185530Y-87495581D01*
X172530245Y-87840296D01*
X172546309Y-87858020D01*
X172560559Y-87877233D01*
X172572856Y-87897750D01*
X172583084Y-87919374D01*
X172591142Y-87941896D01*
X172596954Y-87965100D01*
X172600464Y-87988761D01*
X172601638Y-88012653D01*
X172600464Y-88036545D01*
X172596954Y-88060206D01*
X172591142Y-88083410D01*
X172583084Y-88105932D01*
X172572856Y-88127556D01*
X172560559Y-88148073D01*
X172546309Y-88167286D01*
X172530245Y-88185010D01*
X171885010Y-88830245D01*
X171867286Y-88846309D01*
X171848073Y-88860559D01*
X171827556Y-88872856D01*
X171805932Y-88883084D01*
X171783410Y-88891142D01*
X171760206Y-88896954D01*
X171736545Y-88900464D01*
X171712653Y-88901638D01*
X171688761Y-88900464D01*
X171665100Y-88896954D01*
X171641896Y-88891142D01*
X171619374Y-88883084D01*
X171597750Y-88872856D01*
X171577233Y-88860559D01*
X171558020Y-88846309D01*
X171540296Y-88830245D01*
X171195581Y-88485530D01*
X171179517Y-88467806D01*
X171165267Y-88448593D01*
X171152970Y-88428076D01*
X171142742Y-88406452D01*
X171134684Y-88383930D01*
X171128872Y-88360726D01*
X171125362Y-88337065D01*
X171124188Y-88313173D01*
X171125362Y-88289281D01*
X171128872Y-88265620D01*
X171134684Y-88242416D01*
X171142742Y-88219894D01*
X171152970Y-88198270D01*
X171165267Y-88177753D01*
X171179517Y-88158540D01*
X171195581Y-88140816D01*
X171840816Y-87495581D01*
X171858540Y-87479517D01*
X171877753Y-87465267D01*
X171898270Y-87452970D01*
X171919894Y-87442742D01*
X171942416Y-87434684D01*
X171965620Y-87428872D01*
X171989281Y-87425362D01*
X172013173Y-87424188D01*
X172037065Y-87425362D01*
X172037065Y-87425362D01*
G37*
D11*
X171862913Y-88162913D03*
D10*
G36*
X170711239Y-86099536D02*
G01*
X170734900Y-86103046D01*
X170758104Y-86108858D01*
X170780626Y-86116916D01*
X170802250Y-86127144D01*
X170822767Y-86139441D01*
X170841980Y-86153691D01*
X170859704Y-86169755D01*
X171204419Y-86514470D01*
X171220483Y-86532194D01*
X171234733Y-86551407D01*
X171247030Y-86571924D01*
X171257258Y-86593548D01*
X171265316Y-86616070D01*
X171271128Y-86639274D01*
X171274638Y-86662935D01*
X171275812Y-86686827D01*
X171274638Y-86710719D01*
X171271128Y-86734380D01*
X171265316Y-86757584D01*
X171257258Y-86780106D01*
X171247030Y-86801730D01*
X171234733Y-86822247D01*
X171220483Y-86841460D01*
X171204419Y-86859184D01*
X170559184Y-87504419D01*
X170541460Y-87520483D01*
X170522247Y-87534733D01*
X170501730Y-87547030D01*
X170480106Y-87557258D01*
X170457584Y-87565316D01*
X170434380Y-87571128D01*
X170410719Y-87574638D01*
X170386827Y-87575812D01*
X170362935Y-87574638D01*
X170339274Y-87571128D01*
X170316070Y-87565316D01*
X170293548Y-87557258D01*
X170271924Y-87547030D01*
X170251407Y-87534733D01*
X170232194Y-87520483D01*
X170214470Y-87504419D01*
X169869755Y-87159704D01*
X169853691Y-87141980D01*
X169839441Y-87122767D01*
X169827144Y-87102250D01*
X169816916Y-87080626D01*
X169808858Y-87058104D01*
X169803046Y-87034900D01*
X169799536Y-87011239D01*
X169798362Y-86987347D01*
X169799536Y-86963455D01*
X169803046Y-86939794D01*
X169808858Y-86916590D01*
X169816916Y-86894068D01*
X169827144Y-86872444D01*
X169839441Y-86851927D01*
X169853691Y-86832714D01*
X169869755Y-86814990D01*
X170514990Y-86169755D01*
X170532714Y-86153691D01*
X170551927Y-86139441D01*
X170572444Y-86127144D01*
X170594068Y-86116916D01*
X170616590Y-86108858D01*
X170639794Y-86103046D01*
X170663455Y-86099536D01*
X170687347Y-86098362D01*
X170711239Y-86099536D01*
X170711239Y-86099536D01*
G37*
D11*
X170537087Y-86837087D03*
D10*
G36*
X222130142Y-17101174D02*
G01*
X222153803Y-17104684D01*
X222177007Y-17110496D01*
X222199529Y-17118554D01*
X222221153Y-17128782D01*
X222241670Y-17141079D01*
X222260883Y-17155329D01*
X222278607Y-17171393D01*
X222294671Y-17189117D01*
X222308921Y-17208330D01*
X222321218Y-17228847D01*
X222331446Y-17250471D01*
X222339504Y-17272993D01*
X222345316Y-17296197D01*
X222348826Y-17319858D01*
X222350000Y-17343750D01*
X222350000Y-18256250D01*
X222348826Y-18280142D01*
X222345316Y-18303803D01*
X222339504Y-18327007D01*
X222331446Y-18349529D01*
X222321218Y-18371153D01*
X222308921Y-18391670D01*
X222294671Y-18410883D01*
X222278607Y-18428607D01*
X222260883Y-18444671D01*
X222241670Y-18458921D01*
X222221153Y-18471218D01*
X222199529Y-18481446D01*
X222177007Y-18489504D01*
X222153803Y-18495316D01*
X222130142Y-18498826D01*
X222106250Y-18500000D01*
X221618750Y-18500000D01*
X221594858Y-18498826D01*
X221571197Y-18495316D01*
X221547993Y-18489504D01*
X221525471Y-18481446D01*
X221503847Y-18471218D01*
X221483330Y-18458921D01*
X221464117Y-18444671D01*
X221446393Y-18428607D01*
X221430329Y-18410883D01*
X221416079Y-18391670D01*
X221403782Y-18371153D01*
X221393554Y-18349529D01*
X221385496Y-18327007D01*
X221379684Y-18303803D01*
X221376174Y-18280142D01*
X221375000Y-18256250D01*
X221375000Y-17343750D01*
X221376174Y-17319858D01*
X221379684Y-17296197D01*
X221385496Y-17272993D01*
X221393554Y-17250471D01*
X221403782Y-17228847D01*
X221416079Y-17208330D01*
X221430329Y-17189117D01*
X221446393Y-17171393D01*
X221464117Y-17155329D01*
X221483330Y-17141079D01*
X221503847Y-17128782D01*
X221525471Y-17118554D01*
X221547993Y-17110496D01*
X221571197Y-17104684D01*
X221594858Y-17101174D01*
X221618750Y-17100000D01*
X222106250Y-17100000D01*
X222130142Y-17101174D01*
X222130142Y-17101174D01*
G37*
D11*
X221862500Y-17800000D03*
D10*
G36*
X224005142Y-17101174D02*
G01*
X224028803Y-17104684D01*
X224052007Y-17110496D01*
X224074529Y-17118554D01*
X224096153Y-17128782D01*
X224116670Y-17141079D01*
X224135883Y-17155329D01*
X224153607Y-17171393D01*
X224169671Y-17189117D01*
X224183921Y-17208330D01*
X224196218Y-17228847D01*
X224206446Y-17250471D01*
X224214504Y-17272993D01*
X224220316Y-17296197D01*
X224223826Y-17319858D01*
X224225000Y-17343750D01*
X224225000Y-18256250D01*
X224223826Y-18280142D01*
X224220316Y-18303803D01*
X224214504Y-18327007D01*
X224206446Y-18349529D01*
X224196218Y-18371153D01*
X224183921Y-18391670D01*
X224169671Y-18410883D01*
X224153607Y-18428607D01*
X224135883Y-18444671D01*
X224116670Y-18458921D01*
X224096153Y-18471218D01*
X224074529Y-18481446D01*
X224052007Y-18489504D01*
X224028803Y-18495316D01*
X224005142Y-18498826D01*
X223981250Y-18500000D01*
X223493750Y-18500000D01*
X223469858Y-18498826D01*
X223446197Y-18495316D01*
X223422993Y-18489504D01*
X223400471Y-18481446D01*
X223378847Y-18471218D01*
X223358330Y-18458921D01*
X223339117Y-18444671D01*
X223321393Y-18428607D01*
X223305329Y-18410883D01*
X223291079Y-18391670D01*
X223278782Y-18371153D01*
X223268554Y-18349529D01*
X223260496Y-18327007D01*
X223254684Y-18303803D01*
X223251174Y-18280142D01*
X223250000Y-18256250D01*
X223250000Y-17343750D01*
X223251174Y-17319858D01*
X223254684Y-17296197D01*
X223260496Y-17272993D01*
X223268554Y-17250471D01*
X223278782Y-17228847D01*
X223291079Y-17208330D01*
X223305329Y-17189117D01*
X223321393Y-17171393D01*
X223339117Y-17155329D01*
X223358330Y-17141079D01*
X223378847Y-17128782D01*
X223400471Y-17118554D01*
X223422993Y-17110496D01*
X223446197Y-17104684D01*
X223469858Y-17101174D01*
X223493750Y-17100000D01*
X223981250Y-17100000D01*
X224005142Y-17101174D01*
X224005142Y-17101174D01*
G37*
D11*
X223737500Y-17800000D03*
D12*
X233015000Y-22895000D03*
X226565000Y-22895000D03*
X232240000Y-22895000D03*
X227340000Y-22895000D03*
D13*
X228040000Y-22895000D03*
X231540000Y-22895000D03*
X228540000Y-22895000D03*
X231040000Y-22895000D03*
X229040000Y-22895000D03*
X230540000Y-22895000D03*
X230040000Y-22895000D03*
X229540000Y-22895000D03*
D10*
G36*
X231280142Y-32476174D02*
G01*
X231303803Y-32479684D01*
X231327007Y-32485496D01*
X231349529Y-32493554D01*
X231371153Y-32503782D01*
X231391670Y-32516079D01*
X231410883Y-32530329D01*
X231428607Y-32546393D01*
X231444671Y-32564117D01*
X231458921Y-32583330D01*
X231471218Y-32603847D01*
X231481446Y-32625471D01*
X231489504Y-32647993D01*
X231495316Y-32671197D01*
X231498826Y-32694858D01*
X231500000Y-32718750D01*
X231500000Y-33206250D01*
X231498826Y-33230142D01*
X231495316Y-33253803D01*
X231489504Y-33277007D01*
X231481446Y-33299529D01*
X231471218Y-33321153D01*
X231458921Y-33341670D01*
X231444671Y-33360883D01*
X231428607Y-33378607D01*
X231410883Y-33394671D01*
X231391670Y-33408921D01*
X231371153Y-33421218D01*
X231349529Y-33431446D01*
X231327007Y-33439504D01*
X231303803Y-33445316D01*
X231280142Y-33448826D01*
X231256250Y-33450000D01*
X230343750Y-33450000D01*
X230319858Y-33448826D01*
X230296197Y-33445316D01*
X230272993Y-33439504D01*
X230250471Y-33431446D01*
X230228847Y-33421218D01*
X230208330Y-33408921D01*
X230189117Y-33394671D01*
X230171393Y-33378607D01*
X230155329Y-33360883D01*
X230141079Y-33341670D01*
X230128782Y-33321153D01*
X230118554Y-33299529D01*
X230110496Y-33277007D01*
X230104684Y-33253803D01*
X230101174Y-33230142D01*
X230100000Y-33206250D01*
X230100000Y-32718750D01*
X230101174Y-32694858D01*
X230104684Y-32671197D01*
X230110496Y-32647993D01*
X230118554Y-32625471D01*
X230128782Y-32603847D01*
X230141079Y-32583330D01*
X230155329Y-32564117D01*
X230171393Y-32546393D01*
X230189117Y-32530329D01*
X230208330Y-32516079D01*
X230228847Y-32503782D01*
X230250471Y-32493554D01*
X230272993Y-32485496D01*
X230296197Y-32479684D01*
X230319858Y-32476174D01*
X230343750Y-32475000D01*
X231256250Y-32475000D01*
X231280142Y-32476174D01*
X231280142Y-32476174D01*
G37*
D11*
X230800000Y-32962500D03*
D10*
G36*
X231280142Y-34351174D02*
G01*
X231303803Y-34354684D01*
X231327007Y-34360496D01*
X231349529Y-34368554D01*
X231371153Y-34378782D01*
X231391670Y-34391079D01*
X231410883Y-34405329D01*
X231428607Y-34421393D01*
X231444671Y-34439117D01*
X231458921Y-34458330D01*
X231471218Y-34478847D01*
X231481446Y-34500471D01*
X231489504Y-34522993D01*
X231495316Y-34546197D01*
X231498826Y-34569858D01*
X231500000Y-34593750D01*
X231500000Y-35081250D01*
X231498826Y-35105142D01*
X231495316Y-35128803D01*
X231489504Y-35152007D01*
X231481446Y-35174529D01*
X231471218Y-35196153D01*
X231458921Y-35216670D01*
X231444671Y-35235883D01*
X231428607Y-35253607D01*
X231410883Y-35269671D01*
X231391670Y-35283921D01*
X231371153Y-35296218D01*
X231349529Y-35306446D01*
X231327007Y-35314504D01*
X231303803Y-35320316D01*
X231280142Y-35323826D01*
X231256250Y-35325000D01*
X230343750Y-35325000D01*
X230319858Y-35323826D01*
X230296197Y-35320316D01*
X230272993Y-35314504D01*
X230250471Y-35306446D01*
X230228847Y-35296218D01*
X230208330Y-35283921D01*
X230189117Y-35269671D01*
X230171393Y-35253607D01*
X230155329Y-35235883D01*
X230141079Y-35216670D01*
X230128782Y-35196153D01*
X230118554Y-35174529D01*
X230110496Y-35152007D01*
X230104684Y-35128803D01*
X230101174Y-35105142D01*
X230100000Y-35081250D01*
X230100000Y-34593750D01*
X230101174Y-34569858D01*
X230104684Y-34546197D01*
X230110496Y-34522993D01*
X230118554Y-34500471D01*
X230128782Y-34478847D01*
X230141079Y-34458330D01*
X230155329Y-34439117D01*
X230171393Y-34421393D01*
X230189117Y-34405329D01*
X230208330Y-34391079D01*
X230228847Y-34378782D01*
X230250471Y-34368554D01*
X230272993Y-34360496D01*
X230296197Y-34354684D01*
X230319858Y-34351174D01*
X230343750Y-34350000D01*
X231256250Y-34350000D01*
X231280142Y-34351174D01*
X231280142Y-34351174D01*
G37*
D11*
X230800000Y-34837500D03*
D10*
G36*
X233280142Y-32476174D02*
G01*
X233303803Y-32479684D01*
X233327007Y-32485496D01*
X233349529Y-32493554D01*
X233371153Y-32503782D01*
X233391670Y-32516079D01*
X233410883Y-32530329D01*
X233428607Y-32546393D01*
X233444671Y-32564117D01*
X233458921Y-32583330D01*
X233471218Y-32603847D01*
X233481446Y-32625471D01*
X233489504Y-32647993D01*
X233495316Y-32671197D01*
X233498826Y-32694858D01*
X233500000Y-32718750D01*
X233500000Y-33206250D01*
X233498826Y-33230142D01*
X233495316Y-33253803D01*
X233489504Y-33277007D01*
X233481446Y-33299529D01*
X233471218Y-33321153D01*
X233458921Y-33341670D01*
X233444671Y-33360883D01*
X233428607Y-33378607D01*
X233410883Y-33394671D01*
X233391670Y-33408921D01*
X233371153Y-33421218D01*
X233349529Y-33431446D01*
X233327007Y-33439504D01*
X233303803Y-33445316D01*
X233280142Y-33448826D01*
X233256250Y-33450000D01*
X232343750Y-33450000D01*
X232319858Y-33448826D01*
X232296197Y-33445316D01*
X232272993Y-33439504D01*
X232250471Y-33431446D01*
X232228847Y-33421218D01*
X232208330Y-33408921D01*
X232189117Y-33394671D01*
X232171393Y-33378607D01*
X232155329Y-33360883D01*
X232141079Y-33341670D01*
X232128782Y-33321153D01*
X232118554Y-33299529D01*
X232110496Y-33277007D01*
X232104684Y-33253803D01*
X232101174Y-33230142D01*
X232100000Y-33206250D01*
X232100000Y-32718750D01*
X232101174Y-32694858D01*
X232104684Y-32671197D01*
X232110496Y-32647993D01*
X232118554Y-32625471D01*
X232128782Y-32603847D01*
X232141079Y-32583330D01*
X232155329Y-32564117D01*
X232171393Y-32546393D01*
X232189117Y-32530329D01*
X232208330Y-32516079D01*
X232228847Y-32503782D01*
X232250471Y-32493554D01*
X232272993Y-32485496D01*
X232296197Y-32479684D01*
X232319858Y-32476174D01*
X232343750Y-32475000D01*
X233256250Y-32475000D01*
X233280142Y-32476174D01*
X233280142Y-32476174D01*
G37*
D11*
X232800000Y-32962500D03*
D10*
G36*
X233280142Y-34351174D02*
G01*
X233303803Y-34354684D01*
X233327007Y-34360496D01*
X233349529Y-34368554D01*
X233371153Y-34378782D01*
X233391670Y-34391079D01*
X233410883Y-34405329D01*
X233428607Y-34421393D01*
X233444671Y-34439117D01*
X233458921Y-34458330D01*
X233471218Y-34478847D01*
X233481446Y-34500471D01*
X233489504Y-34522993D01*
X233495316Y-34546197D01*
X233498826Y-34569858D01*
X233500000Y-34593750D01*
X233500000Y-35081250D01*
X233498826Y-35105142D01*
X233495316Y-35128803D01*
X233489504Y-35152007D01*
X233481446Y-35174529D01*
X233471218Y-35196153D01*
X233458921Y-35216670D01*
X233444671Y-35235883D01*
X233428607Y-35253607D01*
X233410883Y-35269671D01*
X233391670Y-35283921D01*
X233371153Y-35296218D01*
X233349529Y-35306446D01*
X233327007Y-35314504D01*
X233303803Y-35320316D01*
X233280142Y-35323826D01*
X233256250Y-35325000D01*
X232343750Y-35325000D01*
X232319858Y-35323826D01*
X232296197Y-35320316D01*
X232272993Y-35314504D01*
X232250471Y-35306446D01*
X232228847Y-35296218D01*
X232208330Y-35283921D01*
X232189117Y-35269671D01*
X232171393Y-35253607D01*
X232155329Y-35235883D01*
X232141079Y-35216670D01*
X232128782Y-35196153D01*
X232118554Y-35174529D01*
X232110496Y-35152007D01*
X232104684Y-35128803D01*
X232101174Y-35105142D01*
X232100000Y-35081250D01*
X232100000Y-34593750D01*
X232101174Y-34569858D01*
X232104684Y-34546197D01*
X232110496Y-34522993D01*
X232118554Y-34500471D01*
X232128782Y-34478847D01*
X232141079Y-34458330D01*
X232155329Y-34439117D01*
X232171393Y-34421393D01*
X232189117Y-34405329D01*
X232208330Y-34391079D01*
X232228847Y-34378782D01*
X232250471Y-34368554D01*
X232272993Y-34360496D01*
X232296197Y-34354684D01*
X232319858Y-34351174D01*
X232343750Y-34350000D01*
X233256250Y-34350000D01*
X233280142Y-34351174D01*
X233280142Y-34351174D01*
G37*
D11*
X232800000Y-34837500D03*
D14*
X159300000Y-88200000D03*
D10*
G36*
X158486827Y-88730330D02*
G01*
X159830330Y-87386827D01*
X160113173Y-87669670D01*
X158769670Y-89013173D01*
X158486827Y-88730330D01*
X158486827Y-88730330D01*
G37*
D14*
X158451472Y-87351472D03*
D10*
G36*
X157638299Y-87881802D02*
G01*
X158981802Y-86538299D01*
X159264645Y-86821142D01*
X157921142Y-88164645D01*
X157638299Y-87881802D01*
X157638299Y-87881802D01*
G37*
D14*
X157602944Y-86502944D03*
D10*
G36*
X156789771Y-87033274D02*
G01*
X158133274Y-85689771D01*
X158416117Y-85972614D01*
X157072614Y-87316117D01*
X156789771Y-87033274D01*
X156789771Y-87033274D01*
G37*
G36*
X222130142Y-21301174D02*
G01*
X222153803Y-21304684D01*
X222177007Y-21310496D01*
X222199529Y-21318554D01*
X222221153Y-21328782D01*
X222241670Y-21341079D01*
X222260883Y-21355329D01*
X222278607Y-21371393D01*
X222294671Y-21389117D01*
X222308921Y-21408330D01*
X222321218Y-21428847D01*
X222331446Y-21450471D01*
X222339504Y-21472993D01*
X222345316Y-21496197D01*
X222348826Y-21519858D01*
X222350000Y-21543750D01*
X222350000Y-22456250D01*
X222348826Y-22480142D01*
X222345316Y-22503803D01*
X222339504Y-22527007D01*
X222331446Y-22549529D01*
X222321218Y-22571153D01*
X222308921Y-22591670D01*
X222294671Y-22610883D01*
X222278607Y-22628607D01*
X222260883Y-22644671D01*
X222241670Y-22658921D01*
X222221153Y-22671218D01*
X222199529Y-22681446D01*
X222177007Y-22689504D01*
X222153803Y-22695316D01*
X222130142Y-22698826D01*
X222106250Y-22700000D01*
X221618750Y-22700000D01*
X221594858Y-22698826D01*
X221571197Y-22695316D01*
X221547993Y-22689504D01*
X221525471Y-22681446D01*
X221503847Y-22671218D01*
X221483330Y-22658921D01*
X221464117Y-22644671D01*
X221446393Y-22628607D01*
X221430329Y-22610883D01*
X221416079Y-22591670D01*
X221403782Y-22571153D01*
X221393554Y-22549529D01*
X221385496Y-22527007D01*
X221379684Y-22503803D01*
X221376174Y-22480142D01*
X221375000Y-22456250D01*
X221375000Y-21543750D01*
X221376174Y-21519858D01*
X221379684Y-21496197D01*
X221385496Y-21472993D01*
X221393554Y-21450471D01*
X221403782Y-21428847D01*
X221416079Y-21408330D01*
X221430329Y-21389117D01*
X221446393Y-21371393D01*
X221464117Y-21355329D01*
X221483330Y-21341079D01*
X221503847Y-21328782D01*
X221525471Y-21318554D01*
X221547993Y-21310496D01*
X221571197Y-21304684D01*
X221594858Y-21301174D01*
X221618750Y-21300000D01*
X222106250Y-21300000D01*
X222130142Y-21301174D01*
X222130142Y-21301174D01*
G37*
D11*
X221862500Y-22000000D03*
D10*
G36*
X224005142Y-21301174D02*
G01*
X224028803Y-21304684D01*
X224052007Y-21310496D01*
X224074529Y-21318554D01*
X224096153Y-21328782D01*
X224116670Y-21341079D01*
X224135883Y-21355329D01*
X224153607Y-21371393D01*
X224169671Y-21389117D01*
X224183921Y-21408330D01*
X224196218Y-21428847D01*
X224206446Y-21450471D01*
X224214504Y-21472993D01*
X224220316Y-21496197D01*
X224223826Y-21519858D01*
X224225000Y-21543750D01*
X224225000Y-22456250D01*
X224223826Y-22480142D01*
X224220316Y-22503803D01*
X224214504Y-22527007D01*
X224206446Y-22549529D01*
X224196218Y-22571153D01*
X224183921Y-22591670D01*
X224169671Y-22610883D01*
X224153607Y-22628607D01*
X224135883Y-22644671D01*
X224116670Y-22658921D01*
X224096153Y-22671218D01*
X224074529Y-22681446D01*
X224052007Y-22689504D01*
X224028803Y-22695316D01*
X224005142Y-22698826D01*
X223981250Y-22700000D01*
X223493750Y-22700000D01*
X223469858Y-22698826D01*
X223446197Y-22695316D01*
X223422993Y-22689504D01*
X223400471Y-22681446D01*
X223378847Y-22671218D01*
X223358330Y-22658921D01*
X223339117Y-22644671D01*
X223321393Y-22628607D01*
X223305329Y-22610883D01*
X223291079Y-22591670D01*
X223278782Y-22571153D01*
X223268554Y-22549529D01*
X223260496Y-22527007D01*
X223254684Y-22503803D01*
X223251174Y-22480142D01*
X223250000Y-22456250D01*
X223250000Y-21543750D01*
X223251174Y-21519858D01*
X223254684Y-21496197D01*
X223260496Y-21472993D01*
X223268554Y-21450471D01*
X223278782Y-21428847D01*
X223291079Y-21408330D01*
X223305329Y-21389117D01*
X223321393Y-21371393D01*
X223339117Y-21355329D01*
X223358330Y-21341079D01*
X223378847Y-21328782D01*
X223400471Y-21318554D01*
X223422993Y-21310496D01*
X223446197Y-21304684D01*
X223469858Y-21301174D01*
X223493750Y-21300000D01*
X223981250Y-21300000D01*
X224005142Y-21301174D01*
X224005142Y-21301174D01*
G37*
D11*
X223737500Y-22000000D03*
D10*
G36*
X224005142Y-19201174D02*
G01*
X224028803Y-19204684D01*
X224052007Y-19210496D01*
X224074529Y-19218554D01*
X224096153Y-19228782D01*
X224116670Y-19241079D01*
X224135883Y-19255329D01*
X224153607Y-19271393D01*
X224169671Y-19289117D01*
X224183921Y-19308330D01*
X224196218Y-19328847D01*
X224206446Y-19350471D01*
X224214504Y-19372993D01*
X224220316Y-19396197D01*
X224223826Y-19419858D01*
X224225000Y-19443750D01*
X224225000Y-20356250D01*
X224223826Y-20380142D01*
X224220316Y-20403803D01*
X224214504Y-20427007D01*
X224206446Y-20449529D01*
X224196218Y-20471153D01*
X224183921Y-20491670D01*
X224169671Y-20510883D01*
X224153607Y-20528607D01*
X224135883Y-20544671D01*
X224116670Y-20558921D01*
X224096153Y-20571218D01*
X224074529Y-20581446D01*
X224052007Y-20589504D01*
X224028803Y-20595316D01*
X224005142Y-20598826D01*
X223981250Y-20600000D01*
X223493750Y-20600000D01*
X223469858Y-20598826D01*
X223446197Y-20595316D01*
X223422993Y-20589504D01*
X223400471Y-20581446D01*
X223378847Y-20571218D01*
X223358330Y-20558921D01*
X223339117Y-20544671D01*
X223321393Y-20528607D01*
X223305329Y-20510883D01*
X223291079Y-20491670D01*
X223278782Y-20471153D01*
X223268554Y-20449529D01*
X223260496Y-20427007D01*
X223254684Y-20403803D01*
X223251174Y-20380142D01*
X223250000Y-20356250D01*
X223250000Y-19443750D01*
X223251174Y-19419858D01*
X223254684Y-19396197D01*
X223260496Y-19372993D01*
X223268554Y-19350471D01*
X223278782Y-19328847D01*
X223291079Y-19308330D01*
X223305329Y-19289117D01*
X223321393Y-19271393D01*
X223339117Y-19255329D01*
X223358330Y-19241079D01*
X223378847Y-19228782D01*
X223400471Y-19218554D01*
X223422993Y-19210496D01*
X223446197Y-19204684D01*
X223469858Y-19201174D01*
X223493750Y-19200000D01*
X223981250Y-19200000D01*
X224005142Y-19201174D01*
X224005142Y-19201174D01*
G37*
D11*
X223737500Y-19900000D03*
D10*
G36*
X222130142Y-19201174D02*
G01*
X222153803Y-19204684D01*
X222177007Y-19210496D01*
X222199529Y-19218554D01*
X222221153Y-19228782D01*
X222241670Y-19241079D01*
X222260883Y-19255329D01*
X222278607Y-19271393D01*
X222294671Y-19289117D01*
X222308921Y-19308330D01*
X222321218Y-19328847D01*
X222331446Y-19350471D01*
X222339504Y-19372993D01*
X222345316Y-19396197D01*
X222348826Y-19419858D01*
X222350000Y-19443750D01*
X222350000Y-20356250D01*
X222348826Y-20380142D01*
X222345316Y-20403803D01*
X222339504Y-20427007D01*
X222331446Y-20449529D01*
X222321218Y-20471153D01*
X222308921Y-20491670D01*
X222294671Y-20510883D01*
X222278607Y-20528607D01*
X222260883Y-20544671D01*
X222241670Y-20558921D01*
X222221153Y-20571218D01*
X222199529Y-20581446D01*
X222177007Y-20589504D01*
X222153803Y-20595316D01*
X222130142Y-20598826D01*
X222106250Y-20600000D01*
X221618750Y-20600000D01*
X221594858Y-20598826D01*
X221571197Y-20595316D01*
X221547993Y-20589504D01*
X221525471Y-20581446D01*
X221503847Y-20571218D01*
X221483330Y-20558921D01*
X221464117Y-20544671D01*
X221446393Y-20528607D01*
X221430329Y-20510883D01*
X221416079Y-20491670D01*
X221403782Y-20471153D01*
X221393554Y-20449529D01*
X221385496Y-20427007D01*
X221379684Y-20403803D01*
X221376174Y-20380142D01*
X221375000Y-20356250D01*
X221375000Y-19443750D01*
X221376174Y-19419858D01*
X221379684Y-19396197D01*
X221385496Y-19372993D01*
X221393554Y-19350471D01*
X221403782Y-19328847D01*
X221416079Y-19308330D01*
X221430329Y-19289117D01*
X221446393Y-19271393D01*
X221464117Y-19255329D01*
X221483330Y-19241079D01*
X221503847Y-19228782D01*
X221525471Y-19218554D01*
X221547993Y-19210496D01*
X221571197Y-19204684D01*
X221594858Y-19201174D01*
X221618750Y-19200000D01*
X222106250Y-19200000D01*
X222130142Y-19201174D01*
X222130142Y-19201174D01*
G37*
D11*
X221862500Y-19900000D03*
D15*
X230900000Y-26100000D03*
X230900000Y-27050000D03*
X230900000Y-25150000D03*
X228700000Y-25150000D03*
X228700000Y-26100000D03*
X228700000Y-27050000D03*
D16*
X18931625Y-59700000D03*
X22631625Y-53500000D03*
X22631625Y-59700000D03*
X18931625Y-53500000D03*
D17*
X146050000Y-84075000D03*
X146050000Y-87375000D03*
D10*
G36*
X154310719Y-77725362D02*
G01*
X154334380Y-77728872D01*
X154357584Y-77734684D01*
X154380106Y-77742742D01*
X154401730Y-77752970D01*
X154422247Y-77765267D01*
X154441460Y-77779517D01*
X154459184Y-77795581D01*
X155104419Y-78440816D01*
X155120483Y-78458540D01*
X155134733Y-78477753D01*
X155147030Y-78498270D01*
X155157258Y-78519894D01*
X155165316Y-78542416D01*
X155171128Y-78565620D01*
X155174638Y-78589281D01*
X155175812Y-78613173D01*
X155174638Y-78637065D01*
X155171128Y-78660726D01*
X155165316Y-78683930D01*
X155157258Y-78706452D01*
X155147030Y-78728076D01*
X155134733Y-78748593D01*
X155120483Y-78767806D01*
X155104419Y-78785530D01*
X154759704Y-79130245D01*
X154741980Y-79146309D01*
X154722767Y-79160559D01*
X154702250Y-79172856D01*
X154680626Y-79183084D01*
X154658104Y-79191142D01*
X154634900Y-79196954D01*
X154611239Y-79200464D01*
X154587347Y-79201638D01*
X154563455Y-79200464D01*
X154539794Y-79196954D01*
X154516590Y-79191142D01*
X154494068Y-79183084D01*
X154472444Y-79172856D01*
X154451927Y-79160559D01*
X154432714Y-79146309D01*
X154414990Y-79130245D01*
X153769755Y-78485010D01*
X153753691Y-78467286D01*
X153739441Y-78448073D01*
X153727144Y-78427556D01*
X153716916Y-78405932D01*
X153708858Y-78383410D01*
X153703046Y-78360206D01*
X153699536Y-78336545D01*
X153698362Y-78312653D01*
X153699536Y-78288761D01*
X153703046Y-78265100D01*
X153708858Y-78241896D01*
X153716916Y-78219374D01*
X153727144Y-78197750D01*
X153739441Y-78177233D01*
X153753691Y-78158020D01*
X153769755Y-78140296D01*
X154114470Y-77795581D01*
X154132194Y-77779517D01*
X154151407Y-77765267D01*
X154171924Y-77752970D01*
X154193548Y-77742742D01*
X154216070Y-77734684D01*
X154239274Y-77728872D01*
X154262935Y-77725362D01*
X154286827Y-77724188D01*
X154310719Y-77725362D01*
X154310719Y-77725362D01*
G37*
D11*
X154437087Y-78462913D03*
D10*
G36*
X155636545Y-76399536D02*
G01*
X155660206Y-76403046D01*
X155683410Y-76408858D01*
X155705932Y-76416916D01*
X155727556Y-76427144D01*
X155748073Y-76439441D01*
X155767286Y-76453691D01*
X155785010Y-76469755D01*
X156430245Y-77114990D01*
X156446309Y-77132714D01*
X156460559Y-77151927D01*
X156472856Y-77172444D01*
X156483084Y-77194068D01*
X156491142Y-77216590D01*
X156496954Y-77239794D01*
X156500464Y-77263455D01*
X156501638Y-77287347D01*
X156500464Y-77311239D01*
X156496954Y-77334900D01*
X156491142Y-77358104D01*
X156483084Y-77380626D01*
X156472856Y-77402250D01*
X156460559Y-77422767D01*
X156446309Y-77441980D01*
X156430245Y-77459704D01*
X156085530Y-77804419D01*
X156067806Y-77820483D01*
X156048593Y-77834733D01*
X156028076Y-77847030D01*
X156006452Y-77857258D01*
X155983930Y-77865316D01*
X155960726Y-77871128D01*
X155937065Y-77874638D01*
X155913173Y-77875812D01*
X155889281Y-77874638D01*
X155865620Y-77871128D01*
X155842416Y-77865316D01*
X155819894Y-77857258D01*
X155798270Y-77847030D01*
X155777753Y-77834733D01*
X155758540Y-77820483D01*
X155740816Y-77804419D01*
X155095581Y-77159184D01*
X155079517Y-77141460D01*
X155065267Y-77122247D01*
X155052970Y-77101730D01*
X155042742Y-77080106D01*
X155034684Y-77057584D01*
X155028872Y-77034380D01*
X155025362Y-77010719D01*
X155024188Y-76986827D01*
X155025362Y-76962935D01*
X155028872Y-76939274D01*
X155034684Y-76916070D01*
X155042742Y-76893548D01*
X155052970Y-76871924D01*
X155065267Y-76851407D01*
X155079517Y-76832194D01*
X155095581Y-76814470D01*
X155440296Y-76469755D01*
X155458020Y-76453691D01*
X155477233Y-76439441D01*
X155497750Y-76427144D01*
X155519374Y-76416916D01*
X155541896Y-76408858D01*
X155565100Y-76403046D01*
X155588761Y-76399536D01*
X155612653Y-76398362D01*
X155636545Y-76399536D01*
X155636545Y-76399536D01*
G37*
D11*
X155762913Y-77137087D03*
D10*
G36*
X238105142Y-17101174D02*
G01*
X238128803Y-17104684D01*
X238152007Y-17110496D01*
X238174529Y-17118554D01*
X238196153Y-17128782D01*
X238216670Y-17141079D01*
X238235883Y-17155329D01*
X238253607Y-17171393D01*
X238269671Y-17189117D01*
X238283921Y-17208330D01*
X238296218Y-17228847D01*
X238306446Y-17250471D01*
X238314504Y-17272993D01*
X238320316Y-17296197D01*
X238323826Y-17319858D01*
X238325000Y-17343750D01*
X238325000Y-18256250D01*
X238323826Y-18280142D01*
X238320316Y-18303803D01*
X238314504Y-18327007D01*
X238306446Y-18349529D01*
X238296218Y-18371153D01*
X238283921Y-18391670D01*
X238269671Y-18410883D01*
X238253607Y-18428607D01*
X238235883Y-18444671D01*
X238216670Y-18458921D01*
X238196153Y-18471218D01*
X238174529Y-18481446D01*
X238152007Y-18489504D01*
X238128803Y-18495316D01*
X238105142Y-18498826D01*
X238081250Y-18500000D01*
X237593750Y-18500000D01*
X237569858Y-18498826D01*
X237546197Y-18495316D01*
X237522993Y-18489504D01*
X237500471Y-18481446D01*
X237478847Y-18471218D01*
X237458330Y-18458921D01*
X237439117Y-18444671D01*
X237421393Y-18428607D01*
X237405329Y-18410883D01*
X237391079Y-18391670D01*
X237378782Y-18371153D01*
X237368554Y-18349529D01*
X237360496Y-18327007D01*
X237354684Y-18303803D01*
X237351174Y-18280142D01*
X237350000Y-18256250D01*
X237350000Y-17343750D01*
X237351174Y-17319858D01*
X237354684Y-17296197D01*
X237360496Y-17272993D01*
X237368554Y-17250471D01*
X237378782Y-17228847D01*
X237391079Y-17208330D01*
X237405329Y-17189117D01*
X237421393Y-17171393D01*
X237439117Y-17155329D01*
X237458330Y-17141079D01*
X237478847Y-17128782D01*
X237500471Y-17118554D01*
X237522993Y-17110496D01*
X237546197Y-17104684D01*
X237569858Y-17101174D01*
X237593750Y-17100000D01*
X238081250Y-17100000D01*
X238105142Y-17101174D01*
X238105142Y-17101174D01*
G37*
D11*
X237837500Y-17800000D03*
D10*
G36*
X236230142Y-17101174D02*
G01*
X236253803Y-17104684D01*
X236277007Y-17110496D01*
X236299529Y-17118554D01*
X236321153Y-17128782D01*
X236341670Y-17141079D01*
X236360883Y-17155329D01*
X236378607Y-17171393D01*
X236394671Y-17189117D01*
X236408921Y-17208330D01*
X236421218Y-17228847D01*
X236431446Y-17250471D01*
X236439504Y-17272993D01*
X236445316Y-17296197D01*
X236448826Y-17319858D01*
X236450000Y-17343750D01*
X236450000Y-18256250D01*
X236448826Y-18280142D01*
X236445316Y-18303803D01*
X236439504Y-18327007D01*
X236431446Y-18349529D01*
X236421218Y-18371153D01*
X236408921Y-18391670D01*
X236394671Y-18410883D01*
X236378607Y-18428607D01*
X236360883Y-18444671D01*
X236341670Y-18458921D01*
X236321153Y-18471218D01*
X236299529Y-18481446D01*
X236277007Y-18489504D01*
X236253803Y-18495316D01*
X236230142Y-18498826D01*
X236206250Y-18500000D01*
X235718750Y-18500000D01*
X235694858Y-18498826D01*
X235671197Y-18495316D01*
X235647993Y-18489504D01*
X235625471Y-18481446D01*
X235603847Y-18471218D01*
X235583330Y-18458921D01*
X235564117Y-18444671D01*
X235546393Y-18428607D01*
X235530329Y-18410883D01*
X235516079Y-18391670D01*
X235503782Y-18371153D01*
X235493554Y-18349529D01*
X235485496Y-18327007D01*
X235479684Y-18303803D01*
X235476174Y-18280142D01*
X235475000Y-18256250D01*
X235475000Y-17343750D01*
X235476174Y-17319858D01*
X235479684Y-17296197D01*
X235485496Y-17272993D01*
X235493554Y-17250471D01*
X235503782Y-17228847D01*
X235516079Y-17208330D01*
X235530329Y-17189117D01*
X235546393Y-17171393D01*
X235564117Y-17155329D01*
X235583330Y-17141079D01*
X235603847Y-17128782D01*
X235625471Y-17118554D01*
X235647993Y-17110496D01*
X235671197Y-17104684D01*
X235694858Y-17101174D01*
X235718750Y-17100000D01*
X236206250Y-17100000D01*
X236230142Y-17101174D01*
X236230142Y-17101174D01*
G37*
D11*
X235962500Y-17800000D03*
D10*
G36*
X228799504Y-28426204D02*
G01*
X228823773Y-28429804D01*
X228847571Y-28435765D01*
X228870671Y-28444030D01*
X228892849Y-28454520D01*
X228913893Y-28467133D01*
X228933598Y-28481747D01*
X228951777Y-28498223D01*
X228968253Y-28516402D01*
X228982867Y-28536107D01*
X228995480Y-28557151D01*
X229005970Y-28579329D01*
X229014235Y-28602429D01*
X229020196Y-28626227D01*
X229023796Y-28650496D01*
X229025000Y-28675000D01*
X229025000Y-29925000D01*
X229023796Y-29949504D01*
X229020196Y-29973773D01*
X229014235Y-29997571D01*
X229005970Y-30020671D01*
X228995480Y-30042849D01*
X228982867Y-30063893D01*
X228968253Y-30083598D01*
X228951777Y-30101777D01*
X228933598Y-30118253D01*
X228913893Y-30132867D01*
X228892849Y-30145480D01*
X228870671Y-30155970D01*
X228847571Y-30164235D01*
X228823773Y-30170196D01*
X228799504Y-30173796D01*
X228775000Y-30175000D01*
X228025000Y-30175000D01*
X228000496Y-30173796D01*
X227976227Y-30170196D01*
X227952429Y-30164235D01*
X227929329Y-30155970D01*
X227907151Y-30145480D01*
X227886107Y-30132867D01*
X227866402Y-30118253D01*
X227848223Y-30101777D01*
X227831747Y-30083598D01*
X227817133Y-30063893D01*
X227804520Y-30042849D01*
X227794030Y-30020671D01*
X227785765Y-29997571D01*
X227779804Y-29973773D01*
X227776204Y-29949504D01*
X227775000Y-29925000D01*
X227775000Y-28675000D01*
X227776204Y-28650496D01*
X227779804Y-28626227D01*
X227785765Y-28602429D01*
X227794030Y-28579329D01*
X227804520Y-28557151D01*
X227817133Y-28536107D01*
X227831747Y-28516402D01*
X227848223Y-28498223D01*
X227866402Y-28481747D01*
X227886107Y-28467133D01*
X227907151Y-28454520D01*
X227929329Y-28444030D01*
X227952429Y-28435765D01*
X227976227Y-28429804D01*
X228000496Y-28426204D01*
X228025000Y-28425000D01*
X228775000Y-28425000D01*
X228799504Y-28426204D01*
X228799504Y-28426204D01*
G37*
D18*
X228400000Y-29300000D03*
D10*
G36*
X231599504Y-28426204D02*
G01*
X231623773Y-28429804D01*
X231647571Y-28435765D01*
X231670671Y-28444030D01*
X231692849Y-28454520D01*
X231713893Y-28467133D01*
X231733598Y-28481747D01*
X231751777Y-28498223D01*
X231768253Y-28516402D01*
X231782867Y-28536107D01*
X231795480Y-28557151D01*
X231805970Y-28579329D01*
X231814235Y-28602429D01*
X231820196Y-28626227D01*
X231823796Y-28650496D01*
X231825000Y-28675000D01*
X231825000Y-29925000D01*
X231823796Y-29949504D01*
X231820196Y-29973773D01*
X231814235Y-29997571D01*
X231805970Y-30020671D01*
X231795480Y-30042849D01*
X231782867Y-30063893D01*
X231768253Y-30083598D01*
X231751777Y-30101777D01*
X231733598Y-30118253D01*
X231713893Y-30132867D01*
X231692849Y-30145480D01*
X231670671Y-30155970D01*
X231647571Y-30164235D01*
X231623773Y-30170196D01*
X231599504Y-30173796D01*
X231575000Y-30175000D01*
X230825000Y-30175000D01*
X230800496Y-30173796D01*
X230776227Y-30170196D01*
X230752429Y-30164235D01*
X230729329Y-30155970D01*
X230707151Y-30145480D01*
X230686107Y-30132867D01*
X230666402Y-30118253D01*
X230648223Y-30101777D01*
X230631747Y-30083598D01*
X230617133Y-30063893D01*
X230604520Y-30042849D01*
X230594030Y-30020671D01*
X230585765Y-29997571D01*
X230579804Y-29973773D01*
X230576204Y-29949504D01*
X230575000Y-29925000D01*
X230575000Y-28675000D01*
X230576204Y-28650496D01*
X230579804Y-28626227D01*
X230585765Y-28602429D01*
X230594030Y-28579329D01*
X230604520Y-28557151D01*
X230617133Y-28536107D01*
X230631747Y-28516402D01*
X230648223Y-28498223D01*
X230666402Y-28481747D01*
X230686107Y-28467133D01*
X230707151Y-28454520D01*
X230729329Y-28444030D01*
X230752429Y-28435765D01*
X230776227Y-28429804D01*
X230800496Y-28426204D01*
X230825000Y-28425000D01*
X231575000Y-28425000D01*
X231599504Y-28426204D01*
X231599504Y-28426204D01*
G37*
D18*
X231200000Y-29300000D03*
D19*
X171165186Y-79760418D03*
D10*
G36*
X170829310Y-80485202D02*
G01*
X170440402Y-80096294D01*
X171501062Y-79035634D01*
X171889970Y-79424542D01*
X170829310Y-80485202D01*
X170829310Y-80485202D01*
G37*
D19*
X170599500Y-79194733D03*
D10*
G36*
X170263624Y-79919517D02*
G01*
X169874716Y-79530609D01*
X170935376Y-78469949D01*
X171324284Y-78858857D01*
X170263624Y-79919517D01*
X170263624Y-79919517D01*
G37*
D19*
X170033815Y-78629048D03*
D10*
G36*
X169697939Y-79353832D02*
G01*
X169309031Y-78964924D01*
X170369691Y-77904264D01*
X170758599Y-78293172D01*
X169697939Y-79353832D01*
X169697939Y-79353832D01*
G37*
D19*
X169468130Y-78063362D03*
D10*
G36*
X169132254Y-78788146D02*
G01*
X168743346Y-78399238D01*
X169804006Y-77338578D01*
X170192914Y-77727486D01*
X169132254Y-78788146D01*
X169132254Y-78788146D01*
G37*
D19*
X168902444Y-77497677D03*
D10*
G36*
X168566568Y-78222461D02*
G01*
X168177660Y-77833553D01*
X169238320Y-76772893D01*
X169627228Y-77161801D01*
X168566568Y-78222461D01*
X168566568Y-78222461D01*
G37*
D19*
X168336759Y-76931991D03*
D10*
G36*
X168000883Y-77656775D02*
G01*
X167611975Y-77267867D01*
X168672635Y-76207207D01*
X169061543Y-76596115D01*
X168000883Y-77656775D01*
X168000883Y-77656775D01*
G37*
D19*
X167771073Y-76366306D03*
D10*
G36*
X167435197Y-77091090D02*
G01*
X167046289Y-76702182D01*
X168106949Y-75641522D01*
X168495857Y-76030430D01*
X167435197Y-77091090D01*
X167435197Y-77091090D01*
G37*
D19*
X167205388Y-75800620D03*
D10*
G36*
X166869512Y-76525404D02*
G01*
X166480604Y-76136496D01*
X167541264Y-75075836D01*
X167930172Y-75464744D01*
X166869512Y-76525404D01*
X166869512Y-76525404D01*
G37*
D19*
X166639702Y-75234935D03*
D10*
G36*
X166303826Y-75959719D02*
G01*
X165914918Y-75570811D01*
X166975578Y-74510151D01*
X167364486Y-74899059D01*
X166303826Y-75959719D01*
X166303826Y-75959719D01*
G37*
D19*
X166074017Y-74669250D03*
D10*
G36*
X165738141Y-75394034D02*
G01*
X165349233Y-75005126D01*
X166409893Y-73944466D01*
X166798801Y-74333374D01*
X165738141Y-75394034D01*
X165738141Y-75394034D01*
G37*
D19*
X165508332Y-74103564D03*
D10*
G36*
X165172456Y-74828348D02*
G01*
X164783548Y-74439440D01*
X165844208Y-73378780D01*
X166233116Y-73767688D01*
X165172456Y-74828348D01*
X165172456Y-74828348D01*
G37*
D19*
X163104168Y-74103564D03*
D10*
G36*
X163828952Y-74439440D02*
G01*
X163440044Y-74828348D01*
X162379384Y-73767688D01*
X162768292Y-73378780D01*
X163828952Y-74439440D01*
X163828952Y-74439440D01*
G37*
D19*
X162538483Y-74669250D03*
D10*
G36*
X163263267Y-75005126D02*
G01*
X162874359Y-75394034D01*
X161813699Y-74333374D01*
X162202607Y-73944466D01*
X163263267Y-75005126D01*
X163263267Y-75005126D01*
G37*
D19*
X161972798Y-75234935D03*
D10*
G36*
X162697582Y-75570811D02*
G01*
X162308674Y-75959719D01*
X161248014Y-74899059D01*
X161636922Y-74510151D01*
X162697582Y-75570811D01*
X162697582Y-75570811D01*
G37*
D19*
X161407112Y-75800620D03*
D10*
G36*
X162131896Y-76136496D02*
G01*
X161742988Y-76525404D01*
X160682328Y-75464744D01*
X161071236Y-75075836D01*
X162131896Y-76136496D01*
X162131896Y-76136496D01*
G37*
D19*
X160841427Y-76366306D03*
D10*
G36*
X161566211Y-76702182D02*
G01*
X161177303Y-77091090D01*
X160116643Y-76030430D01*
X160505551Y-75641522D01*
X161566211Y-76702182D01*
X161566211Y-76702182D01*
G37*
D19*
X160275741Y-76931991D03*
D10*
G36*
X161000525Y-77267867D02*
G01*
X160611617Y-77656775D01*
X159550957Y-76596115D01*
X159939865Y-76207207D01*
X161000525Y-77267867D01*
X161000525Y-77267867D01*
G37*
D19*
X159710056Y-77497677D03*
D10*
G36*
X160434840Y-77833553D02*
G01*
X160045932Y-78222461D01*
X158985272Y-77161801D01*
X159374180Y-76772893D01*
X160434840Y-77833553D01*
X160434840Y-77833553D01*
G37*
D19*
X159144370Y-78063362D03*
D10*
G36*
X159869154Y-78399238D02*
G01*
X159480246Y-78788146D01*
X158419586Y-77727486D01*
X158808494Y-77338578D01*
X159869154Y-78399238D01*
X159869154Y-78399238D01*
G37*
D19*
X158578685Y-78629048D03*
D10*
G36*
X159303469Y-78964924D02*
G01*
X158914561Y-79353832D01*
X157853901Y-78293172D01*
X158242809Y-77904264D01*
X159303469Y-78964924D01*
X159303469Y-78964924D01*
G37*
D19*
X158013000Y-79194733D03*
D10*
G36*
X158737784Y-79530609D02*
G01*
X158348876Y-79919517D01*
X157288216Y-78858857D01*
X157677124Y-78469949D01*
X158737784Y-79530609D01*
X158737784Y-79530609D01*
G37*
D19*
X157447314Y-79760418D03*
D10*
G36*
X158172098Y-80096294D02*
G01*
X157783190Y-80485202D01*
X156722530Y-79424542D01*
X157111438Y-79035634D01*
X158172098Y-80096294D01*
X158172098Y-80096294D01*
G37*
D19*
X157447314Y-82164582D03*
D10*
G36*
X157111438Y-82889366D02*
G01*
X156722530Y-82500458D01*
X157783190Y-81439798D01*
X158172098Y-81828706D01*
X157111438Y-82889366D01*
X157111438Y-82889366D01*
G37*
D19*
X158013000Y-82730267D03*
D10*
G36*
X157677124Y-83455051D02*
G01*
X157288216Y-83066143D01*
X158348876Y-82005483D01*
X158737784Y-82394391D01*
X157677124Y-83455051D01*
X157677124Y-83455051D01*
G37*
D19*
X158578685Y-83295952D03*
D10*
G36*
X158242809Y-84020736D02*
G01*
X157853901Y-83631828D01*
X158914561Y-82571168D01*
X159303469Y-82960076D01*
X158242809Y-84020736D01*
X158242809Y-84020736D01*
G37*
D19*
X159144370Y-83861638D03*
D10*
G36*
X158808494Y-84586422D02*
G01*
X158419586Y-84197514D01*
X159480246Y-83136854D01*
X159869154Y-83525762D01*
X158808494Y-84586422D01*
X158808494Y-84586422D01*
G37*
D19*
X159710056Y-84427323D03*
D10*
G36*
X159374180Y-85152107D02*
G01*
X158985272Y-84763199D01*
X160045932Y-83702539D01*
X160434840Y-84091447D01*
X159374180Y-85152107D01*
X159374180Y-85152107D01*
G37*
D19*
X160275741Y-84993009D03*
D10*
G36*
X159939865Y-85717793D02*
G01*
X159550957Y-85328885D01*
X160611617Y-84268225D01*
X161000525Y-84657133D01*
X159939865Y-85717793D01*
X159939865Y-85717793D01*
G37*
D19*
X160841427Y-85558694D03*
D10*
G36*
X160505551Y-86283478D02*
G01*
X160116643Y-85894570D01*
X161177303Y-84833910D01*
X161566211Y-85222818D01*
X160505551Y-86283478D01*
X160505551Y-86283478D01*
G37*
D19*
X161407112Y-86124380D03*
D10*
G36*
X161071236Y-86849164D02*
G01*
X160682328Y-86460256D01*
X161742988Y-85399596D01*
X162131896Y-85788504D01*
X161071236Y-86849164D01*
X161071236Y-86849164D01*
G37*
D19*
X161972798Y-86690065D03*
D10*
G36*
X161636922Y-87414849D02*
G01*
X161248014Y-87025941D01*
X162308674Y-85965281D01*
X162697582Y-86354189D01*
X161636922Y-87414849D01*
X161636922Y-87414849D01*
G37*
D19*
X162538483Y-87255750D03*
D10*
G36*
X162202607Y-87980534D02*
G01*
X161813699Y-87591626D01*
X162874359Y-86530966D01*
X163263267Y-86919874D01*
X162202607Y-87980534D01*
X162202607Y-87980534D01*
G37*
D19*
X163104168Y-87821436D03*
D10*
G36*
X162768292Y-88546220D02*
G01*
X162379384Y-88157312D01*
X163440044Y-87096652D01*
X163828952Y-87485560D01*
X162768292Y-88546220D01*
X162768292Y-88546220D01*
G37*
D19*
X165508332Y-87821436D03*
D10*
G36*
X166233116Y-88157312D02*
G01*
X165844208Y-88546220D01*
X164783548Y-87485560D01*
X165172456Y-87096652D01*
X166233116Y-88157312D01*
X166233116Y-88157312D01*
G37*
D19*
X166074017Y-87255750D03*
D10*
G36*
X166798801Y-87591626D02*
G01*
X166409893Y-87980534D01*
X165349233Y-86919874D01*
X165738141Y-86530966D01*
X166798801Y-87591626D01*
X166798801Y-87591626D01*
G37*
D19*
X166639702Y-86690065D03*
D10*
G36*
X167364486Y-87025941D02*
G01*
X166975578Y-87414849D01*
X165914918Y-86354189D01*
X166303826Y-85965281D01*
X167364486Y-87025941D01*
X167364486Y-87025941D01*
G37*
D19*
X167205388Y-86124380D03*
D10*
G36*
X167930172Y-86460256D02*
G01*
X167541264Y-86849164D01*
X166480604Y-85788504D01*
X166869512Y-85399596D01*
X167930172Y-86460256D01*
X167930172Y-86460256D01*
G37*
D19*
X167771073Y-85558694D03*
D10*
G36*
X168495857Y-85894570D02*
G01*
X168106949Y-86283478D01*
X167046289Y-85222818D01*
X167435197Y-84833910D01*
X168495857Y-85894570D01*
X168495857Y-85894570D01*
G37*
D19*
X168336759Y-84993009D03*
D10*
G36*
X169061543Y-85328885D02*
G01*
X168672635Y-85717793D01*
X167611975Y-84657133D01*
X168000883Y-84268225D01*
X169061543Y-85328885D01*
X169061543Y-85328885D01*
G37*
D19*
X168902444Y-84427323D03*
D10*
G36*
X169627228Y-84763199D02*
G01*
X169238320Y-85152107D01*
X168177660Y-84091447D01*
X168566568Y-83702539D01*
X169627228Y-84763199D01*
X169627228Y-84763199D01*
G37*
D19*
X169468130Y-83861638D03*
D10*
G36*
X170192914Y-84197514D02*
G01*
X169804006Y-84586422D01*
X168743346Y-83525762D01*
X169132254Y-83136854D01*
X170192914Y-84197514D01*
X170192914Y-84197514D01*
G37*
D19*
X170033815Y-83295952D03*
D10*
G36*
X170758599Y-83631828D02*
G01*
X170369691Y-84020736D01*
X169309031Y-82960076D01*
X169697939Y-82571168D01*
X170758599Y-83631828D01*
X170758599Y-83631828D01*
G37*
D19*
X170599500Y-82730267D03*
D10*
G36*
X171324284Y-83066143D02*
G01*
X170935376Y-83455051D01*
X169874716Y-82394391D01*
X170263624Y-82005483D01*
X171324284Y-83066143D01*
X171324284Y-83066143D01*
G37*
D19*
X171165186Y-82164582D03*
D10*
G36*
X171889970Y-82500458D02*
G01*
X171501062Y-82889366D01*
X170440402Y-81828706D01*
X170829310Y-81439798D01*
X171889970Y-82500458D01*
X171889970Y-82500458D01*
G37*
G36*
X160810719Y-71225362D02*
G01*
X160834380Y-71228872D01*
X160857584Y-71234684D01*
X160880106Y-71242742D01*
X160901730Y-71252970D01*
X160922247Y-71265267D01*
X160941460Y-71279517D01*
X160959184Y-71295581D01*
X161604419Y-71940816D01*
X161620483Y-71958540D01*
X161634733Y-71977753D01*
X161647030Y-71998270D01*
X161657258Y-72019894D01*
X161665316Y-72042416D01*
X161671128Y-72065620D01*
X161674638Y-72089281D01*
X161675812Y-72113173D01*
X161674638Y-72137065D01*
X161671128Y-72160726D01*
X161665316Y-72183930D01*
X161657258Y-72206452D01*
X161647030Y-72228076D01*
X161634733Y-72248593D01*
X161620483Y-72267806D01*
X161604419Y-72285530D01*
X161259704Y-72630245D01*
X161241980Y-72646309D01*
X161222767Y-72660559D01*
X161202250Y-72672856D01*
X161180626Y-72683084D01*
X161158104Y-72691142D01*
X161134900Y-72696954D01*
X161111239Y-72700464D01*
X161087347Y-72701638D01*
X161063455Y-72700464D01*
X161039794Y-72696954D01*
X161016590Y-72691142D01*
X160994068Y-72683084D01*
X160972444Y-72672856D01*
X160951927Y-72660559D01*
X160932714Y-72646309D01*
X160914990Y-72630245D01*
X160269755Y-71985010D01*
X160253691Y-71967286D01*
X160239441Y-71948073D01*
X160227144Y-71927556D01*
X160216916Y-71905932D01*
X160208858Y-71883410D01*
X160203046Y-71860206D01*
X160199536Y-71836545D01*
X160198362Y-71812653D01*
X160199536Y-71788761D01*
X160203046Y-71765100D01*
X160208858Y-71741896D01*
X160216916Y-71719374D01*
X160227144Y-71697750D01*
X160239441Y-71677233D01*
X160253691Y-71658020D01*
X160269755Y-71640296D01*
X160614470Y-71295581D01*
X160632194Y-71279517D01*
X160651407Y-71265267D01*
X160671924Y-71252970D01*
X160693548Y-71242742D01*
X160716070Y-71234684D01*
X160739274Y-71228872D01*
X160762935Y-71225362D01*
X160786827Y-71224188D01*
X160810719Y-71225362D01*
X160810719Y-71225362D01*
G37*
D11*
X160937087Y-71962913D03*
D10*
G36*
X162136545Y-69899536D02*
G01*
X162160206Y-69903046D01*
X162183410Y-69908858D01*
X162205932Y-69916916D01*
X162227556Y-69927144D01*
X162248073Y-69939441D01*
X162267286Y-69953691D01*
X162285010Y-69969755D01*
X162930245Y-70614990D01*
X162946309Y-70632714D01*
X162960559Y-70651927D01*
X162972856Y-70672444D01*
X162983084Y-70694068D01*
X162991142Y-70716590D01*
X162996954Y-70739794D01*
X163000464Y-70763455D01*
X163001638Y-70787347D01*
X163000464Y-70811239D01*
X162996954Y-70834900D01*
X162991142Y-70858104D01*
X162983084Y-70880626D01*
X162972856Y-70902250D01*
X162960559Y-70922767D01*
X162946309Y-70941980D01*
X162930245Y-70959704D01*
X162585530Y-71304419D01*
X162567806Y-71320483D01*
X162548593Y-71334733D01*
X162528076Y-71347030D01*
X162506452Y-71357258D01*
X162483930Y-71365316D01*
X162460726Y-71371128D01*
X162437065Y-71374638D01*
X162413173Y-71375812D01*
X162389281Y-71374638D01*
X162365620Y-71371128D01*
X162342416Y-71365316D01*
X162319894Y-71357258D01*
X162298270Y-71347030D01*
X162277753Y-71334733D01*
X162258540Y-71320483D01*
X162240816Y-71304419D01*
X161595581Y-70659184D01*
X161579517Y-70641460D01*
X161565267Y-70622247D01*
X161552970Y-70601730D01*
X161542742Y-70580106D01*
X161534684Y-70557584D01*
X161528872Y-70534380D01*
X161525362Y-70510719D01*
X161524188Y-70486827D01*
X161525362Y-70462935D01*
X161528872Y-70439274D01*
X161534684Y-70416070D01*
X161542742Y-70393548D01*
X161552970Y-70371924D01*
X161565267Y-70351407D01*
X161579517Y-70332194D01*
X161595581Y-70314470D01*
X161940296Y-69969755D01*
X161958020Y-69953691D01*
X161977233Y-69939441D01*
X161997750Y-69927144D01*
X162019374Y-69916916D01*
X162041896Y-69908858D01*
X162065100Y-69903046D01*
X162088761Y-69899536D01*
X162112653Y-69898362D01*
X162136545Y-69899536D01*
X162136545Y-69899536D01*
G37*
D11*
X162262913Y-70637087D03*
D17*
X257968750Y-84075000D03*
X257968750Y-87375000D03*
X238918750Y-84075000D03*
X238918750Y-87375000D03*
X217487500Y-84075000D03*
X217487500Y-87375000D03*
X76993750Y-84075000D03*
X76993750Y-87375000D03*
X57943750Y-84075000D03*
X57943750Y-87375000D03*
X36512500Y-84075000D03*
X36512500Y-87375000D03*
X257968750Y-65025000D03*
X257968750Y-68325000D03*
X223043750Y-65025000D03*
X223043750Y-68325000D03*
X219868750Y-65025000D03*
X219868750Y-68325000D03*
X200818750Y-65025000D03*
X200818750Y-68325000D03*
X181768750Y-65025000D03*
X181768750Y-68325000D03*
X162718750Y-65025000D03*
X162718750Y-68325000D03*
X143668750Y-65025000D03*
X143668750Y-68325000D03*
X124618750Y-65025000D03*
X124618750Y-68325000D03*
X105568750Y-65025000D03*
X105568750Y-68325000D03*
X86518750Y-65025000D03*
X86518750Y-68325000D03*
X67468750Y-65025000D03*
X67468750Y-68325000D03*
X41275000Y-65025000D03*
X41275000Y-68325000D03*
X253206250Y-45975000D03*
X253206250Y-49275000D03*
X229393750Y-45975000D03*
X229393750Y-49275000D03*
X210343750Y-45975000D03*
X210343750Y-49275000D03*
X191293750Y-45975000D03*
X191293750Y-49275000D03*
X172243750Y-45975000D03*
X172243750Y-49275000D03*
X153193750Y-45975000D03*
X153193750Y-49275000D03*
X134143750Y-45975000D03*
X134143750Y-49275000D03*
X115093750Y-45975000D03*
X115093750Y-49275000D03*
X96043750Y-45975000D03*
X96043750Y-49275000D03*
X76993750Y-45975000D03*
X76993750Y-49275000D03*
X57943750Y-45975000D03*
X57943750Y-49275000D03*
X36512500Y-45975000D03*
X36512500Y-49275000D03*
X250825000Y-26925000D03*
X250825000Y-30225000D03*
X208756250Y-26925000D03*
X208756250Y-30225000D03*
X205581250Y-26925000D03*
X205581250Y-30225000D03*
X186531250Y-26925000D03*
X186531250Y-30225000D03*
X167481250Y-26925000D03*
X167481250Y-30225000D03*
X148431250Y-26925000D03*
X148431250Y-30225000D03*
X129381250Y-26925000D03*
X129381250Y-30225000D03*
X110331250Y-26925000D03*
X110331250Y-30225000D03*
X91281250Y-26925000D03*
X91281250Y-30225000D03*
X72231250Y-26925000D03*
X72231250Y-30225000D03*
X53181250Y-26925000D03*
X53181250Y-30225000D03*
X34131250Y-26925000D03*
X34131250Y-30225000D03*
D10*
G36*
X169780142Y-90151174D02*
G01*
X169803803Y-90154684D01*
X169827007Y-90160496D01*
X169849529Y-90168554D01*
X169871153Y-90178782D01*
X169891670Y-90191079D01*
X169910883Y-90205329D01*
X169928607Y-90221393D01*
X169944671Y-90239117D01*
X169958921Y-90258330D01*
X169971218Y-90278847D01*
X169981446Y-90300471D01*
X169989504Y-90322993D01*
X169995316Y-90346197D01*
X169998826Y-90369858D01*
X170000000Y-90393750D01*
X170000000Y-90881250D01*
X169998826Y-90905142D01*
X169995316Y-90928803D01*
X169989504Y-90952007D01*
X169981446Y-90974529D01*
X169971218Y-90996153D01*
X169958921Y-91016670D01*
X169944671Y-91035883D01*
X169928607Y-91053607D01*
X169910883Y-91069671D01*
X169891670Y-91083921D01*
X169871153Y-91096218D01*
X169849529Y-91106446D01*
X169827007Y-91114504D01*
X169803803Y-91120316D01*
X169780142Y-91123826D01*
X169756250Y-91125000D01*
X168843750Y-91125000D01*
X168819858Y-91123826D01*
X168796197Y-91120316D01*
X168772993Y-91114504D01*
X168750471Y-91106446D01*
X168728847Y-91096218D01*
X168708330Y-91083921D01*
X168689117Y-91069671D01*
X168671393Y-91053607D01*
X168655329Y-91035883D01*
X168641079Y-91016670D01*
X168628782Y-90996153D01*
X168618554Y-90974529D01*
X168610496Y-90952007D01*
X168604684Y-90928803D01*
X168601174Y-90905142D01*
X168600000Y-90881250D01*
X168600000Y-90393750D01*
X168601174Y-90369858D01*
X168604684Y-90346197D01*
X168610496Y-90322993D01*
X168618554Y-90300471D01*
X168628782Y-90278847D01*
X168641079Y-90258330D01*
X168655329Y-90239117D01*
X168671393Y-90221393D01*
X168689117Y-90205329D01*
X168708330Y-90191079D01*
X168728847Y-90178782D01*
X168750471Y-90168554D01*
X168772993Y-90160496D01*
X168796197Y-90154684D01*
X168819858Y-90151174D01*
X168843750Y-90150000D01*
X169756250Y-90150000D01*
X169780142Y-90151174D01*
X169780142Y-90151174D01*
G37*
D11*
X169300000Y-90637500D03*
D10*
G36*
X169780142Y-88276174D02*
G01*
X169803803Y-88279684D01*
X169827007Y-88285496D01*
X169849529Y-88293554D01*
X169871153Y-88303782D01*
X169891670Y-88316079D01*
X169910883Y-88330329D01*
X169928607Y-88346393D01*
X169944671Y-88364117D01*
X169958921Y-88383330D01*
X169971218Y-88403847D01*
X169981446Y-88425471D01*
X169989504Y-88447993D01*
X169995316Y-88471197D01*
X169998826Y-88494858D01*
X170000000Y-88518750D01*
X170000000Y-89006250D01*
X169998826Y-89030142D01*
X169995316Y-89053803D01*
X169989504Y-89077007D01*
X169981446Y-89099529D01*
X169971218Y-89121153D01*
X169958921Y-89141670D01*
X169944671Y-89160883D01*
X169928607Y-89178607D01*
X169910883Y-89194671D01*
X169891670Y-89208921D01*
X169871153Y-89221218D01*
X169849529Y-89231446D01*
X169827007Y-89239504D01*
X169803803Y-89245316D01*
X169780142Y-89248826D01*
X169756250Y-89250000D01*
X168843750Y-89250000D01*
X168819858Y-89248826D01*
X168796197Y-89245316D01*
X168772993Y-89239504D01*
X168750471Y-89231446D01*
X168728847Y-89221218D01*
X168708330Y-89208921D01*
X168689117Y-89194671D01*
X168671393Y-89178607D01*
X168655329Y-89160883D01*
X168641079Y-89141670D01*
X168628782Y-89121153D01*
X168618554Y-89099529D01*
X168610496Y-89077007D01*
X168604684Y-89053803D01*
X168601174Y-89030142D01*
X168600000Y-89006250D01*
X168600000Y-88518750D01*
X168601174Y-88494858D01*
X168604684Y-88471197D01*
X168610496Y-88447993D01*
X168618554Y-88425471D01*
X168628782Y-88403847D01*
X168641079Y-88383330D01*
X168655329Y-88364117D01*
X168671393Y-88346393D01*
X168689117Y-88330329D01*
X168708330Y-88316079D01*
X168728847Y-88303782D01*
X168750471Y-88293554D01*
X168772993Y-88285496D01*
X168796197Y-88279684D01*
X168819858Y-88276174D01*
X168843750Y-88275000D01*
X169756250Y-88275000D01*
X169780142Y-88276174D01*
X169780142Y-88276174D01*
G37*
D11*
X169300000Y-88762500D03*
D10*
G36*
X166411239Y-69999536D02*
G01*
X166434900Y-70003046D01*
X166458104Y-70008858D01*
X166480626Y-70016916D01*
X166502250Y-70027144D01*
X166522767Y-70039441D01*
X166541980Y-70053691D01*
X166559704Y-70069755D01*
X166904419Y-70414470D01*
X166920483Y-70432194D01*
X166934733Y-70451407D01*
X166947030Y-70471924D01*
X166957258Y-70493548D01*
X166965316Y-70516070D01*
X166971128Y-70539274D01*
X166974638Y-70562935D01*
X166975812Y-70586827D01*
X166974638Y-70610719D01*
X166971128Y-70634380D01*
X166965316Y-70657584D01*
X166957258Y-70680106D01*
X166947030Y-70701730D01*
X166934733Y-70722247D01*
X166920483Y-70741460D01*
X166904419Y-70759184D01*
X166259184Y-71404419D01*
X166241460Y-71420483D01*
X166222247Y-71434733D01*
X166201730Y-71447030D01*
X166180106Y-71457258D01*
X166157584Y-71465316D01*
X166134380Y-71471128D01*
X166110719Y-71474638D01*
X166086827Y-71475812D01*
X166062935Y-71474638D01*
X166039274Y-71471128D01*
X166016070Y-71465316D01*
X165993548Y-71457258D01*
X165971924Y-71447030D01*
X165951407Y-71434733D01*
X165932194Y-71420483D01*
X165914470Y-71404419D01*
X165569755Y-71059704D01*
X165553691Y-71041980D01*
X165539441Y-71022767D01*
X165527144Y-71002250D01*
X165516916Y-70980626D01*
X165508858Y-70958104D01*
X165503046Y-70934900D01*
X165499536Y-70911239D01*
X165498362Y-70887347D01*
X165499536Y-70863455D01*
X165503046Y-70839794D01*
X165508858Y-70816590D01*
X165516916Y-70794068D01*
X165527144Y-70772444D01*
X165539441Y-70751927D01*
X165553691Y-70732714D01*
X165569755Y-70714990D01*
X166214990Y-70069755D01*
X166232714Y-70053691D01*
X166251927Y-70039441D01*
X166272444Y-70027144D01*
X166294068Y-70016916D01*
X166316590Y-70008858D01*
X166339794Y-70003046D01*
X166363455Y-69999536D01*
X166387347Y-69998362D01*
X166411239Y-69999536D01*
X166411239Y-69999536D01*
G37*
D11*
X166237087Y-70737087D03*
D10*
G36*
X167737065Y-71325362D02*
G01*
X167760726Y-71328872D01*
X167783930Y-71334684D01*
X167806452Y-71342742D01*
X167828076Y-71352970D01*
X167848593Y-71365267D01*
X167867806Y-71379517D01*
X167885530Y-71395581D01*
X168230245Y-71740296D01*
X168246309Y-71758020D01*
X168260559Y-71777233D01*
X168272856Y-71797750D01*
X168283084Y-71819374D01*
X168291142Y-71841896D01*
X168296954Y-71865100D01*
X168300464Y-71888761D01*
X168301638Y-71912653D01*
X168300464Y-71936545D01*
X168296954Y-71960206D01*
X168291142Y-71983410D01*
X168283084Y-72005932D01*
X168272856Y-72027556D01*
X168260559Y-72048073D01*
X168246309Y-72067286D01*
X168230245Y-72085010D01*
X167585010Y-72730245D01*
X167567286Y-72746309D01*
X167548073Y-72760559D01*
X167527556Y-72772856D01*
X167505932Y-72783084D01*
X167483410Y-72791142D01*
X167460206Y-72796954D01*
X167436545Y-72800464D01*
X167412653Y-72801638D01*
X167388761Y-72800464D01*
X167365100Y-72796954D01*
X167341896Y-72791142D01*
X167319374Y-72783084D01*
X167297750Y-72772856D01*
X167277233Y-72760559D01*
X167258020Y-72746309D01*
X167240296Y-72730245D01*
X166895581Y-72385530D01*
X166879517Y-72367806D01*
X166865267Y-72348593D01*
X166852970Y-72328076D01*
X166842742Y-72306452D01*
X166834684Y-72283930D01*
X166828872Y-72260726D01*
X166825362Y-72237065D01*
X166824188Y-72213173D01*
X166825362Y-72189281D01*
X166828872Y-72165620D01*
X166834684Y-72142416D01*
X166842742Y-72119894D01*
X166852970Y-72098270D01*
X166865267Y-72077753D01*
X166879517Y-72058540D01*
X166895581Y-72040816D01*
X167540816Y-71395581D01*
X167558540Y-71379517D01*
X167577753Y-71365267D01*
X167598270Y-71352970D01*
X167619894Y-71342742D01*
X167642416Y-71334684D01*
X167665620Y-71328872D01*
X167689281Y-71325362D01*
X167713173Y-71324188D01*
X167737065Y-71325362D01*
X167737065Y-71325362D01*
G37*
D11*
X167562913Y-72062913D03*
D10*
G36*
X160411239Y-88674536D02*
G01*
X160434900Y-88678046D01*
X160458104Y-88683858D01*
X160480626Y-88691916D01*
X160502250Y-88702144D01*
X160522767Y-88714441D01*
X160541980Y-88728691D01*
X160559704Y-88744755D01*
X160904419Y-89089470D01*
X160920483Y-89107194D01*
X160934733Y-89126407D01*
X160947030Y-89146924D01*
X160957258Y-89168548D01*
X160965316Y-89191070D01*
X160971128Y-89214274D01*
X160974638Y-89237935D01*
X160975812Y-89261827D01*
X160974638Y-89285719D01*
X160971128Y-89309380D01*
X160965316Y-89332584D01*
X160957258Y-89355106D01*
X160947030Y-89376730D01*
X160934733Y-89397247D01*
X160920483Y-89416460D01*
X160904419Y-89434184D01*
X160259184Y-90079419D01*
X160241460Y-90095483D01*
X160222247Y-90109733D01*
X160201730Y-90122030D01*
X160180106Y-90132258D01*
X160157584Y-90140316D01*
X160134380Y-90146128D01*
X160110719Y-90149638D01*
X160086827Y-90150812D01*
X160062935Y-90149638D01*
X160039274Y-90146128D01*
X160016070Y-90140316D01*
X159993548Y-90132258D01*
X159971924Y-90122030D01*
X159951407Y-90109733D01*
X159932194Y-90095483D01*
X159914470Y-90079419D01*
X159569755Y-89734704D01*
X159553691Y-89716980D01*
X159539441Y-89697767D01*
X159527144Y-89677250D01*
X159516916Y-89655626D01*
X159508858Y-89633104D01*
X159503046Y-89609900D01*
X159499536Y-89586239D01*
X159498362Y-89562347D01*
X159499536Y-89538455D01*
X159503046Y-89514794D01*
X159508858Y-89491590D01*
X159516916Y-89469068D01*
X159527144Y-89447444D01*
X159539441Y-89426927D01*
X159553691Y-89407714D01*
X159569755Y-89389990D01*
X160214990Y-88744755D01*
X160232714Y-88728691D01*
X160251927Y-88714441D01*
X160272444Y-88702144D01*
X160294068Y-88691916D01*
X160316590Y-88683858D01*
X160339794Y-88678046D01*
X160363455Y-88674536D01*
X160387347Y-88673362D01*
X160411239Y-88674536D01*
X160411239Y-88674536D01*
G37*
D11*
X160237087Y-89412087D03*
D10*
G36*
X161737065Y-90000362D02*
G01*
X161760726Y-90003872D01*
X161783930Y-90009684D01*
X161806452Y-90017742D01*
X161828076Y-90027970D01*
X161848593Y-90040267D01*
X161867806Y-90054517D01*
X161885530Y-90070581D01*
X162230245Y-90415296D01*
X162246309Y-90433020D01*
X162260559Y-90452233D01*
X162272856Y-90472750D01*
X162283084Y-90494374D01*
X162291142Y-90516896D01*
X162296954Y-90540100D01*
X162300464Y-90563761D01*
X162301638Y-90587653D01*
X162300464Y-90611545D01*
X162296954Y-90635206D01*
X162291142Y-90658410D01*
X162283084Y-90680932D01*
X162272856Y-90702556D01*
X162260559Y-90723073D01*
X162246309Y-90742286D01*
X162230245Y-90760010D01*
X161585010Y-91405245D01*
X161567286Y-91421309D01*
X161548073Y-91435559D01*
X161527556Y-91447856D01*
X161505932Y-91458084D01*
X161483410Y-91466142D01*
X161460206Y-91471954D01*
X161436545Y-91475464D01*
X161412653Y-91476638D01*
X161388761Y-91475464D01*
X161365100Y-91471954D01*
X161341896Y-91466142D01*
X161319374Y-91458084D01*
X161297750Y-91447856D01*
X161277233Y-91435559D01*
X161258020Y-91421309D01*
X161240296Y-91405245D01*
X160895581Y-91060530D01*
X160879517Y-91042806D01*
X160865267Y-91023593D01*
X160852970Y-91003076D01*
X160842742Y-90981452D01*
X160834684Y-90958930D01*
X160828872Y-90935726D01*
X160825362Y-90912065D01*
X160824188Y-90888173D01*
X160825362Y-90864281D01*
X160828872Y-90840620D01*
X160834684Y-90817416D01*
X160842742Y-90794894D01*
X160852970Y-90773270D01*
X160865267Y-90752753D01*
X160879517Y-90733540D01*
X160895581Y-90715816D01*
X161540816Y-90070581D01*
X161558540Y-90054517D01*
X161577753Y-90040267D01*
X161598270Y-90027970D01*
X161619894Y-90017742D01*
X161642416Y-90009684D01*
X161665620Y-90003872D01*
X161689281Y-90000362D01*
X161713173Y-89999188D01*
X161737065Y-90000362D01*
X161737065Y-90000362D01*
G37*
D11*
X161562913Y-90737913D03*
D10*
G36*
X174737065Y-78325362D02*
G01*
X174760726Y-78328872D01*
X174783930Y-78334684D01*
X174806452Y-78342742D01*
X174828076Y-78352970D01*
X174848593Y-78365267D01*
X174867806Y-78379517D01*
X174885530Y-78395581D01*
X175230245Y-78740296D01*
X175246309Y-78758020D01*
X175260559Y-78777233D01*
X175272856Y-78797750D01*
X175283084Y-78819374D01*
X175291142Y-78841896D01*
X175296954Y-78865100D01*
X175300464Y-78888761D01*
X175301638Y-78912653D01*
X175300464Y-78936545D01*
X175296954Y-78960206D01*
X175291142Y-78983410D01*
X175283084Y-79005932D01*
X175272856Y-79027556D01*
X175260559Y-79048073D01*
X175246309Y-79067286D01*
X175230245Y-79085010D01*
X174585010Y-79730245D01*
X174567286Y-79746309D01*
X174548073Y-79760559D01*
X174527556Y-79772856D01*
X174505932Y-79783084D01*
X174483410Y-79791142D01*
X174460206Y-79796954D01*
X174436545Y-79800464D01*
X174412653Y-79801638D01*
X174388761Y-79800464D01*
X174365100Y-79796954D01*
X174341896Y-79791142D01*
X174319374Y-79783084D01*
X174297750Y-79772856D01*
X174277233Y-79760559D01*
X174258020Y-79746309D01*
X174240296Y-79730245D01*
X173895581Y-79385530D01*
X173879517Y-79367806D01*
X173865267Y-79348593D01*
X173852970Y-79328076D01*
X173842742Y-79306452D01*
X173834684Y-79283930D01*
X173828872Y-79260726D01*
X173825362Y-79237065D01*
X173824188Y-79213173D01*
X173825362Y-79189281D01*
X173828872Y-79165620D01*
X173834684Y-79142416D01*
X173842742Y-79119894D01*
X173852970Y-79098270D01*
X173865267Y-79077753D01*
X173879517Y-79058540D01*
X173895581Y-79040816D01*
X174540816Y-78395581D01*
X174558540Y-78379517D01*
X174577753Y-78365267D01*
X174598270Y-78352970D01*
X174619894Y-78342742D01*
X174642416Y-78334684D01*
X174665620Y-78328872D01*
X174689281Y-78325362D01*
X174713173Y-78324188D01*
X174737065Y-78325362D01*
X174737065Y-78325362D01*
G37*
D11*
X174562913Y-79062913D03*
D10*
G36*
X173411239Y-76999536D02*
G01*
X173434900Y-77003046D01*
X173458104Y-77008858D01*
X173480626Y-77016916D01*
X173502250Y-77027144D01*
X173522767Y-77039441D01*
X173541980Y-77053691D01*
X173559704Y-77069755D01*
X173904419Y-77414470D01*
X173920483Y-77432194D01*
X173934733Y-77451407D01*
X173947030Y-77471924D01*
X173957258Y-77493548D01*
X173965316Y-77516070D01*
X173971128Y-77539274D01*
X173974638Y-77562935D01*
X173975812Y-77586827D01*
X173974638Y-77610719D01*
X173971128Y-77634380D01*
X173965316Y-77657584D01*
X173957258Y-77680106D01*
X173947030Y-77701730D01*
X173934733Y-77722247D01*
X173920483Y-77741460D01*
X173904419Y-77759184D01*
X173259184Y-78404419D01*
X173241460Y-78420483D01*
X173222247Y-78434733D01*
X173201730Y-78447030D01*
X173180106Y-78457258D01*
X173157584Y-78465316D01*
X173134380Y-78471128D01*
X173110719Y-78474638D01*
X173086827Y-78475812D01*
X173062935Y-78474638D01*
X173039274Y-78471128D01*
X173016070Y-78465316D01*
X172993548Y-78457258D01*
X172971924Y-78447030D01*
X172951407Y-78434733D01*
X172932194Y-78420483D01*
X172914470Y-78404419D01*
X172569755Y-78059704D01*
X172553691Y-78041980D01*
X172539441Y-78022767D01*
X172527144Y-78002250D01*
X172516916Y-77980626D01*
X172508858Y-77958104D01*
X172503046Y-77934900D01*
X172499536Y-77911239D01*
X172498362Y-77887347D01*
X172499536Y-77863455D01*
X172503046Y-77839794D01*
X172508858Y-77816590D01*
X172516916Y-77794068D01*
X172527144Y-77772444D01*
X172539441Y-77751927D01*
X172553691Y-77732714D01*
X172569755Y-77714990D01*
X173214990Y-77069755D01*
X173232714Y-77053691D01*
X173251927Y-77039441D01*
X173272444Y-77027144D01*
X173294068Y-77016916D01*
X173316590Y-77008858D01*
X173339794Y-77003046D01*
X173363455Y-76999536D01*
X173387347Y-76998362D01*
X173411239Y-76999536D01*
X173411239Y-76999536D01*
G37*
D11*
X173237087Y-77737087D03*
M02*
