M48
; DRILL file {KiCad (5.1.4)-1} date 11/14/2020 1:14:43 PM
; FORMAT={-:-/ absolute / inch / decimal}
; #@! TF.CreationDate,2020-11-14T13:14:43-08:00
; #@! TF.GenerationSoftware,Kicad,Pcbnew,(5.1.4)-1
; #@! TF.FileFunction,NonPlated,1,2,NPTH
FMAT,2
INCH
T1C0.0256
T2C0.0689
T3C0.1200
T4C0.1570
%
G90
G05
T1
X8.9331Y-0.8445
X9.1606Y-0.8445
T2
X9.6437Y-2.5312
X10.0437Y-2.5312
X5.8937Y-2.5312
X6.2938Y-2.5312
X5.1437Y-2.5312
X5.5438Y-2.5312
X9.2687Y-2.5312
X9.6687Y-2.5312
X8.1437Y-2.5312
X8.5437Y-2.5312
X8.05Y-3.2812
X8.45Y-3.2812
X0.925Y-1.7812
X1.325Y-1.7812
X8.8937Y-2.5312
X9.2937Y-2.5312
X1.1125Y-2.5312
X1.5125Y-2.5312
X9.3625Y-1.0312
X9.7625Y-1.0312
X0.925Y-3.2812
X1.325Y-3.2812
X6.6437Y-2.5312
X7.0438Y-2.5312
X3.2687Y-1.7812
X3.6687Y-1.7812
X9.4562Y-1.7812
X9.8562Y-1.7812
X9.6437Y-3.2812
X10.0437Y-3.2812
X8.8937Y-3.2812
X9.2937Y-3.2812
X2.5187Y-3.2812
X2.9187Y-3.2812
X1.7688Y-3.2812
X2.1687Y-3.2812
X7.3937Y-2.5312
X7.7938Y-2.5312
X5.2375Y-3.2812
X5.6375Y-3.2812
X4.3937Y-2.5312
X4.7938Y-2.5312
X1.7688Y-1.7812
X2.1687Y-1.7812
X6.0812Y-1.0312
X6.4813Y-1.0312
X5.3312Y-1.0312
X5.7313Y-1.0312
X3.0812Y-1.0312
X3.4812Y-1.0312
X2.3312Y-1.0312
X2.7312Y-1.0312
X1.5813Y-1.0312
X1.9812Y-1.0312
X2.5187Y-1.7812
X2.9187Y-1.7812
X8.3312Y-1.0312
X8.7312Y-1.0312
X0.8312Y-1.0312
X1.2312Y-1.0312
X7.7687Y-1.7812
X8.1687Y-1.7812
X2.8937Y-2.5312
X3.2937Y-2.5312
X6.8312Y-1.0312
X7.2313Y-1.0312
X4.5812Y-1.0312
X4.9813Y-1.0312
X8.5187Y-1.7812
X8.9187Y-1.7812
X4.7687Y-1.7812
X5.1688Y-1.7812
X4.0187Y-1.7812
X4.4188Y-1.7812
X7.5812Y-1.0312
X7.9813Y-1.0312
X3.8312Y-1.0312
X4.2313Y-1.0312
X3.6437Y-2.5312
X4.0438Y-2.5312
X2.1437Y-2.5312
X2.5437Y-2.5312
X7.0187Y-1.7812
X7.4188Y-1.7812
X6.2687Y-1.7812
X6.6688Y-1.7812
X5.5187Y-1.7812
X5.9188Y-1.7812
T3
X8.9987Y-2.2563
X9.9388Y-2.2563
X3.469Y-3.5562
X7.406Y-3.5562
T4
X9.8438Y-2.5312
X6.0938Y-2.5312
X5.3438Y-2.5312
X8.9987Y-2.8562
X9.4688Y-2.5312
X9.9388Y-2.8562
X8.3438Y-2.5312
X8.25Y-3.2812
X1.125Y-1.7812
X9.0938Y-2.5312
X1.3125Y-2.5312
X9.5625Y-1.0312
X1.125Y-3.2812
X6.8438Y-2.5312
X3.4688Y-1.7812
X9.6562Y-1.7812
X9.8438Y-3.2812
X9.0938Y-3.2812
X2.7188Y-3.2812
X1.9688Y-3.2812
X7.5938Y-2.5312
X3.469Y-2.9562
X5.4375Y-3.2812
X7.406Y-2.9562
X4.5938Y-2.5312
X1.9688Y-1.7812
X6.2812Y-1.0312
X5.5312Y-1.0312
X3.2812Y-1.0312
X2.5312Y-1.0312
X1.7812Y-1.0312
X2.7188Y-1.7812
X8.5312Y-1.0312
X1.0312Y-1.0312
X7.9688Y-1.7812
X3.0938Y-2.5312
X7.0312Y-1.0312
X4.7812Y-1.0312
X8.7188Y-1.7812
X4.9688Y-1.7812
X4.2188Y-1.7812
X7.7812Y-1.0312
X4.0312Y-1.0312
X3.8438Y-2.5312
X2.3438Y-2.5312
X7.2188Y-1.7812
X6.4688Y-1.7812
X5.7188Y-1.7812
T0
M30
