G04 #@! TF.GenerationSoftware,KiCad,Pcbnew,(5.1.4)-1*
G04 #@! TF.CreationDate,2020-11-14T13:14:41-08:00*
G04 #@! TF.ProjectId,vanish,76616e69-7368-42e6-9b69-6361645f7063,rev?*
G04 #@! TF.SameCoordinates,Original*
G04 #@! TF.FileFunction,Legend,Bot*
G04 #@! TF.FilePolarity,Positive*
%FSLAX46Y46*%
G04 Gerber Fmt 4.6, Leading zero omitted, Abs format (unit mm)*
G04 Created by KiCad (PCBNEW (5.1.4)-1) date 2020-11-14 13:14:41*
%MOMM*%
%LPD*%
G04 APERTURE LIST*
%ADD10C,1.500000*%
%ADD11C,0.120000*%
%ADD12C,0.150000*%
G04 APERTURE END LIST*
D10*
X183092113Y-57386955D02*
G75*
G03X183116005Y-56457742I-2649330J533032D01*
G01*
X183116005Y-56457742D02*
G75*
G03X182819863Y-55772375I-1432481J-212301D01*
G01*
X194631501Y-62446052D02*
X194460502Y-69139966D01*
X182819863Y-55772376D02*
G75*
G03X182132722Y-55098827I-2985358J-2358324D01*
G01*
X179056842Y-56576667D02*
G75*
G03X179979762Y-59648106I21488014J4782435D01*
G01*
X182448504Y-63767736D02*
G75*
G03X186640207Y-67685231I20816053J18071787D01*
G01*
X186640206Y-67685231D02*
G75*
G03X191035036Y-70322496I14489968J19166106D01*
G01*
X194681431Y-55814639D02*
X194631501Y-62446052D01*
X194681430Y-55814639D02*
G75*
G03X194141810Y-54515738I-1842388J-3867D01*
G01*
X163257483Y-53377569D02*
G75*
G03X161111218Y-53456283I-735247J-9252344D01*
G01*
X182132722Y-55098827D02*
G75*
G03X180337531Y-54241044I-2982702J-3934875D01*
G01*
X193873511Y-70152046D02*
G75*
G03X194460502Y-69139966I-651476J1054109D01*
G01*
X165807261Y-53821300D02*
G75*
G03X163257484Y-53377570I-3653578J-13446637D01*
G01*
X179261207Y-54751633D02*
G75*
G03X179056842Y-56576667I2557497J-1210344D01*
G01*
X168823569Y-54808460D02*
G75*
G03X165807260Y-53821300I-11180665J-29061166D01*
G01*
X180337530Y-54241044D02*
G75*
G03X179261206Y-54751635I-226198J-912914D01*
G01*
X182709653Y-58991659D02*
G75*
G03X182323709Y-60737636I16627975J-4591218D01*
G01*
X191035037Y-70322497D02*
G75*
G03X193873511Y-70152047I1260831J2723132D01*
G01*
X179979763Y-59648106D02*
G75*
G03X182448505Y-63767736I12879755J4918834D01*
G01*
X183092113Y-57386954D02*
X182709653Y-58991659D01*
X160166611Y-56130503D02*
G75*
G03X163051640Y-55970209I-15990J26330867D01*
G01*
X171632722Y-58389177D02*
G75*
G03X169284626Y-56741718I-5896592J-5907238D01*
G01*
X168789339Y-67204502D02*
G75*
G03X171413326Y-68188205I4577534J8218845D01*
G01*
X171413325Y-68188205D02*
G75*
G03X174204310Y-68352103I1935809J9118999D01*
G01*
X173645861Y-60946382D02*
G75*
G03X171632722Y-58389176I-11665462J-7112524D01*
G01*
X160706437Y-68547650D02*
G75*
G03X160891811Y-68382515I19134J165135D01*
G01*
X163850339Y-62585387D02*
G75*
G03X166286000Y-65347304I18513353J13871503D01*
G01*
X159710211Y-64910625D02*
X158976388Y-63060466D01*
X157477519Y-57930030D02*
G75*
G03X157383173Y-58270873I253703J-253704D01*
G01*
X174984210Y-67643019D02*
G75*
G03X175096887Y-65626617I-7590584J1435515D01*
G01*
X160822990Y-67971111D02*
X160329155Y-66568295D01*
X166466250Y-55958060D02*
G75*
G03X163051640Y-55970209I-1650669J-15924906D01*
G01*
X160096462Y-58789774D02*
G75*
G03X158390863Y-57772791I-6290656J-8611430D01*
G01*
X174204310Y-68352105D02*
G75*
G03X174984209Y-67643019I-80311J871767D01*
G01*
X166286000Y-65347304D02*
G75*
G03X168789338Y-67204502I8347823J8636389D01*
G01*
X160891811Y-68382515D02*
G75*
G03X160822990Y-67971111I-1264080J-1D01*
G01*
X169284626Y-56741719D02*
G75*
G03X166466250Y-55958061I-3720664J-7921250D01*
G01*
X174631857Y-63145829D02*
G75*
G03X173645862Y-60946382I-9168137J-2789275D01*
G01*
X160329155Y-66568295D02*
X159710211Y-64910625D01*
X175096887Y-65626617D02*
G75*
G03X174631857Y-63145829I-11459515J-864136D01*
G01*
X163850339Y-62585388D02*
G75*
G03X162039979Y-60473114I-16994389J-12733389D01*
G01*
X158390864Y-57772792D02*
G75*
G03X157477519Y-57930030I-345355J-725229D01*
G01*
X158976388Y-63060466D02*
X158272408Y-61223688D01*
X158272408Y-61223688D02*
X157745983Y-59608924D01*
X161111219Y-53456283D02*
G75*
G03X159321498Y-54053367I850704J-5530765D01*
G01*
X158717063Y-68092952D02*
G75*
G03X159855418Y-68404931I3653417J11097850D01*
G01*
X158313967Y-54979114D02*
G75*
G03X158514122Y-55731290I439887J-285664D01*
G01*
X162039978Y-60473114D02*
G75*
G03X160096462Y-58789774I-11103713J-10856277D01*
G01*
X158514122Y-55731292D02*
G75*
G03X160166611Y-56130503I1650298J3211464D01*
G01*
X157745983Y-59608924D02*
X157383173Y-58270873D01*
X159321499Y-54053367D02*
G75*
G03X158313967Y-54979115I1296057J-2421701D01*
G01*
X159855417Y-68404932D02*
G75*
G03X160706437Y-68547650I1828924J8297107D01*
G01*
X145222220Y-54818910D02*
G75*
G03X145142189Y-54903421I4464J-84377D01*
G01*
X151485326Y-60679838D02*
X152989994Y-64028976D01*
X145222220Y-54818910D02*
X145728442Y-54805527D01*
X136948137Y-56168990D02*
G75*
G03X134027354Y-54951229I-5999873J-10279010D01*
G01*
X154009155Y-65606726D02*
G75*
G03X155250366Y-66617462I3342840J2837609D01*
G01*
X150127298Y-57640235D02*
X151485326Y-60679838D01*
X148285957Y-55287404D02*
G75*
G03X147138474Y-54903421I-1498906J-2572744D01*
G01*
X149199032Y-56098974D02*
G75*
G03X148285957Y-55287404I-2467882J-1857124D01*
G01*
X146065513Y-57551946D02*
X145582072Y-56227666D01*
X133231602Y-61191484D02*
X132398569Y-59046888D01*
X150127298Y-57640235D02*
G75*
G03X149199033Y-56098974I-7918136J-3718740D01*
G01*
X146372873Y-54829473D02*
X147138474Y-54903421D01*
X145657766Y-61804019D02*
X147438915Y-62932815D01*
X145582072Y-56227666D02*
X145172461Y-55078628D01*
X147726249Y-63015738D02*
G75*
G03X147836387Y-62876537I0J113172D01*
G01*
X141259573Y-58890737D02*
X143610834Y-60471809D01*
X145728442Y-54805527D02*
X146372873Y-54829473D01*
X147183832Y-60588488D02*
X146639132Y-59078237D01*
X131641811Y-56314892D02*
G75*
G03X131781397Y-57222102I3017921J3D01*
G01*
X146639132Y-59078237D02*
X146065513Y-57551946D01*
X143610834Y-60471809D02*
X145657766Y-61804019D01*
X132398569Y-59046888D02*
X131781397Y-57222102D01*
X147836387Y-62876537D02*
X147575806Y-61859097D01*
X136948138Y-56168990D02*
X141259573Y-58890737D01*
X145142188Y-54903420D02*
G75*
G03X145172461Y-55078628I527017J840D01*
G01*
X157363662Y-67604810D02*
X158717063Y-68092952D01*
X155250364Y-66617463D02*
G75*
G03X157363662Y-67604810I8909443J16314282D01*
G01*
X147438915Y-62932815D02*
G75*
G03X147726250Y-63015737I287334J456359D01*
G01*
X132374056Y-55123128D02*
G75*
G03X131641810Y-56314892I603702J-1191764D01*
G01*
X134027355Y-54951230D02*
G75*
G03X132374056Y-55123129I-601912J-2247437D01*
G01*
X152989994Y-64028976D02*
G75*
G03X154009154Y-65606726I6529422J3099688D01*
G01*
X147575806Y-61859097D02*
X147183832Y-60588488D01*
X124727807Y-66417557D02*
G75*
G03X124522347Y-64965417I-3386167J261503D01*
G01*
X126013771Y-68902674D02*
X123504484Y-68162049D01*
X120932618Y-53488539D02*
G75*
G03X120544560Y-54066440I164654J-529805D01*
G01*
X124522347Y-64965417D02*
X122618752Y-60015737D01*
X122100365Y-66728198D02*
G75*
G03X124104531Y-66979019I2286612J10138513D01*
G01*
X119325526Y-66166089D02*
X122100367Y-66728198D01*
X124104533Y-66979020D02*
G75*
G03X124727807Y-66417557I16537J608319D01*
G01*
X127459085Y-69169803D02*
G75*
G03X128365340Y-69094915I245541J2549546D01*
G01*
X129257144Y-65643566D02*
G75*
G03X130487129Y-66710415I3417727J2697885D01*
G01*
X128178042Y-63896210D02*
G75*
G03X129257144Y-65643566I8103291J3797406D01*
G01*
X134218009Y-63439892D02*
X133231602Y-61191484D01*
X135169497Y-65575844D02*
X134218009Y-63439892D01*
X135886550Y-67365851D02*
X135169497Y-65575844D01*
X124985851Y-56806287D02*
X126435196Y-60015737D01*
X119325526Y-66166089D02*
G75*
G03X119172157Y-66455789I-30448J-169328D01*
G01*
X123922245Y-54923554D02*
G75*
G03X122993459Y-53846967I-4724790J-3137207D01*
G01*
X120544560Y-54066440D02*
G75*
G03X120872876Y-55503890I5348804J465458D01*
G01*
X130487130Y-66710415D02*
G75*
G03X132471370Y-67662449I7000317J12046336D01*
G01*
X119172157Y-66455789D02*
G75*
G03X120114243Y-67049931I1721693J1685991D01*
G01*
X126013772Y-68902674D02*
G75*
G03X127459085Y-69169803I2258449J8175905D01*
G01*
X136404517Y-68815211D02*
X135886550Y-67365851D01*
X136280509Y-68974949D02*
G75*
G03X136404517Y-68815211I9574J120571D01*
G01*
X124985851Y-56806288D02*
G75*
G03X123922245Y-54923556I-13599211J-6440762D01*
G01*
X122993459Y-53846967D02*
G75*
G03X122043138Y-53401074I-1209971J-1343139D01*
G01*
X122618752Y-60015737D02*
X120872876Y-55503890D01*
X135942969Y-68907051D02*
G75*
G03X136280509Y-68974949I452050J1374307D01*
G01*
X134949674Y-68572578D02*
X135942970Y-68907051D01*
X126435196Y-60015737D02*
X128178042Y-63896210D01*
X123504484Y-68162049D02*
X120114243Y-67049931D01*
X133771112Y-68152551D02*
X134949674Y-68572578D01*
X132471370Y-67662449D02*
X133771112Y-68152551D01*
X122043138Y-53401075D02*
G75*
G03X120932617Y-53488538I-362169J-2495405D01*
G01*
X76375553Y-67480593D02*
X77641811Y-67890737D01*
X84983845Y-58235181D02*
X86971160Y-59410607D01*
X83065149Y-57145652D02*
X84983845Y-58235181D01*
X80014566Y-68607826D02*
X80931997Y-68805005D01*
X80931996Y-68805005D02*
G75*
G03X81177936Y-68729612I51945J269389D01*
G01*
X79185944Y-63367868D02*
X77049554Y-58183125D01*
X74034662Y-67122882D02*
G75*
G03X74143534Y-67709914I256113J-256113D01*
G01*
X81553588Y-56341659D02*
G75*
G03X78346925Y-55135070I-7054585J-13884100D01*
G01*
X77013558Y-55860126D02*
G75*
G03X77049554Y-58183125I3296118J-1110703D01*
G01*
X81236995Y-68470983D02*
X80717422Y-67029966D01*
X78903051Y-68306136D02*
X80014566Y-68607826D01*
X74326787Y-67026860D02*
G75*
G03X74034664Y-67122884I-51030J-337118D01*
G01*
X85008667Y-70394197D02*
G75*
G03X85747965Y-69707925I-55183J800794D01*
G01*
X76866289Y-68819539D02*
G75*
G03X79980211Y-69816164I12482550J33638312D01*
G01*
X81177936Y-68729612D02*
G75*
G03X81236995Y-68470983I-176321J176322D01*
G01*
X77641811Y-67890737D02*
X78903051Y-68306136D01*
X74326787Y-67026860D02*
X75248193Y-67194512D01*
X76866289Y-68819538D02*
X74143534Y-67709914D01*
X82704310Y-70340031D02*
G75*
G03X85008666Y-70394197I1444759J12420087D01*
G01*
X81553588Y-56341660D02*
X83065149Y-57145652D01*
X78346925Y-55135071D02*
G75*
G03X77013557Y-55860125I-275755J-1081441D01*
G01*
X80043576Y-65329200D02*
X79185944Y-63367868D01*
X85747964Y-69707925D02*
G75*
G03X85577551Y-68153096I-3100525J446927D01*
G01*
X80717422Y-67029966D02*
X80043576Y-65329200D01*
X75248193Y-67194512D02*
X76375553Y-67480593D01*
X79980211Y-69816163D02*
G75*
G03X82704310Y-70340031I4886343J18064308D01*
G01*
X97607985Y-70134517D02*
G75*
G03X98277227Y-70419098I1223930J1949076D01*
G01*
X87006377Y-39771261D02*
X90903991Y-48213253D01*
X80665879Y-25904896D02*
X83562756Y-32261648D01*
X98277227Y-70419097D02*
G75*
G03X99067351Y-70515737I790123J3181685D01*
G01*
X99766686Y-70489383D02*
X99067351Y-70515737D01*
X90903991Y-48213253D02*
X94733321Y-56510429D01*
X94733321Y-56510429D02*
X97957888Y-63556057D01*
X82273593Y-59595607D02*
X82904659Y-61356804D01*
X83562756Y-32261648D02*
X87006377Y-39771261D01*
X99766685Y-70489384D02*
G75*
G03X100355874Y-70408523I-366753J4859345D01*
G01*
X95442024Y-67120598D02*
X89383314Y-62414401D01*
X100355876Y-70408523D02*
G75*
G03X100789426Y-70293029I-700072J3499476D01*
G01*
X100891809Y-70150753D02*
G75*
G03X100830827Y-69869383I-679600J1D01*
G01*
X82904659Y-61356804D02*
X83706026Y-63390737D01*
X83706026Y-63390737D02*
X85577551Y-68153096D01*
X97957888Y-63556057D02*
X100830827Y-69869383D01*
X81781810Y-58096022D02*
X82273593Y-59595607D01*
X96788758Y-69084884D02*
G75*
G03X95442024Y-67120598I-3921032J-1244488D01*
G01*
X81837647Y-57843484D02*
G75*
G03X81781810Y-58096022I189321J-174301D01*
G01*
X83012584Y-57724310D02*
G75*
G03X81837646Y-57843483I-520292J-721885D01*
G01*
X89383314Y-62414401D02*
X83012584Y-57724310D01*
X100789426Y-70293030D02*
G75*
G03X100891810Y-70150753I-47663J142276D01*
G01*
X79938001Y-24203237D02*
X80665879Y-25904896D01*
X96788757Y-69084884D02*
G75*
G03X97102738Y-69679243I1802491J572088D01*
G01*
X97102739Y-69679243D02*
G75*
G03X97607986Y-70134517I1557619J1220601D01*
G01*
X152215249Y-69060983D02*
X145070155Y-63873045D01*
X128365340Y-69094915D02*
G75*
G03X128950336Y-68686525I-269425J1009119D01*
G01*
X129498372Y-68276675D02*
G75*
G03X128950336Y-68686525I353001J-1043352D01*
G01*
X152641810Y-69900873D02*
G75*
G03X152755000Y-70136360I301556J0D01*
G01*
X137839000Y-58681267D02*
G75*
G03X137171003Y-58736545I-301373J-421902D01*
G01*
X130286949Y-68183702D02*
G75*
G03X129498373Y-68276675I-174989J-1906535D01*
G01*
X138043939Y-61520717D02*
X138743486Y-63094235D01*
X140705598Y-67919028D02*
G75*
G03X138743486Y-63094235I-49747639J-17419643D01*
G01*
X140334205Y-69912844D02*
G75*
G03X140705598Y-67919028I-1551491J1320498D01*
G01*
X145070155Y-63873045D02*
X137839000Y-58681268D01*
X152641810Y-69900873D02*
G75*
G03X152215249Y-69060983I-1040142J1D01*
G01*
X137504554Y-60144981D02*
X138043939Y-61520717D01*
X153097282Y-70335121D02*
G75*
G03X153598572Y-70470792I847258J2136585D01*
G01*
X137171004Y-58736544D02*
G75*
G03X137109223Y-58994825I179453J-179455D01*
G01*
X133619099Y-69115039D02*
G75*
G03X138456724Y-70529521I15619916J44441434D01*
G01*
X137109223Y-58994825D02*
X137504554Y-60144981D01*
X152755000Y-70136360D02*
G75*
G03X153097282Y-70335121I835099J1044006D01*
G01*
X131515095Y-68424736D02*
G75*
G03X130286948Y-68183702I-1788397J-5863043D01*
G01*
X133619099Y-69115040D02*
X131515095Y-68424737D01*
X138456724Y-70529522D02*
G75*
G03X140334205Y-69912844I433901J1845329D01*
G01*
X179910295Y-64831161D02*
G75*
G03X177632834Y-60973315I-13000776J-5073778D01*
G01*
X162366392Y-70392323D02*
G75*
G03X163414435Y-70499266I1091078J5503687D01*
G01*
X155320566Y-70205770D02*
G75*
G03X155433205Y-69770663I-495129J360310D01*
G01*
X177632835Y-60973314D02*
G75*
G03X173721985Y-57397292I-15060641J-12544262D01*
G01*
X155433205Y-69770664D02*
G75*
G03X155272005Y-69032105I-4064097J-500173D01*
G01*
X155849621Y-68042137D02*
G75*
G03X155271094Y-67922905I-570048J-1302790D01*
G01*
X159429202Y-69578527D02*
X158033965Y-69015633D01*
X160948027Y-70056654D02*
X159429202Y-69578527D01*
X175208560Y-70252426D02*
G75*
G03X178419609Y-69858050I568077J8644189D01*
G01*
X162366391Y-70392323D02*
X160948027Y-70056654D01*
X105585525Y-53957176D02*
G75*
G03X103340171Y-52432836I-7231781J-8236544D01*
G01*
X171244055Y-69402164D02*
G75*
G03X175208560Y-70252426I4880559J13088755D01*
G01*
X163414435Y-70499265D02*
G75*
G03X164653841Y-70439481I85201J11110730D01*
G01*
X165771191Y-66224031D02*
G75*
G03X165259507Y-66162835I-316384J-475615D01*
G01*
X155069164Y-68158863D02*
G75*
G03X155272005Y-69032105I5610269J843004D01*
G01*
X165172137Y-70159077D02*
G75*
G03X165361093Y-69582124I-656999J534590D01*
G01*
X158033965Y-69015633D02*
X155849621Y-68042136D01*
X101161627Y-51852790D02*
G75*
G03X99648810Y-52337201I-109058J-2263885D01*
G01*
X180021102Y-68252220D02*
G75*
G03X179910297Y-64831161I-4895482J1553763D01*
G01*
X164653841Y-70439481D02*
G75*
G03X165172136Y-70159078I-80145J767348D01*
G01*
X154941692Y-70445554D02*
G75*
G03X155320567Y-70205771I-112952J597691D01*
G01*
X153598572Y-70470792D02*
G75*
G03X154192351Y-70515737I593785J3899862D01*
G01*
X167526033Y-67431067D02*
X165771190Y-66224030D01*
X154192351Y-70515737D02*
G75*
G03X154941692Y-70445553I-3J4035394D01*
G01*
X167526033Y-67431067D02*
G75*
G03X171244056Y-69402164I9364683J13172183D01*
G01*
X155271093Y-67922906D02*
G75*
G03X155069164Y-68158863I1225J-205431D01*
G01*
X165361092Y-69582125D02*
G75*
G03X165231829Y-68265737I-13810392J-691577D01*
G01*
X178419609Y-69858049D02*
G75*
G03X180021101Y-68252219I-753961J2353422D01*
G01*
X103340171Y-52432835D02*
G75*
G03X101161627Y-51852791I-2436222J-4768892D01*
G01*
X173721986Y-57397292D02*
G75*
G03X168823569Y-54808460I-13282827J-19204240D01*
G01*
X165023890Y-66535154D02*
X165231829Y-68265737D01*
X165259507Y-66162836D02*
G75*
G03X165023890Y-66535154I123222J-338692D01*
G01*
X104313388Y-56178531D02*
G75*
G03X104338084Y-55587355I-1138763J343675D01*
G01*
X116775354Y-62221748D02*
G75*
G03X115916702Y-61385081I-4974944J-4246733D01*
G01*
X99547310Y-54843333D02*
G75*
G03X100325235Y-55044340I860507J1724436D01*
G01*
X104046237Y-55223598D02*
G75*
G03X103321840Y-55054110I-784024J-1718142D01*
G01*
X103321840Y-55054110D02*
X101848020Y-55053531D01*
X114285939Y-60219481D02*
G75*
G03X113464870Y-60215293I-413909J-659518D01*
G01*
X117295695Y-63985116D02*
G75*
G03X117197961Y-63008186I-2735028J219734D01*
G01*
X107155861Y-68947167D02*
G75*
G03X110513226Y-70309949I5696695J9217432D01*
G01*
X112703526Y-65569774D02*
G75*
G03X112891810Y-63240739I-14310777J2329041D01*
G01*
X110513226Y-70309948D02*
G75*
G03X113547673Y-70131809I1203034J5441021D01*
G01*
X107657560Y-67855723D02*
G75*
G03X109458644Y-68265737I1801081J3750822D01*
G01*
X109458644Y-68265738D02*
G75*
G03X111022999Y-67959845I-4J4153074D01*
G01*
X104338084Y-55587355D02*
G75*
G03X104046237Y-55223599I-507058J-107866D01*
G01*
X106466204Y-64672623D02*
G75*
G03X106673517Y-66739811I4676654J-574980D01*
G01*
X104519459Y-66747578D02*
G75*
G03X107155861Y-68947167I9025286J8137830D01*
G01*
X117197961Y-63008187D02*
G75*
G03X116775355Y-62221748I-2024999J-581401D01*
G01*
X111023000Y-67959845D02*
G75*
G03X112093055Y-67096629I-897669J2207602D01*
G01*
X115916702Y-61385082D02*
G75*
G03X114285938Y-60219483I-10501205J-12968422D01*
G01*
X113547674Y-70131808D02*
G75*
G03X115831636Y-68431080I-1557397J4475443D01*
G01*
X112992932Y-60976643D02*
G75*
G03X112891810Y-63240739I25296298J-2264120D01*
G01*
X99648810Y-52337201D02*
G75*
G03X99016810Y-53640737I1028311J-1303537D01*
G01*
X117094850Y-65488524D02*
G75*
G03X117295696Y-63985116I-14167062J2657754D01*
G01*
X106673517Y-66739811D02*
G75*
G03X107657560Y-67855723I1810081J604346D01*
G01*
X99016811Y-53640737D02*
G75*
G03X99153786Y-54404802I2199512J0D01*
G01*
X115831635Y-68431080D02*
G75*
G03X117094849Y-65488524I-5946119J4295038D01*
G01*
X101848020Y-55053531D02*
X100325235Y-55044340D01*
X113464869Y-60215293D02*
G75*
G03X112992932Y-60976642I521614J-850277D01*
G01*
X103167138Y-61007592D02*
G75*
G03X103242316Y-64272639I8258916J-1443229D01*
G01*
X99153786Y-54404802D02*
G75*
G03X99547311Y-54843333I751224J278292D01*
G01*
X112093056Y-67096628D02*
G75*
G03X112703527Y-65569771I-3124503J2134713D01*
G01*
X103242316Y-64272639D02*
G75*
G03X104519459Y-66747578I5340488J1188861D01*
G01*
X104313389Y-56178531D02*
G75*
G03X103167139Y-61007592I39585895J-11946874D01*
G01*
X118016236Y-41404421D02*
G75*
G03X117197056Y-41402025I-417850J-2822488D01*
G01*
X115320793Y-43200494D02*
G75*
G03X115428848Y-44695667I2787561J-550035D01*
G01*
X105585526Y-53957175D02*
X108178508Y-56233842D01*
X77875840Y-21862735D02*
G75*
G03X76703107Y-21784130I-700024J-1656400D01*
G01*
X92960840Y-62323531D02*
G75*
G03X92652188Y-61563361I-8847372J-3149563D01*
G01*
X92211765Y-60659291D02*
X88645930Y-53219119D01*
X120269323Y-45298850D02*
G75*
G03X119733150Y-43041697I-6003099J-233741D01*
G01*
X91621554Y-62275278D02*
X92790546Y-62947080D01*
X118685224Y-41656578D02*
G75*
G03X118016236Y-41404421I-916083J-1416914D01*
G01*
X115977226Y-41997230D02*
G75*
G03X115320793Y-43200494I1585479J-1645636D01*
G01*
X79063361Y-22741332D02*
G75*
G03X77875840Y-21862734I-2411498J-2017574D01*
G01*
X88645930Y-53219119D02*
X82509354Y-39143800D01*
X92652188Y-61563361D02*
X92211765Y-60659291D01*
X93050634Y-63015737D02*
G75*
G03X93139754Y-62899802I0J92221D01*
G01*
X119597109Y-46854826D02*
G75*
G03X120269323Y-45298851I-1288038J1479652D01*
G01*
X79938000Y-24203237D02*
G75*
G03X79063361Y-22741331I-5038919J-2022125D01*
G01*
X118081519Y-47158755D02*
G75*
G03X119597109Y-46854827I491376J1480510D01*
G01*
X75803720Y-22456016D02*
G75*
G03X75737195Y-23345490I823253J-508797D01*
G01*
X117197056Y-41402025D02*
G75*
G03X115977226Y-41997230I310177J-2183268D01*
G01*
X76703107Y-21784129D02*
G75*
G03X75803720Y-22456016I402232J-1476329D01*
G01*
X119243284Y-42190930D02*
G75*
G03X118685224Y-41656578I-1670038J-1185549D01*
G01*
X116280469Y-46047253D02*
G75*
G03X118081519Y-47158754I3247923J3247918D01*
G01*
X107078569Y-61137133D02*
G75*
G03X106466204Y-64672622I35616466J-7989727D01*
G01*
X108178508Y-56233842D02*
X107078569Y-61137133D01*
X119733150Y-43041698D02*
G75*
G03X119243284Y-42190930I-4713689J-2147695D01*
G01*
X82509354Y-39143800D02*
X75737195Y-23345490D01*
X93139754Y-62899802D02*
X92960841Y-62323531D01*
X115428848Y-44695666D02*
G75*
G03X116280469Y-46047253I3403837J1200631D01*
G01*
X88718873Y-60495025D02*
X90260890Y-61461017D01*
X90260890Y-61461017D02*
X91621554Y-62275278D01*
X92790546Y-62947079D02*
G75*
G03X93050634Y-63015737I260089J458304D01*
G01*
X86971160Y-59410607D02*
X88718873Y-60495025D01*
X182323710Y-60737637D02*
G75*
G03X182387508Y-61784795I2303341J-385190D01*
G01*
X188660724Y-67409948D02*
G75*
G03X189927297Y-67743911I2780206J7975327D01*
G01*
X194141811Y-54515737D02*
G75*
G03X193163055Y-53953245I-1530717J-1530718D01*
G01*
X191801003Y-55290538D02*
G75*
G03X191635291Y-57203237I11224627J-1936003D01*
G01*
X191342810Y-62543574D02*
X191494279Y-60589770D01*
X191164402Y-64255796D02*
X191342810Y-62543574D01*
X191494279Y-60589770D02*
X191600000Y-58700000D01*
X186530041Y-66195535D02*
X187713829Y-66968661D01*
X182906707Y-62756018D02*
X184271044Y-64274073D01*
X190822933Y-66779243D02*
X191164402Y-64255796D01*
X193163055Y-53953246D02*
G75*
G03X192347832Y-54188729I-210753J-799247D01*
G01*
X190496584Y-67529734D02*
G75*
G03X190822933Y-66779243I-1243160J986786D01*
G01*
X187713830Y-66968661D02*
G75*
G03X188660724Y-67409948I2657592J4466005D01*
G01*
X185320471Y-65254610D02*
X186530041Y-66195535D01*
X182387507Y-61784794D02*
G75*
G03X182906707Y-62756018I2612506J772210D01*
G01*
X184271045Y-64274073D02*
G75*
G03X185320471Y-65254610I10412255J10091945D01*
G01*
X192347832Y-54188729D02*
G75*
G03X191801003Y-55290538I1573477J-1467519D01*
G01*
X189927297Y-67743911D02*
G75*
G03X190496584Y-67529734I106003J581918D01*
G01*
X191600000Y-58700000D02*
X191635291Y-57203237D01*
D11*
X170500000Y-81000000D02*
G75*
G03X170500000Y-81000000I-500000J0D01*
G01*
X167109888Y-90944204D02*
X166744204Y-91309888D01*
X166105796Y-89940112D02*
X165740112Y-90305796D01*
X171519204Y-86815112D02*
X171884888Y-87180796D01*
X170515112Y-87819204D02*
X170880796Y-88184888D01*
X223058578Y-18510000D02*
X222541422Y-18510000D01*
X223058578Y-17090000D02*
X222541422Y-17090000D01*
X230090000Y-34158578D02*
X230090000Y-33641422D01*
X231510000Y-34158578D02*
X231510000Y-33641422D01*
X232090000Y-34158578D02*
X232090000Y-33641422D01*
X233510000Y-34158578D02*
X233510000Y-33641422D01*
X157602944Y-85371573D02*
X157885787Y-85088730D01*
X157744365Y-85512994D02*
X158027208Y-85230152D01*
X160289950Y-88058579D02*
X160572792Y-87775736D01*
X156188730Y-86785787D02*
X157602944Y-85371573D01*
X158734315Y-85937258D02*
X159017157Y-85654416D01*
X158734315Y-85937258D02*
X158027208Y-85230152D01*
X157744365Y-85512994D02*
X156330152Y-86927208D01*
X156330152Y-86927208D02*
X157037258Y-87634315D01*
X158310051Y-88907107D02*
X158875736Y-89472792D01*
X158875736Y-89472792D02*
X160289950Y-88058579D01*
X160572792Y-87775736D02*
X160007107Y-87210051D01*
X223058578Y-22710000D02*
X222541422Y-22710000D01*
X223058578Y-21290000D02*
X222541422Y-21290000D01*
X222541422Y-19190000D02*
X223058578Y-19190000D01*
X222541422Y-20610000D02*
X223058578Y-20610000D01*
X230700000Y-27710000D02*
X228250000Y-27710000D01*
X228900000Y-24490000D02*
X230700000Y-24490000D01*
D12*
X23381625Y-59200000D02*
X23381625Y-54000000D01*
X23381625Y-54000000D02*
X18181625Y-54000000D01*
X18181625Y-54000000D02*
X18181625Y-59200000D01*
X18181625Y-59200000D02*
X23381625Y-59200000D01*
X21781625Y-56600000D02*
G75*
G03X21781625Y-56600000I-1000000J0D01*
G01*
D11*
X147050000Y-87975000D02*
X147050000Y-84075000D01*
X145050000Y-87975000D02*
X145050000Y-84075000D01*
X147050000Y-87975000D02*
X145050000Y-87975000D01*
X155784888Y-78119204D02*
X155419204Y-78484888D01*
X154780796Y-77115112D02*
X154415112Y-77480796D01*
X236641422Y-17090000D02*
X237158578Y-17090000D01*
X236641422Y-18510000D02*
X237158578Y-18510000D01*
X230402064Y-30210000D02*
X229197936Y-30210000D01*
X230402064Y-28390000D02*
X229197936Y-28390000D01*
D12*
X171218219Y-81369086D02*
X172119780Y-82270648D01*
X164306250Y-73643945D02*
X164783547Y-74121242D01*
X156987695Y-80962500D02*
X157464992Y-81439797D01*
X164306250Y-88281055D02*
X163828953Y-87803758D01*
X171624805Y-80962500D02*
X171147508Y-80485203D01*
X164306250Y-88281055D02*
X164783547Y-87803758D01*
X156987695Y-80962500D02*
X157464992Y-80485203D01*
X164306250Y-73643945D02*
X163828953Y-74121242D01*
X171624805Y-80962500D02*
X171218219Y-81369086D01*
D11*
X162284888Y-71619204D02*
X161919204Y-71984888D01*
X161280796Y-70615112D02*
X160915112Y-70980796D01*
X258968750Y-87975000D02*
X258968750Y-84075000D01*
X256968750Y-87975000D02*
X256968750Y-84075000D01*
X258968750Y-87975000D02*
X256968750Y-87975000D01*
X239918750Y-87975000D02*
X239918750Y-84075000D01*
X237918750Y-87975000D02*
X237918750Y-84075000D01*
X239918750Y-87975000D02*
X237918750Y-87975000D01*
X218487500Y-87975000D02*
X218487500Y-84075000D01*
X216487500Y-87975000D02*
X216487500Y-84075000D01*
X218487500Y-87975000D02*
X216487500Y-87975000D01*
X77993750Y-87975000D02*
X77993750Y-84075000D01*
X75993750Y-87975000D02*
X75993750Y-84075000D01*
X77993750Y-87975000D02*
X75993750Y-87975000D01*
X58943750Y-87975000D02*
X58943750Y-84075000D01*
X56943750Y-87975000D02*
X56943750Y-84075000D01*
X58943750Y-87975000D02*
X56943750Y-87975000D01*
X37512500Y-87975000D02*
X37512500Y-84075000D01*
X35512500Y-87975000D02*
X35512500Y-84075000D01*
X37512500Y-87975000D02*
X35512500Y-87975000D01*
X258968750Y-68925000D02*
X258968750Y-65025000D01*
X256968750Y-68925000D02*
X256968750Y-65025000D01*
X258968750Y-68925000D02*
X256968750Y-68925000D01*
X224043750Y-68925000D02*
X224043750Y-65025000D01*
X222043750Y-68925000D02*
X222043750Y-65025000D01*
X224043750Y-68925000D02*
X222043750Y-68925000D01*
X220868750Y-68925000D02*
X220868750Y-65025000D01*
X218868750Y-68925000D02*
X218868750Y-65025000D01*
X220868750Y-68925000D02*
X218868750Y-68925000D01*
X201818750Y-68925000D02*
X201818750Y-65025000D01*
X199818750Y-68925000D02*
X199818750Y-65025000D01*
X201818750Y-68925000D02*
X199818750Y-68925000D01*
X182768750Y-68925000D02*
X182768750Y-65025000D01*
X180768750Y-68925000D02*
X180768750Y-65025000D01*
X182768750Y-68925000D02*
X180768750Y-68925000D01*
X163718750Y-68925000D02*
X163718750Y-65025000D01*
X161718750Y-68925000D02*
X161718750Y-65025000D01*
X163718750Y-68925000D02*
X161718750Y-68925000D01*
X144668750Y-68925000D02*
X144668750Y-65025000D01*
X142668750Y-68925000D02*
X142668750Y-65025000D01*
X144668750Y-68925000D02*
X142668750Y-68925000D01*
X125618750Y-68925000D02*
X125618750Y-65025000D01*
X123618750Y-68925000D02*
X123618750Y-65025000D01*
X125618750Y-68925000D02*
X123618750Y-68925000D01*
X106568750Y-68925000D02*
X106568750Y-65025000D01*
X104568750Y-68925000D02*
X104568750Y-65025000D01*
X106568750Y-68925000D02*
X104568750Y-68925000D01*
X87518750Y-68925000D02*
X87518750Y-65025000D01*
X85518750Y-68925000D02*
X85518750Y-65025000D01*
X87518750Y-68925000D02*
X85518750Y-68925000D01*
X68468750Y-68925000D02*
X68468750Y-65025000D01*
X66468750Y-68925000D02*
X66468750Y-65025000D01*
X68468750Y-68925000D02*
X66468750Y-68925000D01*
X42275000Y-68925000D02*
X42275000Y-65025000D01*
X40275000Y-68925000D02*
X40275000Y-65025000D01*
X42275000Y-68925000D02*
X40275000Y-68925000D01*
X254206250Y-49875000D02*
X254206250Y-45975000D01*
X252206250Y-49875000D02*
X252206250Y-45975000D01*
X254206250Y-49875000D02*
X252206250Y-49875000D01*
X230393750Y-49875000D02*
X230393750Y-45975000D01*
X228393750Y-49875000D02*
X228393750Y-45975000D01*
X230393750Y-49875000D02*
X228393750Y-49875000D01*
X211343750Y-49875000D02*
X211343750Y-45975000D01*
X209343750Y-49875000D02*
X209343750Y-45975000D01*
X211343750Y-49875000D02*
X209343750Y-49875000D01*
X192293750Y-49875000D02*
X192293750Y-45975000D01*
X190293750Y-49875000D02*
X190293750Y-45975000D01*
X192293750Y-49875000D02*
X190293750Y-49875000D01*
X173243750Y-49875000D02*
X173243750Y-45975000D01*
X171243750Y-49875000D02*
X171243750Y-45975000D01*
X173243750Y-49875000D02*
X171243750Y-49875000D01*
X154193750Y-49875000D02*
X154193750Y-45975000D01*
X152193750Y-49875000D02*
X152193750Y-45975000D01*
X154193750Y-49875000D02*
X152193750Y-49875000D01*
X135143750Y-49875000D02*
X135143750Y-45975000D01*
X133143750Y-49875000D02*
X133143750Y-45975000D01*
X135143750Y-49875000D02*
X133143750Y-49875000D01*
X116093750Y-49875000D02*
X116093750Y-45975000D01*
X114093750Y-49875000D02*
X114093750Y-45975000D01*
X116093750Y-49875000D02*
X114093750Y-49875000D01*
X97043750Y-49875000D02*
X97043750Y-45975000D01*
X95043750Y-49875000D02*
X95043750Y-45975000D01*
X97043750Y-49875000D02*
X95043750Y-49875000D01*
X77993750Y-49875000D02*
X77993750Y-45975000D01*
X75993750Y-49875000D02*
X75993750Y-45975000D01*
X77993750Y-49875000D02*
X75993750Y-49875000D01*
X58943750Y-49875000D02*
X58943750Y-45975000D01*
X56943750Y-49875000D02*
X56943750Y-45975000D01*
X58943750Y-49875000D02*
X56943750Y-49875000D01*
X37512500Y-49875000D02*
X37512500Y-45975000D01*
X35512500Y-49875000D02*
X35512500Y-45975000D01*
X37512500Y-49875000D02*
X35512500Y-49875000D01*
X251825000Y-30825000D02*
X251825000Y-26925000D01*
X249825000Y-30825000D02*
X249825000Y-26925000D01*
X251825000Y-30825000D02*
X249825000Y-30825000D01*
X209756250Y-30825000D02*
X209756250Y-26925000D01*
X207756250Y-30825000D02*
X207756250Y-26925000D01*
X209756250Y-30825000D02*
X207756250Y-30825000D01*
X206581250Y-30825000D02*
X206581250Y-26925000D01*
X204581250Y-30825000D02*
X204581250Y-26925000D01*
X206581250Y-30825000D02*
X204581250Y-30825000D01*
X187531250Y-30825000D02*
X187531250Y-26925000D01*
X185531250Y-30825000D02*
X185531250Y-26925000D01*
X187531250Y-30825000D02*
X185531250Y-30825000D01*
X168481250Y-30825000D02*
X168481250Y-26925000D01*
X166481250Y-30825000D02*
X166481250Y-26925000D01*
X168481250Y-30825000D02*
X166481250Y-30825000D01*
X149431250Y-30825000D02*
X149431250Y-26925000D01*
X147431250Y-30825000D02*
X147431250Y-26925000D01*
X149431250Y-30825000D02*
X147431250Y-30825000D01*
X130381250Y-30825000D02*
X130381250Y-26925000D01*
X128381250Y-30825000D02*
X128381250Y-26925000D01*
X130381250Y-30825000D02*
X128381250Y-30825000D01*
X111331250Y-30825000D02*
X111331250Y-26925000D01*
X109331250Y-30825000D02*
X109331250Y-26925000D01*
X111331250Y-30825000D02*
X109331250Y-30825000D01*
X92281250Y-30825000D02*
X92281250Y-26925000D01*
X90281250Y-30825000D02*
X90281250Y-26925000D01*
X92281250Y-30825000D02*
X90281250Y-30825000D01*
X73231250Y-30825000D02*
X73231250Y-26925000D01*
X71231250Y-30825000D02*
X71231250Y-26925000D01*
X73231250Y-30825000D02*
X71231250Y-30825000D01*
X54181250Y-30825000D02*
X54181250Y-26925000D01*
X52181250Y-30825000D02*
X52181250Y-26925000D01*
X54181250Y-30825000D02*
X52181250Y-30825000D01*
X35131250Y-30825000D02*
X35131250Y-26925000D01*
X33131250Y-30825000D02*
X33131250Y-26925000D01*
X35131250Y-30825000D02*
X33131250Y-30825000D01*
X170010000Y-89441422D02*
X170010000Y-89958578D01*
X168590000Y-89441422D02*
X168590000Y-89958578D01*
X166580796Y-72084888D02*
X166215112Y-71719204D01*
X167584888Y-71080796D02*
X167219204Y-70715112D01*
X160580796Y-90759888D02*
X160215112Y-90394204D01*
X161584888Y-89755796D02*
X161219204Y-89390112D01*
X174219204Y-77715112D02*
X174584888Y-78080796D01*
X173215112Y-78719204D02*
X173580796Y-79084888D01*
D12*
X165696006Y-89660304D02*
X165594991Y-89087884D01*
X166100067Y-89256243D02*
X165392961Y-88549136D01*
X165123586Y-88818510D01*
X165089915Y-88919525D01*
X165089915Y-88986869D01*
X165123586Y-89087884D01*
X165224602Y-89188899D01*
X165325617Y-89222571D01*
X165392961Y-89222571D01*
X165493976Y-89188899D01*
X165763350Y-88919525D01*
X165022571Y-90333739D02*
X165426632Y-89929678D01*
X165224602Y-90131709D02*
X164517495Y-89424602D01*
X164685854Y-89458274D01*
X164820541Y-89458274D01*
X164921556Y-89424602D01*
X169898586Y-89037115D02*
X169898586Y-89104458D01*
X169965930Y-89239145D01*
X170033274Y-89306489D01*
X170167961Y-89373832D01*
X170302648Y-89373832D01*
X170403663Y-89340161D01*
X170572022Y-89239145D01*
X170673037Y-89138130D01*
X170774052Y-88969771D01*
X170807724Y-88868756D01*
X170807724Y-88734069D01*
X170740380Y-88599382D01*
X170673037Y-88532038D01*
X170538350Y-88464695D01*
X170471006Y-88464695D01*
X170302648Y-88161649D02*
X169864915Y-87723916D01*
X169831243Y-88228993D01*
X169730228Y-88127977D01*
X169629212Y-88094306D01*
X169561869Y-88094306D01*
X169460854Y-88127977D01*
X169292495Y-88296336D01*
X169258823Y-88397351D01*
X169258823Y-88464695D01*
X169292495Y-88565710D01*
X169494525Y-88767741D01*
X169595541Y-88801413D01*
X169662884Y-88801413D01*
X231528095Y-23902380D02*
X231528095Y-24711904D01*
X231480476Y-24807142D01*
X231432857Y-24854761D01*
X231337619Y-24902380D01*
X231147142Y-24902380D01*
X231051904Y-24854761D01*
X231004285Y-24807142D01*
X230956666Y-24711904D01*
X230956666Y-23902380D01*
X230528095Y-24854761D02*
X230385238Y-24902380D01*
X230147142Y-24902380D01*
X230051904Y-24854761D01*
X230004285Y-24807142D01*
X229956666Y-24711904D01*
X229956666Y-24616666D01*
X230004285Y-24521428D01*
X230051904Y-24473809D01*
X230147142Y-24426190D01*
X230337619Y-24378571D01*
X230432857Y-24330952D01*
X230480476Y-24283333D01*
X230528095Y-24188095D01*
X230528095Y-24092857D01*
X230480476Y-23997619D01*
X230432857Y-23950000D01*
X230337619Y-23902380D01*
X230099523Y-23902380D01*
X229956666Y-23950000D01*
X229194761Y-24378571D02*
X229051904Y-24426190D01*
X229004285Y-24473809D01*
X228956666Y-24569047D01*
X228956666Y-24711904D01*
X229004285Y-24807142D01*
X229051904Y-24854761D01*
X229147142Y-24902380D01*
X229528095Y-24902380D01*
X229528095Y-23902380D01*
X229194761Y-23902380D01*
X229099523Y-23950000D01*
X229051904Y-23997619D01*
X229004285Y-24092857D01*
X229004285Y-24188095D01*
X229051904Y-24283333D01*
X229099523Y-24330952D01*
X229194761Y-24378571D01*
X229528095Y-24378571D01*
X228004285Y-24902380D02*
X228575714Y-24902380D01*
X228290000Y-24902380D02*
X228290000Y-23902380D01*
X228385238Y-24045238D01*
X228480476Y-24140476D01*
X228575714Y-24188095D01*
X232902380Y-33733333D02*
X232426190Y-33400000D01*
X232902380Y-33161904D02*
X231902380Y-33161904D01*
X231902380Y-33542857D01*
X231950000Y-33638095D01*
X231997619Y-33685714D01*
X232092857Y-33733333D01*
X232235714Y-33733333D01*
X232330952Y-33685714D01*
X232378571Y-33638095D01*
X232426190Y-33542857D01*
X232426190Y-33161904D01*
X231902380Y-34066666D02*
X231902380Y-34685714D01*
X232283333Y-34352380D01*
X232283333Y-34495238D01*
X232330952Y-34590476D01*
X232378571Y-34638095D01*
X232473809Y-34685714D01*
X232711904Y-34685714D01*
X232807142Y-34638095D01*
X232854761Y-34590476D01*
X232902380Y-34495238D01*
X232902380Y-34209523D01*
X232854761Y-34114285D01*
X232807142Y-34066666D01*
X234902380Y-33733333D02*
X234426190Y-33400000D01*
X234902380Y-33161904D02*
X233902380Y-33161904D01*
X233902380Y-33542857D01*
X233950000Y-33638095D01*
X233997619Y-33685714D01*
X234092857Y-33733333D01*
X234235714Y-33733333D01*
X234330952Y-33685714D01*
X234378571Y-33638095D01*
X234426190Y-33542857D01*
X234426190Y-33161904D01*
X233997619Y-34114285D02*
X233950000Y-34161904D01*
X233902380Y-34257142D01*
X233902380Y-34495238D01*
X233950000Y-34590476D01*
X233997619Y-34638095D01*
X234092857Y-34685714D01*
X234188095Y-34685714D01*
X234330952Y-34638095D01*
X234902380Y-34066666D01*
X234902380Y-34685714D01*
X157390811Y-89085567D02*
X157054093Y-89422285D01*
X157996902Y-88950880D02*
X157390811Y-89085567D01*
X157525498Y-88479476D01*
X156212300Y-88580491D02*
X156616361Y-88984552D01*
X156414330Y-88782521D02*
X157121437Y-88075415D01*
X157087765Y-88243773D01*
X157087765Y-88378460D01*
X157121437Y-88479476D01*
X222966666Y-20802380D02*
X223300000Y-20326190D01*
X223538095Y-20802380D02*
X223538095Y-19802380D01*
X223157142Y-19802380D01*
X223061904Y-19850000D01*
X223014285Y-19897619D01*
X222966666Y-19992857D01*
X222966666Y-20135714D01*
X223014285Y-20230952D01*
X223061904Y-20278571D01*
X223157142Y-20326190D01*
X223538095Y-20326190D01*
X222633333Y-19802380D02*
X221966666Y-19802380D01*
X222395238Y-20802380D01*
X222966666Y-21907142D02*
X223014285Y-21954761D01*
X223157142Y-22002380D01*
X223252380Y-22002380D01*
X223395238Y-21954761D01*
X223490476Y-21859523D01*
X223538095Y-21764285D01*
X223585714Y-21573809D01*
X223585714Y-21430952D01*
X223538095Y-21240476D01*
X223490476Y-21145238D01*
X223395238Y-21050000D01*
X223252380Y-21002380D01*
X223157142Y-21002380D01*
X223014285Y-21050000D01*
X222966666Y-21097619D01*
X222014285Y-22002380D02*
X222585714Y-22002380D01*
X222300000Y-22002380D02*
X222300000Y-21002380D01*
X222395238Y-21145238D01*
X222490476Y-21240476D01*
X222585714Y-21288095D01*
X230561904Y-28452380D02*
X230561904Y-29261904D01*
X230514285Y-29357142D01*
X230466666Y-29404761D01*
X230371428Y-29452380D01*
X230180952Y-29452380D01*
X230085714Y-29404761D01*
X230038095Y-29357142D01*
X229990476Y-29261904D01*
X229990476Y-28452380D01*
X229561904Y-28547619D02*
X229514285Y-28500000D01*
X229419047Y-28452380D01*
X229180952Y-28452380D01*
X229085714Y-28500000D01*
X229038095Y-28547619D01*
X228990476Y-28642857D01*
X228990476Y-28738095D01*
X229038095Y-28880952D01*
X229609523Y-29452380D01*
X228990476Y-29452380D01*
X16312863Y-57933333D02*
X16265244Y-57790476D01*
X16265244Y-57552380D01*
X16312863Y-57457142D01*
X16360482Y-57409523D01*
X16455720Y-57361904D01*
X16550958Y-57361904D01*
X16646196Y-57409523D01*
X16693815Y-57457142D01*
X16741434Y-57552380D01*
X16789053Y-57742857D01*
X16836672Y-57838095D01*
X16884291Y-57885714D01*
X16979529Y-57933333D01*
X17074767Y-57933333D01*
X17170005Y-57885714D01*
X17217625Y-57838095D01*
X17265244Y-57742857D01*
X17265244Y-57504761D01*
X17217625Y-57361904D01*
X17265244Y-57028571D02*
X16265244Y-56790476D01*
X16979529Y-56600000D01*
X16265244Y-56409523D01*
X17265244Y-56171428D01*
X16265244Y-55266666D02*
X16265244Y-55838095D01*
X16265244Y-55552380D02*
X17265244Y-55552380D01*
X17122386Y-55647619D01*
X17027148Y-55742857D01*
X16979529Y-55838095D01*
X148502380Y-84510714D02*
X147502380Y-84510714D01*
X147502380Y-84748809D01*
X147550000Y-84891666D01*
X147645238Y-84986904D01*
X147740476Y-85034523D01*
X147930952Y-85082142D01*
X148073809Y-85082142D01*
X148264285Y-85034523D01*
X148359523Y-84986904D01*
X148454761Y-84891666D01*
X148502380Y-84748809D01*
X148502380Y-84510714D01*
X147835714Y-85939285D02*
X148502380Y-85939285D01*
X147454761Y-85701190D02*
X148169047Y-85463095D01*
X148169047Y-86082142D01*
X148502380Y-86986904D02*
X148502380Y-86415476D01*
X148502380Y-86701190D02*
X147502380Y-86701190D01*
X147645238Y-86605952D01*
X147740476Y-86510714D01*
X147788095Y-86415476D01*
X154303663Y-76767961D02*
X154371006Y-76767961D01*
X154505693Y-76700617D01*
X154573037Y-76633274D01*
X154640380Y-76498586D01*
X154640380Y-76363899D01*
X154606709Y-76262884D01*
X154505693Y-76094525D01*
X154404678Y-75993510D01*
X154236319Y-75892495D01*
X154135304Y-75858823D01*
X154000617Y-75858823D01*
X153865930Y-75926167D01*
X153798586Y-75993510D01*
X153731243Y-76128197D01*
X153731243Y-76195541D01*
X153562884Y-76835304D02*
X153596556Y-76734289D01*
X153596556Y-76666945D01*
X153562884Y-76565930D01*
X153529212Y-76532258D01*
X153428197Y-76498586D01*
X153360854Y-76498586D01*
X153259838Y-76532258D01*
X153125151Y-76666945D01*
X153091480Y-76767961D01*
X153091480Y-76835304D01*
X153125151Y-76936319D01*
X153158823Y-76969991D01*
X153259838Y-77003663D01*
X153327182Y-77003663D01*
X153428197Y-76969991D01*
X153562884Y-76835304D01*
X153663899Y-76801632D01*
X153731243Y-76801632D01*
X153832258Y-76835304D01*
X153966945Y-76969991D01*
X154000617Y-77071006D01*
X154000617Y-77138350D01*
X153966945Y-77239365D01*
X153832258Y-77374052D01*
X153731243Y-77407724D01*
X153663899Y-77407724D01*
X153562884Y-77374052D01*
X153428197Y-77239365D01*
X153394525Y-77138350D01*
X153394525Y-77071006D01*
X153428197Y-76969991D01*
X237066666Y-19902380D02*
X237400000Y-19426190D01*
X237638095Y-19902380D02*
X237638095Y-18902380D01*
X237257142Y-18902380D01*
X237161904Y-18950000D01*
X237114285Y-18997619D01*
X237066666Y-19092857D01*
X237066666Y-19235714D01*
X237114285Y-19330952D01*
X237161904Y-19378571D01*
X237257142Y-19426190D01*
X237638095Y-19426190D01*
X236209523Y-18902380D02*
X236400000Y-18902380D01*
X236495238Y-18950000D01*
X236542857Y-18997619D01*
X236638095Y-19140476D01*
X236685714Y-19330952D01*
X236685714Y-19711904D01*
X236638095Y-19807142D01*
X236590476Y-19854761D01*
X236495238Y-19902380D01*
X236304761Y-19902380D01*
X236209523Y-19854761D01*
X236161904Y-19807142D01*
X236114285Y-19711904D01*
X236114285Y-19473809D01*
X236161904Y-19378571D01*
X236209523Y-19330952D01*
X236304761Y-19283333D01*
X236495238Y-19283333D01*
X236590476Y-19330952D01*
X236638095Y-19378571D01*
X236685714Y-19473809D01*
X230133333Y-27408571D02*
X230466666Y-27408571D01*
X230466666Y-27932380D02*
X230466666Y-26932380D01*
X229990476Y-26932380D01*
X229085714Y-27932380D02*
X229657142Y-27932380D01*
X229371428Y-27932380D02*
X229371428Y-26932380D01*
X229466666Y-27075238D01*
X229561904Y-27170476D01*
X229657142Y-27218095D01*
X170500169Y-75846076D02*
X169927749Y-76418496D01*
X169826734Y-76452168D01*
X169759390Y-76452168D01*
X169658375Y-76418496D01*
X169523688Y-76283809D01*
X169490016Y-76182794D01*
X169490016Y-76115450D01*
X169523688Y-76014435D01*
X170096108Y-75442015D01*
X168681894Y-75442015D02*
X169085955Y-75846076D01*
X168883925Y-75644046D02*
X169591031Y-74936939D01*
X169557360Y-75105298D01*
X169557360Y-75239985D01*
X169591031Y-75341000D01*
X160871006Y-70335304D02*
X160769991Y-69762884D01*
X161275067Y-69931243D02*
X160567961Y-69224136D01*
X160298586Y-69493510D01*
X160264915Y-69594525D01*
X160264915Y-69661869D01*
X160298586Y-69762884D01*
X160399602Y-69863899D01*
X160500617Y-69897571D01*
X160567961Y-69897571D01*
X160668976Y-69863899D01*
X160938350Y-69594525D01*
X159793510Y-70469991D02*
X160264915Y-70941396D01*
X159692495Y-70032258D02*
X160365930Y-70368976D01*
X159928197Y-70806709D01*
X260421130Y-84510714D02*
X259421130Y-84510714D01*
X259421130Y-84748809D01*
X259468750Y-84891666D01*
X259563988Y-84986904D01*
X259659226Y-85034523D01*
X259849702Y-85082142D01*
X259992559Y-85082142D01*
X260183035Y-85034523D01*
X260278273Y-84986904D01*
X260373511Y-84891666D01*
X260421130Y-84748809D01*
X260421130Y-84510714D01*
X259754464Y-85939285D02*
X260421130Y-85939285D01*
X259373511Y-85701190D02*
X260087797Y-85463095D01*
X260087797Y-86082142D01*
X259421130Y-86939285D02*
X259421130Y-86463095D01*
X259897321Y-86415476D01*
X259849702Y-86463095D01*
X259802083Y-86558333D01*
X259802083Y-86796428D01*
X259849702Y-86891666D01*
X259897321Y-86939285D01*
X259992559Y-86986904D01*
X260230654Y-86986904D01*
X260325892Y-86939285D01*
X260373511Y-86891666D01*
X260421130Y-86796428D01*
X260421130Y-86558333D01*
X260373511Y-86463095D01*
X260325892Y-86415476D01*
X241371130Y-84510714D02*
X240371130Y-84510714D01*
X240371130Y-84748809D01*
X240418750Y-84891666D01*
X240513988Y-84986904D01*
X240609226Y-85034523D01*
X240799702Y-85082142D01*
X240942559Y-85082142D01*
X241133035Y-85034523D01*
X241228273Y-84986904D01*
X241323511Y-84891666D01*
X241371130Y-84748809D01*
X241371130Y-84510714D01*
X240704464Y-85939285D02*
X241371130Y-85939285D01*
X240323511Y-85701190D02*
X241037797Y-85463095D01*
X241037797Y-86082142D01*
X240704464Y-86891666D02*
X241371130Y-86891666D01*
X240323511Y-86653571D02*
X241037797Y-86415476D01*
X241037797Y-87034523D01*
X219939880Y-84510714D02*
X218939880Y-84510714D01*
X218939880Y-84748809D01*
X218987500Y-84891666D01*
X219082738Y-84986904D01*
X219177976Y-85034523D01*
X219368452Y-85082142D01*
X219511309Y-85082142D01*
X219701785Y-85034523D01*
X219797023Y-84986904D01*
X219892261Y-84891666D01*
X219939880Y-84748809D01*
X219939880Y-84510714D01*
X219273214Y-85939285D02*
X219939880Y-85939285D01*
X218892261Y-85701190D02*
X219606547Y-85463095D01*
X219606547Y-86082142D01*
X218939880Y-86367857D02*
X218939880Y-86986904D01*
X219320833Y-86653571D01*
X219320833Y-86796428D01*
X219368452Y-86891666D01*
X219416071Y-86939285D01*
X219511309Y-86986904D01*
X219749404Y-86986904D01*
X219844642Y-86939285D01*
X219892261Y-86891666D01*
X219939880Y-86796428D01*
X219939880Y-86510714D01*
X219892261Y-86415476D01*
X219844642Y-86367857D01*
X79446130Y-84510714D02*
X78446130Y-84510714D01*
X78446130Y-84748809D01*
X78493750Y-84891666D01*
X78588988Y-84986904D01*
X78684226Y-85034523D01*
X78874702Y-85082142D01*
X79017559Y-85082142D01*
X79208035Y-85034523D01*
X79303273Y-84986904D01*
X79398511Y-84891666D01*
X79446130Y-84748809D01*
X79446130Y-84510714D01*
X78446130Y-85415476D02*
X78446130Y-86034523D01*
X78827083Y-85701190D01*
X78827083Y-85844047D01*
X78874702Y-85939285D01*
X78922321Y-85986904D01*
X79017559Y-86034523D01*
X79255654Y-86034523D01*
X79350892Y-85986904D01*
X79398511Y-85939285D01*
X79446130Y-85844047D01*
X79446130Y-85558333D01*
X79398511Y-85463095D01*
X79350892Y-85415476D01*
X79446130Y-86510714D02*
X79446130Y-86701190D01*
X79398511Y-86796428D01*
X79350892Y-86844047D01*
X79208035Y-86939285D01*
X79017559Y-86986904D01*
X78636607Y-86986904D01*
X78541369Y-86939285D01*
X78493750Y-86891666D01*
X78446130Y-86796428D01*
X78446130Y-86605952D01*
X78493750Y-86510714D01*
X78541369Y-86463095D01*
X78636607Y-86415476D01*
X78874702Y-86415476D01*
X78969940Y-86463095D01*
X79017559Y-86510714D01*
X79065178Y-86605952D01*
X79065178Y-86796428D01*
X79017559Y-86891666D01*
X78969940Y-86939285D01*
X78874702Y-86986904D01*
X60396130Y-84510714D02*
X59396130Y-84510714D01*
X59396130Y-84748809D01*
X59443750Y-84891666D01*
X59538988Y-84986904D01*
X59634226Y-85034523D01*
X59824702Y-85082142D01*
X59967559Y-85082142D01*
X60158035Y-85034523D01*
X60253273Y-84986904D01*
X60348511Y-84891666D01*
X60396130Y-84748809D01*
X60396130Y-84510714D01*
X59396130Y-85415476D02*
X59396130Y-86034523D01*
X59777083Y-85701190D01*
X59777083Y-85844047D01*
X59824702Y-85939285D01*
X59872321Y-85986904D01*
X59967559Y-86034523D01*
X60205654Y-86034523D01*
X60300892Y-85986904D01*
X60348511Y-85939285D01*
X60396130Y-85844047D01*
X60396130Y-85558333D01*
X60348511Y-85463095D01*
X60300892Y-85415476D01*
X59824702Y-86605952D02*
X59777083Y-86510714D01*
X59729464Y-86463095D01*
X59634226Y-86415476D01*
X59586607Y-86415476D01*
X59491369Y-86463095D01*
X59443750Y-86510714D01*
X59396130Y-86605952D01*
X59396130Y-86796428D01*
X59443750Y-86891666D01*
X59491369Y-86939285D01*
X59586607Y-86986904D01*
X59634226Y-86986904D01*
X59729464Y-86939285D01*
X59777083Y-86891666D01*
X59824702Y-86796428D01*
X59824702Y-86605952D01*
X59872321Y-86510714D01*
X59919940Y-86463095D01*
X60015178Y-86415476D01*
X60205654Y-86415476D01*
X60300892Y-86463095D01*
X60348511Y-86510714D01*
X60396130Y-86605952D01*
X60396130Y-86796428D01*
X60348511Y-86891666D01*
X60300892Y-86939285D01*
X60205654Y-86986904D01*
X60015178Y-86986904D01*
X59919940Y-86939285D01*
X59872321Y-86891666D01*
X59824702Y-86796428D01*
X38964880Y-84510714D02*
X37964880Y-84510714D01*
X37964880Y-84748809D01*
X38012500Y-84891666D01*
X38107738Y-84986904D01*
X38202976Y-85034523D01*
X38393452Y-85082142D01*
X38536309Y-85082142D01*
X38726785Y-85034523D01*
X38822023Y-84986904D01*
X38917261Y-84891666D01*
X38964880Y-84748809D01*
X38964880Y-84510714D01*
X37964880Y-85415476D02*
X37964880Y-86034523D01*
X38345833Y-85701190D01*
X38345833Y-85844047D01*
X38393452Y-85939285D01*
X38441071Y-85986904D01*
X38536309Y-86034523D01*
X38774404Y-86034523D01*
X38869642Y-85986904D01*
X38917261Y-85939285D01*
X38964880Y-85844047D01*
X38964880Y-85558333D01*
X38917261Y-85463095D01*
X38869642Y-85415476D01*
X37964880Y-86367857D02*
X37964880Y-87034523D01*
X38964880Y-86605952D01*
X260421130Y-65460714D02*
X259421130Y-65460714D01*
X259421130Y-65698809D01*
X259468750Y-65841666D01*
X259563988Y-65936904D01*
X259659226Y-65984523D01*
X259849702Y-66032142D01*
X259992559Y-66032142D01*
X260183035Y-65984523D01*
X260278273Y-65936904D01*
X260373511Y-65841666D01*
X260421130Y-65698809D01*
X260421130Y-65460714D01*
X259421130Y-66365476D02*
X259421130Y-66984523D01*
X259802083Y-66651190D01*
X259802083Y-66794047D01*
X259849702Y-66889285D01*
X259897321Y-66936904D01*
X259992559Y-66984523D01*
X260230654Y-66984523D01*
X260325892Y-66936904D01*
X260373511Y-66889285D01*
X260421130Y-66794047D01*
X260421130Y-66508333D01*
X260373511Y-66413095D01*
X260325892Y-66365476D01*
X259421130Y-67841666D02*
X259421130Y-67651190D01*
X259468750Y-67555952D01*
X259516369Y-67508333D01*
X259659226Y-67413095D01*
X259849702Y-67365476D01*
X260230654Y-67365476D01*
X260325892Y-67413095D01*
X260373511Y-67460714D01*
X260421130Y-67555952D01*
X260421130Y-67746428D01*
X260373511Y-67841666D01*
X260325892Y-67889285D01*
X260230654Y-67936904D01*
X259992559Y-67936904D01*
X259897321Y-67889285D01*
X259849702Y-67841666D01*
X259802083Y-67746428D01*
X259802083Y-67555952D01*
X259849702Y-67460714D01*
X259897321Y-67413095D01*
X259992559Y-67365476D01*
X225496130Y-65460714D02*
X224496130Y-65460714D01*
X224496130Y-65698809D01*
X224543750Y-65841666D01*
X224638988Y-65936904D01*
X224734226Y-65984523D01*
X224924702Y-66032142D01*
X225067559Y-66032142D01*
X225258035Y-65984523D01*
X225353273Y-65936904D01*
X225448511Y-65841666D01*
X225496130Y-65698809D01*
X225496130Y-65460714D01*
X224496130Y-66365476D02*
X224496130Y-66984523D01*
X224877083Y-66651190D01*
X224877083Y-66794047D01*
X224924702Y-66889285D01*
X224972321Y-66936904D01*
X225067559Y-66984523D01*
X225305654Y-66984523D01*
X225400892Y-66936904D01*
X225448511Y-66889285D01*
X225496130Y-66794047D01*
X225496130Y-66508333D01*
X225448511Y-66413095D01*
X225400892Y-66365476D01*
X224496130Y-67889285D02*
X224496130Y-67413095D01*
X224972321Y-67365476D01*
X224924702Y-67413095D01*
X224877083Y-67508333D01*
X224877083Y-67746428D01*
X224924702Y-67841666D01*
X224972321Y-67889285D01*
X225067559Y-67936904D01*
X225305654Y-67936904D01*
X225400892Y-67889285D01*
X225448511Y-67841666D01*
X225496130Y-67746428D01*
X225496130Y-67508333D01*
X225448511Y-67413095D01*
X225400892Y-67365476D01*
X222321130Y-65460714D02*
X221321130Y-65460714D01*
X221321130Y-65698809D01*
X221368750Y-65841666D01*
X221463988Y-65936904D01*
X221559226Y-65984523D01*
X221749702Y-66032142D01*
X221892559Y-66032142D01*
X222083035Y-65984523D01*
X222178273Y-65936904D01*
X222273511Y-65841666D01*
X222321130Y-65698809D01*
X222321130Y-65460714D01*
X221321130Y-66365476D02*
X221321130Y-66984523D01*
X221702083Y-66651190D01*
X221702083Y-66794047D01*
X221749702Y-66889285D01*
X221797321Y-66936904D01*
X221892559Y-66984523D01*
X222130654Y-66984523D01*
X222225892Y-66936904D01*
X222273511Y-66889285D01*
X222321130Y-66794047D01*
X222321130Y-66508333D01*
X222273511Y-66413095D01*
X222225892Y-66365476D01*
X221654464Y-67841666D02*
X222321130Y-67841666D01*
X221273511Y-67603571D02*
X221987797Y-67365476D01*
X221987797Y-67984523D01*
X203271130Y-65460714D02*
X202271130Y-65460714D01*
X202271130Y-65698809D01*
X202318750Y-65841666D01*
X202413988Y-65936904D01*
X202509226Y-65984523D01*
X202699702Y-66032142D01*
X202842559Y-66032142D01*
X203033035Y-65984523D01*
X203128273Y-65936904D01*
X203223511Y-65841666D01*
X203271130Y-65698809D01*
X203271130Y-65460714D01*
X202271130Y-66365476D02*
X202271130Y-66984523D01*
X202652083Y-66651190D01*
X202652083Y-66794047D01*
X202699702Y-66889285D01*
X202747321Y-66936904D01*
X202842559Y-66984523D01*
X203080654Y-66984523D01*
X203175892Y-66936904D01*
X203223511Y-66889285D01*
X203271130Y-66794047D01*
X203271130Y-66508333D01*
X203223511Y-66413095D01*
X203175892Y-66365476D01*
X202271130Y-67317857D02*
X202271130Y-67936904D01*
X202652083Y-67603571D01*
X202652083Y-67746428D01*
X202699702Y-67841666D01*
X202747321Y-67889285D01*
X202842559Y-67936904D01*
X203080654Y-67936904D01*
X203175892Y-67889285D01*
X203223511Y-67841666D01*
X203271130Y-67746428D01*
X203271130Y-67460714D01*
X203223511Y-67365476D01*
X203175892Y-67317857D01*
X184221130Y-65460714D02*
X183221130Y-65460714D01*
X183221130Y-65698809D01*
X183268750Y-65841666D01*
X183363988Y-65936904D01*
X183459226Y-65984523D01*
X183649702Y-66032142D01*
X183792559Y-66032142D01*
X183983035Y-65984523D01*
X184078273Y-65936904D01*
X184173511Y-65841666D01*
X184221130Y-65698809D01*
X184221130Y-65460714D01*
X183221130Y-66365476D02*
X183221130Y-66984523D01*
X183602083Y-66651190D01*
X183602083Y-66794047D01*
X183649702Y-66889285D01*
X183697321Y-66936904D01*
X183792559Y-66984523D01*
X184030654Y-66984523D01*
X184125892Y-66936904D01*
X184173511Y-66889285D01*
X184221130Y-66794047D01*
X184221130Y-66508333D01*
X184173511Y-66413095D01*
X184125892Y-66365476D01*
X183316369Y-67365476D02*
X183268750Y-67413095D01*
X183221130Y-67508333D01*
X183221130Y-67746428D01*
X183268750Y-67841666D01*
X183316369Y-67889285D01*
X183411607Y-67936904D01*
X183506845Y-67936904D01*
X183649702Y-67889285D01*
X184221130Y-67317857D01*
X184221130Y-67936904D01*
X165171130Y-65460714D02*
X164171130Y-65460714D01*
X164171130Y-65698809D01*
X164218750Y-65841666D01*
X164313988Y-65936904D01*
X164409226Y-65984523D01*
X164599702Y-66032142D01*
X164742559Y-66032142D01*
X164933035Y-65984523D01*
X165028273Y-65936904D01*
X165123511Y-65841666D01*
X165171130Y-65698809D01*
X165171130Y-65460714D01*
X164171130Y-66365476D02*
X164171130Y-66984523D01*
X164552083Y-66651190D01*
X164552083Y-66794047D01*
X164599702Y-66889285D01*
X164647321Y-66936904D01*
X164742559Y-66984523D01*
X164980654Y-66984523D01*
X165075892Y-66936904D01*
X165123511Y-66889285D01*
X165171130Y-66794047D01*
X165171130Y-66508333D01*
X165123511Y-66413095D01*
X165075892Y-66365476D01*
X165171130Y-67936904D02*
X165171130Y-67365476D01*
X165171130Y-67651190D02*
X164171130Y-67651190D01*
X164313988Y-67555952D01*
X164409226Y-67460714D01*
X164456845Y-67365476D01*
X146121130Y-65460714D02*
X145121130Y-65460714D01*
X145121130Y-65698809D01*
X145168750Y-65841666D01*
X145263988Y-65936904D01*
X145359226Y-65984523D01*
X145549702Y-66032142D01*
X145692559Y-66032142D01*
X145883035Y-65984523D01*
X145978273Y-65936904D01*
X146073511Y-65841666D01*
X146121130Y-65698809D01*
X146121130Y-65460714D01*
X145121130Y-66365476D02*
X145121130Y-66984523D01*
X145502083Y-66651190D01*
X145502083Y-66794047D01*
X145549702Y-66889285D01*
X145597321Y-66936904D01*
X145692559Y-66984523D01*
X145930654Y-66984523D01*
X146025892Y-66936904D01*
X146073511Y-66889285D01*
X146121130Y-66794047D01*
X146121130Y-66508333D01*
X146073511Y-66413095D01*
X146025892Y-66365476D01*
X145121130Y-67603571D02*
X145121130Y-67698809D01*
X145168750Y-67794047D01*
X145216369Y-67841666D01*
X145311607Y-67889285D01*
X145502083Y-67936904D01*
X145740178Y-67936904D01*
X145930654Y-67889285D01*
X146025892Y-67841666D01*
X146073511Y-67794047D01*
X146121130Y-67698809D01*
X146121130Y-67603571D01*
X146073511Y-67508333D01*
X146025892Y-67460714D01*
X145930654Y-67413095D01*
X145740178Y-67365476D01*
X145502083Y-67365476D01*
X145311607Y-67413095D01*
X145216369Y-67460714D01*
X145168750Y-67508333D01*
X145121130Y-67603571D01*
X127071130Y-65460714D02*
X126071130Y-65460714D01*
X126071130Y-65698809D01*
X126118750Y-65841666D01*
X126213988Y-65936904D01*
X126309226Y-65984523D01*
X126499702Y-66032142D01*
X126642559Y-66032142D01*
X126833035Y-65984523D01*
X126928273Y-65936904D01*
X127023511Y-65841666D01*
X127071130Y-65698809D01*
X127071130Y-65460714D01*
X126166369Y-66413095D02*
X126118750Y-66460714D01*
X126071130Y-66555952D01*
X126071130Y-66794047D01*
X126118750Y-66889285D01*
X126166369Y-66936904D01*
X126261607Y-66984523D01*
X126356845Y-66984523D01*
X126499702Y-66936904D01*
X127071130Y-66365476D01*
X127071130Y-66984523D01*
X127071130Y-67460714D02*
X127071130Y-67651190D01*
X127023511Y-67746428D01*
X126975892Y-67794047D01*
X126833035Y-67889285D01*
X126642559Y-67936904D01*
X126261607Y-67936904D01*
X126166369Y-67889285D01*
X126118750Y-67841666D01*
X126071130Y-67746428D01*
X126071130Y-67555952D01*
X126118750Y-67460714D01*
X126166369Y-67413095D01*
X126261607Y-67365476D01*
X126499702Y-67365476D01*
X126594940Y-67413095D01*
X126642559Y-67460714D01*
X126690178Y-67555952D01*
X126690178Y-67746428D01*
X126642559Y-67841666D01*
X126594940Y-67889285D01*
X126499702Y-67936904D01*
X108021130Y-65460714D02*
X107021130Y-65460714D01*
X107021130Y-65698809D01*
X107068750Y-65841666D01*
X107163988Y-65936904D01*
X107259226Y-65984523D01*
X107449702Y-66032142D01*
X107592559Y-66032142D01*
X107783035Y-65984523D01*
X107878273Y-65936904D01*
X107973511Y-65841666D01*
X108021130Y-65698809D01*
X108021130Y-65460714D01*
X107116369Y-66413095D02*
X107068750Y-66460714D01*
X107021130Y-66555952D01*
X107021130Y-66794047D01*
X107068750Y-66889285D01*
X107116369Y-66936904D01*
X107211607Y-66984523D01*
X107306845Y-66984523D01*
X107449702Y-66936904D01*
X108021130Y-66365476D01*
X108021130Y-66984523D01*
X107449702Y-67555952D02*
X107402083Y-67460714D01*
X107354464Y-67413095D01*
X107259226Y-67365476D01*
X107211607Y-67365476D01*
X107116369Y-67413095D01*
X107068750Y-67460714D01*
X107021130Y-67555952D01*
X107021130Y-67746428D01*
X107068750Y-67841666D01*
X107116369Y-67889285D01*
X107211607Y-67936904D01*
X107259226Y-67936904D01*
X107354464Y-67889285D01*
X107402083Y-67841666D01*
X107449702Y-67746428D01*
X107449702Y-67555952D01*
X107497321Y-67460714D01*
X107544940Y-67413095D01*
X107640178Y-67365476D01*
X107830654Y-67365476D01*
X107925892Y-67413095D01*
X107973511Y-67460714D01*
X108021130Y-67555952D01*
X108021130Y-67746428D01*
X107973511Y-67841666D01*
X107925892Y-67889285D01*
X107830654Y-67936904D01*
X107640178Y-67936904D01*
X107544940Y-67889285D01*
X107497321Y-67841666D01*
X107449702Y-67746428D01*
X88971130Y-65460714D02*
X87971130Y-65460714D01*
X87971130Y-65698809D01*
X88018750Y-65841666D01*
X88113988Y-65936904D01*
X88209226Y-65984523D01*
X88399702Y-66032142D01*
X88542559Y-66032142D01*
X88733035Y-65984523D01*
X88828273Y-65936904D01*
X88923511Y-65841666D01*
X88971130Y-65698809D01*
X88971130Y-65460714D01*
X88066369Y-66413095D02*
X88018750Y-66460714D01*
X87971130Y-66555952D01*
X87971130Y-66794047D01*
X88018750Y-66889285D01*
X88066369Y-66936904D01*
X88161607Y-66984523D01*
X88256845Y-66984523D01*
X88399702Y-66936904D01*
X88971130Y-66365476D01*
X88971130Y-66984523D01*
X87971130Y-67317857D02*
X87971130Y-67984523D01*
X88971130Y-67555952D01*
X69921130Y-65460714D02*
X68921130Y-65460714D01*
X68921130Y-65698809D01*
X68968750Y-65841666D01*
X69063988Y-65936904D01*
X69159226Y-65984523D01*
X69349702Y-66032142D01*
X69492559Y-66032142D01*
X69683035Y-65984523D01*
X69778273Y-65936904D01*
X69873511Y-65841666D01*
X69921130Y-65698809D01*
X69921130Y-65460714D01*
X69016369Y-66413095D02*
X68968750Y-66460714D01*
X68921130Y-66555952D01*
X68921130Y-66794047D01*
X68968750Y-66889285D01*
X69016369Y-66936904D01*
X69111607Y-66984523D01*
X69206845Y-66984523D01*
X69349702Y-66936904D01*
X69921130Y-66365476D01*
X69921130Y-66984523D01*
X68921130Y-67841666D02*
X68921130Y-67651190D01*
X68968750Y-67555952D01*
X69016369Y-67508333D01*
X69159226Y-67413095D01*
X69349702Y-67365476D01*
X69730654Y-67365476D01*
X69825892Y-67413095D01*
X69873511Y-67460714D01*
X69921130Y-67555952D01*
X69921130Y-67746428D01*
X69873511Y-67841666D01*
X69825892Y-67889285D01*
X69730654Y-67936904D01*
X69492559Y-67936904D01*
X69397321Y-67889285D01*
X69349702Y-67841666D01*
X69302083Y-67746428D01*
X69302083Y-67555952D01*
X69349702Y-67460714D01*
X69397321Y-67413095D01*
X69492559Y-67365476D01*
X43727380Y-65460714D02*
X42727380Y-65460714D01*
X42727380Y-65698809D01*
X42775000Y-65841666D01*
X42870238Y-65936904D01*
X42965476Y-65984523D01*
X43155952Y-66032142D01*
X43298809Y-66032142D01*
X43489285Y-65984523D01*
X43584523Y-65936904D01*
X43679761Y-65841666D01*
X43727380Y-65698809D01*
X43727380Y-65460714D01*
X42822619Y-66413095D02*
X42775000Y-66460714D01*
X42727380Y-66555952D01*
X42727380Y-66794047D01*
X42775000Y-66889285D01*
X42822619Y-66936904D01*
X42917857Y-66984523D01*
X43013095Y-66984523D01*
X43155952Y-66936904D01*
X43727380Y-66365476D01*
X43727380Y-66984523D01*
X42727380Y-67889285D02*
X42727380Y-67413095D01*
X43203571Y-67365476D01*
X43155952Y-67413095D01*
X43108333Y-67508333D01*
X43108333Y-67746428D01*
X43155952Y-67841666D01*
X43203571Y-67889285D01*
X43298809Y-67936904D01*
X43536904Y-67936904D01*
X43632142Y-67889285D01*
X43679761Y-67841666D01*
X43727380Y-67746428D01*
X43727380Y-67508333D01*
X43679761Y-67413095D01*
X43632142Y-67365476D01*
X255658630Y-46410714D02*
X254658630Y-46410714D01*
X254658630Y-46648809D01*
X254706250Y-46791666D01*
X254801488Y-46886904D01*
X254896726Y-46934523D01*
X255087202Y-46982142D01*
X255230059Y-46982142D01*
X255420535Y-46934523D01*
X255515773Y-46886904D01*
X255611011Y-46791666D01*
X255658630Y-46648809D01*
X255658630Y-46410714D01*
X254753869Y-47363095D02*
X254706250Y-47410714D01*
X254658630Y-47505952D01*
X254658630Y-47744047D01*
X254706250Y-47839285D01*
X254753869Y-47886904D01*
X254849107Y-47934523D01*
X254944345Y-47934523D01*
X255087202Y-47886904D01*
X255658630Y-47315476D01*
X255658630Y-47934523D01*
X254991964Y-48791666D02*
X255658630Y-48791666D01*
X254611011Y-48553571D02*
X255325297Y-48315476D01*
X255325297Y-48934523D01*
X231846130Y-46410714D02*
X230846130Y-46410714D01*
X230846130Y-46648809D01*
X230893750Y-46791666D01*
X230988988Y-46886904D01*
X231084226Y-46934523D01*
X231274702Y-46982142D01*
X231417559Y-46982142D01*
X231608035Y-46934523D01*
X231703273Y-46886904D01*
X231798511Y-46791666D01*
X231846130Y-46648809D01*
X231846130Y-46410714D01*
X230941369Y-47363095D02*
X230893750Y-47410714D01*
X230846130Y-47505952D01*
X230846130Y-47744047D01*
X230893750Y-47839285D01*
X230941369Y-47886904D01*
X231036607Y-47934523D01*
X231131845Y-47934523D01*
X231274702Y-47886904D01*
X231846130Y-47315476D01*
X231846130Y-47934523D01*
X230846130Y-48267857D02*
X230846130Y-48886904D01*
X231227083Y-48553571D01*
X231227083Y-48696428D01*
X231274702Y-48791666D01*
X231322321Y-48839285D01*
X231417559Y-48886904D01*
X231655654Y-48886904D01*
X231750892Y-48839285D01*
X231798511Y-48791666D01*
X231846130Y-48696428D01*
X231846130Y-48410714D01*
X231798511Y-48315476D01*
X231750892Y-48267857D01*
X212796130Y-46410714D02*
X211796130Y-46410714D01*
X211796130Y-46648809D01*
X211843750Y-46791666D01*
X211938988Y-46886904D01*
X212034226Y-46934523D01*
X212224702Y-46982142D01*
X212367559Y-46982142D01*
X212558035Y-46934523D01*
X212653273Y-46886904D01*
X212748511Y-46791666D01*
X212796130Y-46648809D01*
X212796130Y-46410714D01*
X211891369Y-47363095D02*
X211843750Y-47410714D01*
X211796130Y-47505952D01*
X211796130Y-47744047D01*
X211843750Y-47839285D01*
X211891369Y-47886904D01*
X211986607Y-47934523D01*
X212081845Y-47934523D01*
X212224702Y-47886904D01*
X212796130Y-47315476D01*
X212796130Y-47934523D01*
X211891369Y-48315476D02*
X211843750Y-48363095D01*
X211796130Y-48458333D01*
X211796130Y-48696428D01*
X211843750Y-48791666D01*
X211891369Y-48839285D01*
X211986607Y-48886904D01*
X212081845Y-48886904D01*
X212224702Y-48839285D01*
X212796130Y-48267857D01*
X212796130Y-48886904D01*
X193746130Y-46410714D02*
X192746130Y-46410714D01*
X192746130Y-46648809D01*
X192793750Y-46791666D01*
X192888988Y-46886904D01*
X192984226Y-46934523D01*
X193174702Y-46982142D01*
X193317559Y-46982142D01*
X193508035Y-46934523D01*
X193603273Y-46886904D01*
X193698511Y-46791666D01*
X193746130Y-46648809D01*
X193746130Y-46410714D01*
X192841369Y-47363095D02*
X192793750Y-47410714D01*
X192746130Y-47505952D01*
X192746130Y-47744047D01*
X192793750Y-47839285D01*
X192841369Y-47886904D01*
X192936607Y-47934523D01*
X193031845Y-47934523D01*
X193174702Y-47886904D01*
X193746130Y-47315476D01*
X193746130Y-47934523D01*
X193746130Y-48886904D02*
X193746130Y-48315476D01*
X193746130Y-48601190D02*
X192746130Y-48601190D01*
X192888988Y-48505952D01*
X192984226Y-48410714D01*
X193031845Y-48315476D01*
X174696130Y-46410714D02*
X173696130Y-46410714D01*
X173696130Y-46648809D01*
X173743750Y-46791666D01*
X173838988Y-46886904D01*
X173934226Y-46934523D01*
X174124702Y-46982142D01*
X174267559Y-46982142D01*
X174458035Y-46934523D01*
X174553273Y-46886904D01*
X174648511Y-46791666D01*
X174696130Y-46648809D01*
X174696130Y-46410714D01*
X173791369Y-47363095D02*
X173743750Y-47410714D01*
X173696130Y-47505952D01*
X173696130Y-47744047D01*
X173743750Y-47839285D01*
X173791369Y-47886904D01*
X173886607Y-47934523D01*
X173981845Y-47934523D01*
X174124702Y-47886904D01*
X174696130Y-47315476D01*
X174696130Y-47934523D01*
X173696130Y-48553571D02*
X173696130Y-48648809D01*
X173743750Y-48744047D01*
X173791369Y-48791666D01*
X173886607Y-48839285D01*
X174077083Y-48886904D01*
X174315178Y-48886904D01*
X174505654Y-48839285D01*
X174600892Y-48791666D01*
X174648511Y-48744047D01*
X174696130Y-48648809D01*
X174696130Y-48553571D01*
X174648511Y-48458333D01*
X174600892Y-48410714D01*
X174505654Y-48363095D01*
X174315178Y-48315476D01*
X174077083Y-48315476D01*
X173886607Y-48363095D01*
X173791369Y-48410714D01*
X173743750Y-48458333D01*
X173696130Y-48553571D01*
X155646130Y-46410714D02*
X154646130Y-46410714D01*
X154646130Y-46648809D01*
X154693750Y-46791666D01*
X154788988Y-46886904D01*
X154884226Y-46934523D01*
X155074702Y-46982142D01*
X155217559Y-46982142D01*
X155408035Y-46934523D01*
X155503273Y-46886904D01*
X155598511Y-46791666D01*
X155646130Y-46648809D01*
X155646130Y-46410714D01*
X155646130Y-47934523D02*
X155646130Y-47363095D01*
X155646130Y-47648809D02*
X154646130Y-47648809D01*
X154788988Y-47553571D01*
X154884226Y-47458333D01*
X154931845Y-47363095D01*
X155646130Y-48410714D02*
X155646130Y-48601190D01*
X155598511Y-48696428D01*
X155550892Y-48744047D01*
X155408035Y-48839285D01*
X155217559Y-48886904D01*
X154836607Y-48886904D01*
X154741369Y-48839285D01*
X154693750Y-48791666D01*
X154646130Y-48696428D01*
X154646130Y-48505952D01*
X154693750Y-48410714D01*
X154741369Y-48363095D01*
X154836607Y-48315476D01*
X155074702Y-48315476D01*
X155169940Y-48363095D01*
X155217559Y-48410714D01*
X155265178Y-48505952D01*
X155265178Y-48696428D01*
X155217559Y-48791666D01*
X155169940Y-48839285D01*
X155074702Y-48886904D01*
X136596130Y-46410714D02*
X135596130Y-46410714D01*
X135596130Y-46648809D01*
X135643750Y-46791666D01*
X135738988Y-46886904D01*
X135834226Y-46934523D01*
X136024702Y-46982142D01*
X136167559Y-46982142D01*
X136358035Y-46934523D01*
X136453273Y-46886904D01*
X136548511Y-46791666D01*
X136596130Y-46648809D01*
X136596130Y-46410714D01*
X136596130Y-47934523D02*
X136596130Y-47363095D01*
X136596130Y-47648809D02*
X135596130Y-47648809D01*
X135738988Y-47553571D01*
X135834226Y-47458333D01*
X135881845Y-47363095D01*
X136024702Y-48505952D02*
X135977083Y-48410714D01*
X135929464Y-48363095D01*
X135834226Y-48315476D01*
X135786607Y-48315476D01*
X135691369Y-48363095D01*
X135643750Y-48410714D01*
X135596130Y-48505952D01*
X135596130Y-48696428D01*
X135643750Y-48791666D01*
X135691369Y-48839285D01*
X135786607Y-48886904D01*
X135834226Y-48886904D01*
X135929464Y-48839285D01*
X135977083Y-48791666D01*
X136024702Y-48696428D01*
X136024702Y-48505952D01*
X136072321Y-48410714D01*
X136119940Y-48363095D01*
X136215178Y-48315476D01*
X136405654Y-48315476D01*
X136500892Y-48363095D01*
X136548511Y-48410714D01*
X136596130Y-48505952D01*
X136596130Y-48696428D01*
X136548511Y-48791666D01*
X136500892Y-48839285D01*
X136405654Y-48886904D01*
X136215178Y-48886904D01*
X136119940Y-48839285D01*
X136072321Y-48791666D01*
X136024702Y-48696428D01*
X117546130Y-46410714D02*
X116546130Y-46410714D01*
X116546130Y-46648809D01*
X116593750Y-46791666D01*
X116688988Y-46886904D01*
X116784226Y-46934523D01*
X116974702Y-46982142D01*
X117117559Y-46982142D01*
X117308035Y-46934523D01*
X117403273Y-46886904D01*
X117498511Y-46791666D01*
X117546130Y-46648809D01*
X117546130Y-46410714D01*
X117546130Y-47934523D02*
X117546130Y-47363095D01*
X117546130Y-47648809D02*
X116546130Y-47648809D01*
X116688988Y-47553571D01*
X116784226Y-47458333D01*
X116831845Y-47363095D01*
X116546130Y-48267857D02*
X116546130Y-48934523D01*
X117546130Y-48505952D01*
X98496130Y-46410714D02*
X97496130Y-46410714D01*
X97496130Y-46648809D01*
X97543750Y-46791666D01*
X97638988Y-46886904D01*
X97734226Y-46934523D01*
X97924702Y-46982142D01*
X98067559Y-46982142D01*
X98258035Y-46934523D01*
X98353273Y-46886904D01*
X98448511Y-46791666D01*
X98496130Y-46648809D01*
X98496130Y-46410714D01*
X98496130Y-47934523D02*
X98496130Y-47363095D01*
X98496130Y-47648809D02*
X97496130Y-47648809D01*
X97638988Y-47553571D01*
X97734226Y-47458333D01*
X97781845Y-47363095D01*
X97496130Y-48791666D02*
X97496130Y-48601190D01*
X97543750Y-48505952D01*
X97591369Y-48458333D01*
X97734226Y-48363095D01*
X97924702Y-48315476D01*
X98305654Y-48315476D01*
X98400892Y-48363095D01*
X98448511Y-48410714D01*
X98496130Y-48505952D01*
X98496130Y-48696428D01*
X98448511Y-48791666D01*
X98400892Y-48839285D01*
X98305654Y-48886904D01*
X98067559Y-48886904D01*
X97972321Y-48839285D01*
X97924702Y-48791666D01*
X97877083Y-48696428D01*
X97877083Y-48505952D01*
X97924702Y-48410714D01*
X97972321Y-48363095D01*
X98067559Y-48315476D01*
X79446130Y-46410714D02*
X78446130Y-46410714D01*
X78446130Y-46648809D01*
X78493750Y-46791666D01*
X78588988Y-46886904D01*
X78684226Y-46934523D01*
X78874702Y-46982142D01*
X79017559Y-46982142D01*
X79208035Y-46934523D01*
X79303273Y-46886904D01*
X79398511Y-46791666D01*
X79446130Y-46648809D01*
X79446130Y-46410714D01*
X79446130Y-47934523D02*
X79446130Y-47363095D01*
X79446130Y-47648809D02*
X78446130Y-47648809D01*
X78588988Y-47553571D01*
X78684226Y-47458333D01*
X78731845Y-47363095D01*
X78446130Y-48839285D02*
X78446130Y-48363095D01*
X78922321Y-48315476D01*
X78874702Y-48363095D01*
X78827083Y-48458333D01*
X78827083Y-48696428D01*
X78874702Y-48791666D01*
X78922321Y-48839285D01*
X79017559Y-48886904D01*
X79255654Y-48886904D01*
X79350892Y-48839285D01*
X79398511Y-48791666D01*
X79446130Y-48696428D01*
X79446130Y-48458333D01*
X79398511Y-48363095D01*
X79350892Y-48315476D01*
X60396130Y-46410714D02*
X59396130Y-46410714D01*
X59396130Y-46648809D01*
X59443750Y-46791666D01*
X59538988Y-46886904D01*
X59634226Y-46934523D01*
X59824702Y-46982142D01*
X59967559Y-46982142D01*
X60158035Y-46934523D01*
X60253273Y-46886904D01*
X60348511Y-46791666D01*
X60396130Y-46648809D01*
X60396130Y-46410714D01*
X60396130Y-47934523D02*
X60396130Y-47363095D01*
X60396130Y-47648809D02*
X59396130Y-47648809D01*
X59538988Y-47553571D01*
X59634226Y-47458333D01*
X59681845Y-47363095D01*
X59729464Y-48791666D02*
X60396130Y-48791666D01*
X59348511Y-48553571D02*
X60062797Y-48315476D01*
X60062797Y-48934523D01*
X38964880Y-46410714D02*
X37964880Y-46410714D01*
X37964880Y-46648809D01*
X38012500Y-46791666D01*
X38107738Y-46886904D01*
X38202976Y-46934523D01*
X38393452Y-46982142D01*
X38536309Y-46982142D01*
X38726785Y-46934523D01*
X38822023Y-46886904D01*
X38917261Y-46791666D01*
X38964880Y-46648809D01*
X38964880Y-46410714D01*
X38964880Y-47934523D02*
X38964880Y-47363095D01*
X38964880Y-47648809D02*
X37964880Y-47648809D01*
X38107738Y-47553571D01*
X38202976Y-47458333D01*
X38250595Y-47363095D01*
X37964880Y-48267857D02*
X37964880Y-48886904D01*
X38345833Y-48553571D01*
X38345833Y-48696428D01*
X38393452Y-48791666D01*
X38441071Y-48839285D01*
X38536309Y-48886904D01*
X38774404Y-48886904D01*
X38869642Y-48839285D01*
X38917261Y-48791666D01*
X38964880Y-48696428D01*
X38964880Y-48410714D01*
X38917261Y-48315476D01*
X38869642Y-48267857D01*
X253277380Y-27360714D02*
X252277380Y-27360714D01*
X252277380Y-27598809D01*
X252325000Y-27741666D01*
X252420238Y-27836904D01*
X252515476Y-27884523D01*
X252705952Y-27932142D01*
X252848809Y-27932142D01*
X253039285Y-27884523D01*
X253134523Y-27836904D01*
X253229761Y-27741666D01*
X253277380Y-27598809D01*
X253277380Y-27360714D01*
X253277380Y-28884523D02*
X253277380Y-28313095D01*
X253277380Y-28598809D02*
X252277380Y-28598809D01*
X252420238Y-28503571D01*
X252515476Y-28408333D01*
X252563095Y-28313095D01*
X252372619Y-29265476D02*
X252325000Y-29313095D01*
X252277380Y-29408333D01*
X252277380Y-29646428D01*
X252325000Y-29741666D01*
X252372619Y-29789285D01*
X252467857Y-29836904D01*
X252563095Y-29836904D01*
X252705952Y-29789285D01*
X253277380Y-29217857D01*
X253277380Y-29836904D01*
X211208630Y-27360714D02*
X210208630Y-27360714D01*
X210208630Y-27598809D01*
X210256250Y-27741666D01*
X210351488Y-27836904D01*
X210446726Y-27884523D01*
X210637202Y-27932142D01*
X210780059Y-27932142D01*
X210970535Y-27884523D01*
X211065773Y-27836904D01*
X211161011Y-27741666D01*
X211208630Y-27598809D01*
X211208630Y-27360714D01*
X211208630Y-28884523D02*
X211208630Y-28313095D01*
X211208630Y-28598809D02*
X210208630Y-28598809D01*
X210351488Y-28503571D01*
X210446726Y-28408333D01*
X210494345Y-28313095D01*
X211208630Y-29836904D02*
X211208630Y-29265476D01*
X211208630Y-29551190D02*
X210208630Y-29551190D01*
X210351488Y-29455952D01*
X210446726Y-29360714D01*
X210494345Y-29265476D01*
X208033630Y-27360714D02*
X207033630Y-27360714D01*
X207033630Y-27598809D01*
X207081250Y-27741666D01*
X207176488Y-27836904D01*
X207271726Y-27884523D01*
X207462202Y-27932142D01*
X207605059Y-27932142D01*
X207795535Y-27884523D01*
X207890773Y-27836904D01*
X207986011Y-27741666D01*
X208033630Y-27598809D01*
X208033630Y-27360714D01*
X208033630Y-28884523D02*
X208033630Y-28313095D01*
X208033630Y-28598809D02*
X207033630Y-28598809D01*
X207176488Y-28503571D01*
X207271726Y-28408333D01*
X207319345Y-28313095D01*
X207033630Y-29503571D02*
X207033630Y-29598809D01*
X207081250Y-29694047D01*
X207128869Y-29741666D01*
X207224107Y-29789285D01*
X207414583Y-29836904D01*
X207652678Y-29836904D01*
X207843154Y-29789285D01*
X207938392Y-29741666D01*
X207986011Y-29694047D01*
X208033630Y-29598809D01*
X208033630Y-29503571D01*
X207986011Y-29408333D01*
X207938392Y-29360714D01*
X207843154Y-29313095D01*
X207652678Y-29265476D01*
X207414583Y-29265476D01*
X207224107Y-29313095D01*
X207128869Y-29360714D01*
X207081250Y-29408333D01*
X207033630Y-29503571D01*
X188983630Y-27836904D02*
X187983630Y-27836904D01*
X187983630Y-28075000D01*
X188031250Y-28217857D01*
X188126488Y-28313095D01*
X188221726Y-28360714D01*
X188412202Y-28408333D01*
X188555059Y-28408333D01*
X188745535Y-28360714D01*
X188840773Y-28313095D01*
X188936011Y-28217857D01*
X188983630Y-28075000D01*
X188983630Y-27836904D01*
X188983630Y-28884523D02*
X188983630Y-29075000D01*
X188936011Y-29170238D01*
X188888392Y-29217857D01*
X188745535Y-29313095D01*
X188555059Y-29360714D01*
X188174107Y-29360714D01*
X188078869Y-29313095D01*
X188031250Y-29265476D01*
X187983630Y-29170238D01*
X187983630Y-28979761D01*
X188031250Y-28884523D01*
X188078869Y-28836904D01*
X188174107Y-28789285D01*
X188412202Y-28789285D01*
X188507440Y-28836904D01*
X188555059Y-28884523D01*
X188602678Y-28979761D01*
X188602678Y-29170238D01*
X188555059Y-29265476D01*
X188507440Y-29313095D01*
X188412202Y-29360714D01*
X169933630Y-27836904D02*
X168933630Y-27836904D01*
X168933630Y-28075000D01*
X168981250Y-28217857D01*
X169076488Y-28313095D01*
X169171726Y-28360714D01*
X169362202Y-28408333D01*
X169505059Y-28408333D01*
X169695535Y-28360714D01*
X169790773Y-28313095D01*
X169886011Y-28217857D01*
X169933630Y-28075000D01*
X169933630Y-27836904D01*
X169362202Y-28979761D02*
X169314583Y-28884523D01*
X169266964Y-28836904D01*
X169171726Y-28789285D01*
X169124107Y-28789285D01*
X169028869Y-28836904D01*
X168981250Y-28884523D01*
X168933630Y-28979761D01*
X168933630Y-29170238D01*
X168981250Y-29265476D01*
X169028869Y-29313095D01*
X169124107Y-29360714D01*
X169171726Y-29360714D01*
X169266964Y-29313095D01*
X169314583Y-29265476D01*
X169362202Y-29170238D01*
X169362202Y-28979761D01*
X169409821Y-28884523D01*
X169457440Y-28836904D01*
X169552678Y-28789285D01*
X169743154Y-28789285D01*
X169838392Y-28836904D01*
X169886011Y-28884523D01*
X169933630Y-28979761D01*
X169933630Y-29170238D01*
X169886011Y-29265476D01*
X169838392Y-29313095D01*
X169743154Y-29360714D01*
X169552678Y-29360714D01*
X169457440Y-29313095D01*
X169409821Y-29265476D01*
X169362202Y-29170238D01*
X150883630Y-27836904D02*
X149883630Y-27836904D01*
X149883630Y-28075000D01*
X149931250Y-28217857D01*
X150026488Y-28313095D01*
X150121726Y-28360714D01*
X150312202Y-28408333D01*
X150455059Y-28408333D01*
X150645535Y-28360714D01*
X150740773Y-28313095D01*
X150836011Y-28217857D01*
X150883630Y-28075000D01*
X150883630Y-27836904D01*
X149883630Y-28741666D02*
X149883630Y-29408333D01*
X150883630Y-28979761D01*
X131833630Y-27836904D02*
X130833630Y-27836904D01*
X130833630Y-28075000D01*
X130881250Y-28217857D01*
X130976488Y-28313095D01*
X131071726Y-28360714D01*
X131262202Y-28408333D01*
X131405059Y-28408333D01*
X131595535Y-28360714D01*
X131690773Y-28313095D01*
X131786011Y-28217857D01*
X131833630Y-28075000D01*
X131833630Y-27836904D01*
X130833630Y-29265476D02*
X130833630Y-29075000D01*
X130881250Y-28979761D01*
X130928869Y-28932142D01*
X131071726Y-28836904D01*
X131262202Y-28789285D01*
X131643154Y-28789285D01*
X131738392Y-28836904D01*
X131786011Y-28884523D01*
X131833630Y-28979761D01*
X131833630Y-29170238D01*
X131786011Y-29265476D01*
X131738392Y-29313095D01*
X131643154Y-29360714D01*
X131405059Y-29360714D01*
X131309821Y-29313095D01*
X131262202Y-29265476D01*
X131214583Y-29170238D01*
X131214583Y-28979761D01*
X131262202Y-28884523D01*
X131309821Y-28836904D01*
X131405059Y-28789285D01*
X112783630Y-27836904D02*
X111783630Y-27836904D01*
X111783630Y-28075000D01*
X111831250Y-28217857D01*
X111926488Y-28313095D01*
X112021726Y-28360714D01*
X112212202Y-28408333D01*
X112355059Y-28408333D01*
X112545535Y-28360714D01*
X112640773Y-28313095D01*
X112736011Y-28217857D01*
X112783630Y-28075000D01*
X112783630Y-27836904D01*
X111783630Y-29313095D02*
X111783630Y-28836904D01*
X112259821Y-28789285D01*
X112212202Y-28836904D01*
X112164583Y-28932142D01*
X112164583Y-29170238D01*
X112212202Y-29265476D01*
X112259821Y-29313095D01*
X112355059Y-29360714D01*
X112593154Y-29360714D01*
X112688392Y-29313095D01*
X112736011Y-29265476D01*
X112783630Y-29170238D01*
X112783630Y-28932142D01*
X112736011Y-28836904D01*
X112688392Y-28789285D01*
X93733630Y-27836904D02*
X92733630Y-27836904D01*
X92733630Y-28075000D01*
X92781250Y-28217857D01*
X92876488Y-28313095D01*
X92971726Y-28360714D01*
X93162202Y-28408333D01*
X93305059Y-28408333D01*
X93495535Y-28360714D01*
X93590773Y-28313095D01*
X93686011Y-28217857D01*
X93733630Y-28075000D01*
X93733630Y-27836904D01*
X93066964Y-29265476D02*
X93733630Y-29265476D01*
X92686011Y-29027380D02*
X93400297Y-28789285D01*
X93400297Y-29408333D01*
X74683630Y-27836904D02*
X73683630Y-27836904D01*
X73683630Y-28075000D01*
X73731250Y-28217857D01*
X73826488Y-28313095D01*
X73921726Y-28360714D01*
X74112202Y-28408333D01*
X74255059Y-28408333D01*
X74445535Y-28360714D01*
X74540773Y-28313095D01*
X74636011Y-28217857D01*
X74683630Y-28075000D01*
X74683630Y-27836904D01*
X73683630Y-28741666D02*
X73683630Y-29360714D01*
X74064583Y-29027380D01*
X74064583Y-29170238D01*
X74112202Y-29265476D01*
X74159821Y-29313095D01*
X74255059Y-29360714D01*
X74493154Y-29360714D01*
X74588392Y-29313095D01*
X74636011Y-29265476D01*
X74683630Y-29170238D01*
X74683630Y-28884523D01*
X74636011Y-28789285D01*
X74588392Y-28741666D01*
X55633630Y-27836904D02*
X54633630Y-27836904D01*
X54633630Y-28075000D01*
X54681250Y-28217857D01*
X54776488Y-28313095D01*
X54871726Y-28360714D01*
X55062202Y-28408333D01*
X55205059Y-28408333D01*
X55395535Y-28360714D01*
X55490773Y-28313095D01*
X55586011Y-28217857D01*
X55633630Y-28075000D01*
X55633630Y-27836904D01*
X54728869Y-28789285D02*
X54681250Y-28836904D01*
X54633630Y-28932142D01*
X54633630Y-29170238D01*
X54681250Y-29265476D01*
X54728869Y-29313095D01*
X54824107Y-29360714D01*
X54919345Y-29360714D01*
X55062202Y-29313095D01*
X55633630Y-28741666D01*
X55633630Y-29360714D01*
X36583630Y-27836904D02*
X35583630Y-27836904D01*
X35583630Y-28075000D01*
X35631250Y-28217857D01*
X35726488Y-28313095D01*
X35821726Y-28360714D01*
X36012202Y-28408333D01*
X36155059Y-28408333D01*
X36345535Y-28360714D01*
X36440773Y-28313095D01*
X36536011Y-28217857D01*
X36583630Y-28075000D01*
X36583630Y-27836904D01*
X36583630Y-29360714D02*
X36583630Y-28789285D01*
X36583630Y-29075000D02*
X35583630Y-29075000D01*
X35726488Y-28979761D01*
X35821726Y-28884523D01*
X35869345Y-28789285D01*
X168007142Y-89533333D02*
X168054761Y-89485714D01*
X168102380Y-89342857D01*
X168102380Y-89247619D01*
X168054761Y-89104761D01*
X167959523Y-89009523D01*
X167864285Y-88961904D01*
X167673809Y-88914285D01*
X167530952Y-88914285D01*
X167340476Y-88961904D01*
X167245238Y-89009523D01*
X167150000Y-89104761D01*
X167102380Y-89247619D01*
X167102380Y-89342857D01*
X167150000Y-89485714D01*
X167197619Y-89533333D01*
X167102380Y-89866666D02*
X167102380Y-90533333D01*
X168102380Y-90104761D01*
X167932038Y-70603663D02*
X167932038Y-70671006D01*
X167999382Y-70805693D01*
X168066726Y-70873037D01*
X168201413Y-70940380D01*
X168336100Y-70940380D01*
X168437115Y-70906709D01*
X168605474Y-70805693D01*
X168706489Y-70704678D01*
X168807504Y-70536319D01*
X168841176Y-70435304D01*
X168841176Y-70300617D01*
X168773832Y-70165930D01*
X168706489Y-70098586D01*
X168571802Y-70031243D01*
X168504458Y-70031243D01*
X167965710Y-69357808D02*
X168100397Y-69492495D01*
X168134069Y-69593510D01*
X168134069Y-69660854D01*
X168100397Y-69829212D01*
X167999382Y-69997571D01*
X167730008Y-70266945D01*
X167628993Y-70300617D01*
X167561649Y-70300617D01*
X167460634Y-70266945D01*
X167325947Y-70132258D01*
X167292275Y-70031243D01*
X167292275Y-69963899D01*
X167325947Y-69862884D01*
X167494306Y-69694525D01*
X167595321Y-69660854D01*
X167662664Y-69660854D01*
X167763680Y-69694525D01*
X167898367Y-69829212D01*
X167932038Y-69930228D01*
X167932038Y-69997571D01*
X167898367Y-70098586D01*
X161932038Y-89278663D02*
X161932038Y-89346006D01*
X161999382Y-89480693D01*
X162066726Y-89548037D01*
X162201413Y-89615380D01*
X162336100Y-89615380D01*
X162437115Y-89581709D01*
X162605474Y-89480693D01*
X162706489Y-89379678D01*
X162807504Y-89211319D01*
X162841176Y-89110304D01*
X162841176Y-88975617D01*
X162773832Y-88840930D01*
X162706489Y-88773586D01*
X162571802Y-88706243D01*
X162504458Y-88706243D01*
X161932038Y-87999136D02*
X162268756Y-88335854D01*
X161965710Y-88706243D01*
X161965710Y-88638899D01*
X161932038Y-88537884D01*
X161763680Y-88369525D01*
X161662664Y-88335854D01*
X161595321Y-88335854D01*
X161494306Y-88369525D01*
X161325947Y-88537884D01*
X161292275Y-88638899D01*
X161292275Y-88706243D01*
X161325947Y-88807258D01*
X161494306Y-88975617D01*
X161595321Y-89009289D01*
X161662664Y-89009289D01*
X172598586Y-79937115D02*
X172598586Y-80004458D01*
X172665930Y-80139145D01*
X172733274Y-80206489D01*
X172867961Y-80273832D01*
X173002648Y-80273832D01*
X173103663Y-80240161D01*
X173272022Y-80139145D01*
X173373037Y-80038130D01*
X173474052Y-79869771D01*
X173507724Y-79768756D01*
X173507724Y-79634069D01*
X173440380Y-79499382D01*
X173373037Y-79432038D01*
X173238350Y-79364695D01*
X173171006Y-79364695D01*
X172396556Y-78926962D02*
X171925151Y-79398367D01*
X172834289Y-78825947D02*
X172497571Y-79499382D01*
X172059838Y-79061649D01*
M02*
