M48
; DRILL file {KiCad (5.1.4)-1} date 11/14/2020 1:14:43 PM
; FORMAT={-:-/ absolute / inch / decimal}
; #@! TF.CreationDate,2020-11-14T13:14:43-08:00
; #@! TF.GenerationSoftware,Kicad,Pcbnew,(5.1.4)-1
; #@! TF.FileFunction,Plated,1,2,PTH
FMAT,2
INCH
T1C0.0157
T2C0.0236
T3C0.0579
T4C0.0906
%
G90
G05
T1
X1.3868Y-1.19
X1.4813Y-1.94
X1.9552Y-2.7534
X1.9831Y-2.7255
X2.0157Y-2.811
X2.3465Y-2.7126
X4.0079Y-2.8297
X4.7283Y-2.8012
X5.1937Y-2.7826
X5.5591Y-2.8583
X5.6535Y-2.6417
X5.8547Y-3.5563
X5.911Y-3.5236
X5.9761Y-3.2388
X6.0039Y-3.211
X6.0317Y-3.1832
X6.0955Y-3.1811
X6.1492Y-3.3772
X6.1654Y-3.0039
X6.4331Y-3.5748
X6.4488Y-2.8317
X6.4701Y-2.7441
X6.4709Y-3.6075
X6.5539Y-2.6457
X6.563Y-2.7185
X6.6244Y-2.7398
X6.6299Y-2.8661
X6.6417Y-3.437
X6.6689Y-2.8579
X6.7717Y-3.3031
X6.7874Y-3.0276
X7.8612Y-2.69
X7.8622Y-2.752
X7.8622Y-2.7913
X8.1496Y-2.689
X8.1496Y-2.752
X8.1496Y-2.7913
X8.8071Y-1.189
X8.9075Y-2.75
X8.9424Y-0.8092
X8.9646Y-1.0276
X8.9646Y-1.0945
X8.9882Y-1.9409
X9.049Y-1.0913
X9.0521Y-0.9686
X9.1339Y-1.0265
X9.1521Y-0.8092
X9.1614Y-0.9535
X9.2874Y-1.189
X9.3819Y-1.9409
X9.7453Y-2.7571
X1.7709Y-2.7746
X1.7882Y-2.7329
X1.7882Y-2.8164
X1.83Y-2.7156
X1.83Y-2.8337
X1.8717Y-2.7329
X1.8717Y-2.8164
X1.889Y-2.7746
X1.8319Y-1.4065
X1.8493Y-1.3648
X1.8493Y-1.4482
X1.891Y-1.3475
X1.891Y-1.4656
X1.9327Y-1.3648
X1.9327Y-1.4482
X1.9501Y-1.4065
X4.8319Y-1.4065
X4.8493Y-1.3648
X4.8493Y-1.4482
X4.891Y-1.3475
X4.891Y-1.4656
X4.9327Y-1.3648
X4.9327Y-1.4482
X4.9501Y-1.4065
X3.6174Y-3.2293
X3.6347Y-3.1876
X3.6347Y-3.2711
X3.6764Y-3.1703
X3.6764Y-3.2884
X3.7182Y-3.1876
X3.7182Y-3.2711
X3.7355Y-3.2293
X7.7744Y-3.2372
X7.7917Y-3.1955
X7.7917Y-3.279
X7.8334Y-3.1782
X7.8334Y-3.2963
X7.8751Y-3.1955
X7.8751Y-3.279
X7.8925Y-3.2372
X6.0322Y-2.1585
X6.0496Y-2.1168
X6.0496Y-2.2002
X6.0913Y-2.0994
X6.0913Y-2.2175
X6.133Y-2.1168
X6.133Y-2.2002
X6.1503Y-2.1585
X8.8885Y-1.316
X8.9059Y-1.2742
X8.9059Y-1.3577
X8.9476Y-1.2569
X8.9476Y-1.375
X8.9893Y-1.2742
X8.9893Y-1.3577
X9.0066Y-1.316
T3
X9.6937Y-2.4312
X9.7453Y-2.3738
X9.9422Y-2.3541
X9.9437Y-2.3312
X5.9437Y-2.4312
X5.9953Y-2.3738
X6.1922Y-2.3541
X6.1937Y-2.3312
X5.1937Y-2.4312
X5.2453Y-2.3738
X5.4422Y-2.3541
X5.4437Y-2.3312
X9.3187Y-2.4312
X9.3703Y-2.3738
X9.5672Y-2.3541
X9.5687Y-2.3312
X8.1937Y-2.4312
X8.2453Y-2.3738
X8.4422Y-2.3541
X8.4437Y-2.3312
X8.1Y-3.1812
X8.1516Y-3.1238
X8.3484Y-3.1041
X8.35Y-3.0812
X0.975Y-1.6812
X1.0266Y-1.6238
X1.2234Y-1.6041
X1.225Y-1.5813
X8.9437Y-2.4312
X8.9953Y-2.3738
X9.1922Y-2.3541
X9.1937Y-2.3312
X1.1625Y-2.4312
X1.2141Y-2.3738
X1.4109Y-2.3541
X1.4125Y-2.3312
X9.4125Y-0.9313
X9.4641Y-0.8738
X9.6609Y-0.8541
X9.6625Y-0.8312
X0.975Y-3.1812
X1.0266Y-3.1238
X1.2234Y-3.1041
X1.225Y-3.0812
X6.6937Y-2.4312
X6.7453Y-2.3738
X6.9422Y-2.3541
X6.9437Y-2.3312
X3.3188Y-1.6812
X3.3703Y-1.6238
X3.5672Y-1.6041
X3.5688Y-1.5813
X9.5062Y-1.6812
X9.5578Y-1.6238
X9.7547Y-1.6041
X9.7562Y-1.5813
X9.6937Y-3.1812
X9.7453Y-3.1238
X9.9422Y-3.1041
X9.9437Y-3.0812
X8.9437Y-3.1812
X8.9953Y-3.1238
X9.1922Y-3.1041
X9.1937Y-3.0812
X2.5688Y-3.1812
X2.6203Y-3.1238
X2.8172Y-3.1041
X2.8188Y-3.0812
X1.8187Y-3.1812
X1.8703Y-3.1238
X2.0672Y-3.1041
X2.0688Y-3.0812
X7.4437Y-2.4312
X7.4953Y-2.3738
X7.6922Y-2.3541
X7.6937Y-2.3312
X5.2875Y-3.1812
X5.3391Y-3.1238
X5.5359Y-3.1041
X5.5375Y-3.0812
X4.4437Y-2.4312
X4.4953Y-2.3738
X4.6922Y-2.3541
X4.6937Y-2.3312
X1.8187Y-1.6812
X1.8703Y-1.6238
X2.0672Y-1.6041
X2.0688Y-1.5813
X6.1312Y-0.9313
X6.1828Y-0.8738
X6.3797Y-0.8541
X6.3812Y-0.8312
X5.3812Y-0.9313
X5.4328Y-0.8738
X5.6297Y-0.8541
X5.6312Y-0.8312
X3.1313Y-0.9313
X3.1828Y-0.8738
X3.3797Y-0.8541
X3.3813Y-0.8312
X2.3813Y-0.9313
X2.4328Y-0.8738
X2.6297Y-0.8541
X2.6313Y-0.8312
X1.6312Y-0.9313
X1.6828Y-0.8738
X1.8797Y-0.8541
X1.8812Y-0.8312
X2.5688Y-1.6812
X2.6203Y-1.6238
X2.8172Y-1.6041
X2.8188Y-1.5813
X8.3812Y-0.9313
X8.4328Y-0.8738
X8.6297Y-0.8541
X8.6312Y-0.8312
X0.8812Y-0.9313
X0.9328Y-0.8738
X1.1297Y-0.8541
X1.1312Y-0.8312
X7.8187Y-1.6812
X7.8703Y-1.6238
X8.0672Y-1.6041
X8.0687Y-1.5813
X2.9438Y-2.4312
X2.9953Y-2.3738
X3.1922Y-2.3541
X3.1938Y-2.3312
X6.8812Y-0.9313
X6.9328Y-0.8738
X7.1297Y-0.8541
X7.1312Y-0.8312
X4.6312Y-0.9313
X4.6828Y-0.8738
X4.8797Y-0.8541
X4.8812Y-0.8312
X8.5687Y-1.6812
X8.6203Y-1.6238
X8.8172Y-1.6041
X8.8187Y-1.5813
X4.8187Y-1.6812
X4.8703Y-1.6238
X5.0672Y-1.6041
X5.0687Y-1.5813
X4.0687Y-1.6812
X4.1203Y-1.6238
X4.3172Y-1.6041
X4.3187Y-1.5813
X7.6312Y-0.9313
X7.6828Y-0.8738
X7.8797Y-0.8541
X7.8812Y-0.8312
X3.8813Y-0.9313
X3.9328Y-0.8738
X4.1297Y-0.8541
X4.1312Y-0.8312
X3.6938Y-2.4312
X3.7453Y-2.3738
X3.9422Y-2.3541
X3.9438Y-2.3312
X2.1938Y-2.4312
X2.2453Y-2.3738
X2.4422Y-2.3541
X2.4438Y-2.3312
X7.0687Y-1.6812
X7.1203Y-1.6238
X7.3172Y-1.6041
X7.3187Y-1.5813
X6.3187Y-1.6812
X6.3703Y-1.6238
X6.5672Y-1.6041
X6.5687Y-1.5813
X5.5687Y-1.6812
X5.6203Y-1.6238
X5.8172Y-1.6041
X5.8187Y-1.5813
T4
X1.83Y-2.7746
X1.891Y-1.4065
X4.891Y-1.4065
X3.6764Y-3.2293
X7.8334Y-3.2372
X6.0913Y-2.1585
X8.9476Y-1.316
T2
G00X8.8768Y-0.689
M15
G01X8.8768Y-0.7126
M16
G05
G00X8.8768Y-0.8437
M15
G01X8.8768Y-0.887
M16
G05
G00X9.2169Y-0.689
M15
G01X9.2169Y-0.7126
M16
G05
G00X9.2169Y-0.8437
M15
G01X9.2169Y-0.887
M16
G05
T0
M30
